<svg width="24" height="24" viewBox="0 0 24 24" fill="none" xmlns="http://www.w3.org/2000/svg">
<path d="M18.5 3H13.5V1.5C13.5 1.10218 13.342 0.720644 13.0607 0.43934C12.7794 0.158035 12.3978 0 12 0V0C11.6022 0 11.2206 0.158035 10.9393 0.43934C10.658 0.720644 10.5 1.10218 10.5 1.5V3H5.5C4.04131 3 2.64236 3.57946 1.61091 4.61091C0.579463 5.64236 0 7.04131 0 8.5L0 15.5C0 16.9587 0.579463 18.3576 1.61091 19.3891C2.64236 20.4205 4.04131 21 5.5 21H18.5C19.9587 21 21.3576 20.4205 22.3891 19.3891C23.4205 18.3576 24 16.9587 24 15.5V8.5C24 7.04131 23.4205 5.64236 22.3891 4.61091C21.3576 3.57946 19.9587 3 18.5 3ZM21 15.5C21 16.163 20.7366 16.7989 20.2678 17.2678C19.7989 17.7366 19.163 18 18.5 18H5.5C4.83696 18 4.20107 17.7366 3.73223 17.2678C3.26339 16.7989 3 16.163 3 15.5V8.5C3 7.83696 3.26339 7.20107 3.73223 6.73223C4.20107 6.26339 4.83696 6 5.5 6H18.5C19.163 6 19.7989 6.26339 20.2678 6.73223C20.7366 7.20107 21 7.83696 21 8.5V15.5Z" fill="#394458"/>
<path d="M6.5 10.9997C7.32843 10.9997 8 10.3281 8 9.49969C8 8.67127 7.32843 7.99969 6.5 7.99969C5.67157 7.99969 5 8.67127 5 9.49969C5 10.3281 5.67157 10.9997 6.5 10.9997Z" fill="#394458"/>
<path d="M11.5 10.9997C12.3284 10.9997 13 10.3281 13 9.49969C13 8.67127 12.3284 7.99969 11.5 7.99969C10.6716 7.99969 10 8.67127 10 9.49969C10 10.3281 10.6716 10.9997 11.5 10.9997Z" fill="#394458"/>
<path d="M17.5 7.99969H16.5C16.1022 7.99969 15.7206 8.15773 15.4393 8.43903C15.158 8.72034 15 9.10187 15 9.49969C15 9.89752 15.158 10.2791 15.4393 10.5604C15.7206 10.8417 16.1022 10.9997 16.5 10.9997H17.5C17.8978 10.9997 18.2793 10.8417 18.5607 10.5604C18.842 10.2791 19 9.89752 19 9.49969C19 9.10187 18.842 8.72034 18.5607 8.43903C18.2793 8.15773 17.8978 7.99969 17.5 7.99969Z" fill="#394458"/>
<path d="M11.5 13.0003H6.5C6.10217 13.0003 5.72064 13.1583 5.43934 13.4396C5.15803 13.7209 5 14.1025 5 14.5003C5 14.8981 5.15803 15.2797 5.43934 15.561C5.72064 15.8423 6.10217 16.0003 6.5 16.0003H11.5C11.8978 16.0003 12.2793 15.8423 12.5606 15.561C12.842 15.2797 13 14.8981 13 14.5003C13 14.1025 12.842 13.7209 12.5606 13.4396C12.2793 13.1583 11.8978 13.0003 11.5 13.0003Z" fill="#394458"/>
<path d="M17.5 13.0003H16.5C16.1022 13.0003 15.7206 13.1583 15.4393 13.4396C15.158 13.7209 15 14.1025 15 14.5003C15 14.8981 15.158 15.2797 15.4393 15.561C15.7206 15.8423 16.1022 16.0003 16.5 16.0003H17.5C17.8978 16.0003 18.2793 15.8423 18.5607 15.561C18.842 15.2797 19 14.8981 19 14.5003C19 14.1025 18.842 13.7209 18.5607 13.4396C18.2793 13.1583 17.8978 13.0003 17.5 13.0003Z" fill="#394458"/>
</svg>
