<svg width="24" height="24" viewBox="0 0 24 24" fill="none" xmlns="http://www.w3.org/2000/svg">
<path d="M19.0002 2.607V1.5C19.0002 1.10218 18.8422 0.720644 18.5609 0.43934C18.2796 0.158035 17.8981 0 17.5002 0C17.1024 0 16.7209 0.158035 16.4396 0.43934C16.1583 0.720644 16.0002 1.10218 16.0002 1.5V2H13.5002V1.5C13.5002 1.10218 13.3422 0.720644 13.0609 0.43934C12.7796 0.158035 12.3981 0 12.0002 0C11.6024 0 11.2209 0.158035 10.9396 0.43934C10.6583 0.720644 10.5002 1.10218 10.5002 1.5V2H8.00024V1.5C8.00024 1.10218 7.84221 0.720644 7.5609 0.43934C7.2796 0.158035 6.89807 0 6.50024 0C6.10242 0 5.72089 0.158035 5.43958 0.43934C5.15828 0.720644 5.00024 1.10218 5.00024 1.5V2.607C4.09819 3.06733 3.34074 3.76778 2.81139 4.63115C2.28204 5.49452 2.00135 6.48728 2.00024 7.5V18.5C2.00183 19.9582 2.5818 21.3562 3.61291 22.3873C4.64402 23.4184 6.04204 23.9984 7.50024 24H16.5002C17.9584 23.9981 19.3562 23.4181 20.3873 22.387C21.4183 21.356 21.9984 19.9581 22.0002 18.5V7.5C21.9991 6.48728 21.7184 5.49452 21.1891 4.63115C20.6598 3.76778 19.9023 3.06733 19.0002 2.607ZM19.0002 18.5C19.0002 19.163 18.7369 19.7989 18.268 20.2678C17.7992 20.7366 17.1633 21 16.5002 21H7.50024C6.8372 21 6.20132 20.7366 5.73248 20.2678C5.26364 19.7989 5.00024 19.163 5.00024 18.5V7.5C5.00024 6.83696 5.26364 6.20107 5.73248 5.73223C6.20132 5.26339 6.8372 5 7.50024 5H16.5002C17.1633 5 17.7992 5.26339 18.268 5.73223C18.7369 6.20107 19.0002 6.83696 19.0002 7.5V18.5ZM17.0002 8.5C17.0002 8.89782 16.8422 9.27936 16.5609 9.56066C16.2796 9.84196 15.8981 10 15.5002 10H8.50024C8.10242 10 7.72089 9.84196 7.43958 9.56066C7.15828 9.27936 7.00024 8.89782 7.00024 8.5C7.00024 8.10218 7.15828 7.72064 7.43958 7.43934C7.72089 7.15804 8.10242 7 8.50024 7H15.5002C15.8981 7 16.2796 7.15804 16.5609 7.43934C16.8422 7.72064 17.0002 8.10218 17.0002 8.5ZM13.5002 13.5C13.5002 13.8978 13.3422 14.2794 13.0609 14.5607C12.7796 14.842 12.3981 15 12.0002 15H8.50024C8.10242 15 7.72089 14.842 7.43958 14.5607C7.15828 14.2794 7.00024 13.8978 7.00024 13.5C7.00024 13.1022 7.15828 12.7206 7.43958 12.4393C7.72089 12.158 8.10242 12 8.50024 12H12.0002C12.3981 12 12.7796 12.158 13.0609 12.4393C13.3422 12.7206 13.5002 13.1022 13.5002 13.5Z" fill="#394458"/>
</svg>
