<svg width="24" height="24" viewBox="0 0 24 24" fill="none" xmlns="http://www.w3.org/2000/svg">
<g clip-path="url(#clip0_34_8973)">
<path d="M12 24.0009C11.767 24.0009 11.5372 23.9465 11.329 23.8419L10.949 23.6509C8.852 22.6009 2 18.6719 2 12.1519V7.05187C1.99921 5.94245 2.34835 4.86104 2.99775 3.96154C3.64715 3.06204 4.56371 2.39029 5.617 2.04187L11.528 0.0768696C11.8346 -0.0241584 12.1654 -0.0241584 12.472 0.0768696L18.383 2.03687C19.4363 2.38529 20.3529 3.05704 21.0023 3.95654C21.6517 4.85604 22.0008 5.93745 22 7.04687V12.1469C22 19.5169 15.078 22.8749 12.957 23.7279L12.563 23.8869C12.3845 23.961 12.1933 23.9997 12 24.0009ZM12 3.08087L6.561 4.88087C6.10567 5.03122 5.70952 5.32165 5.42916 5.71066C5.1488 6.09968 4.9986 6.56736 5 7.04687V12.1469C5 16.7539 10.143 19.8519 12.068 20.8469C13.968 20.0389 19 17.4029 19 12.1469V7.04687C19.0006 6.56804 18.85 6.10126 18.5697 5.71304C18.2894 5.32483 17.8937 5.035 17.439 4.88487L12 3.08087ZM13.5 12.5009V6.50087C13.5 6.10304 13.342 5.72151 13.0607 5.44021C12.7794 5.15891 12.3978 5.00087 12 5.00087C11.6022 5.00087 11.2206 5.15891 10.9393 5.44021C10.658 5.72151 10.5 6.10304 10.5 6.50087V12.5009C10.5 12.8987 10.658 13.2802 10.9393 13.5615C11.2206 13.8428 11.6022 14.0009 12 14.0009C12.3978 14.0009 12.7794 13.8428 13.0607 13.5615C13.342 13.2802 13.5 12.8987 13.5 12.5009ZM12 15.0009C11.7033 15.0009 11.4133 15.0888 11.1666 15.2537C10.92 15.4185 10.7277 15.6528 10.6142 15.9268C10.5007 16.2009 10.4709 16.5025 10.5288 16.7935C10.5867 17.0845 10.7296 17.3518 10.9393 17.5615C11.1491 17.7713 11.4164 17.9142 11.7074 17.972C11.9983 18.0299 12.2999 18.0002 12.574 17.8867C12.8481 17.7732 13.0824 17.5809 13.2472 17.3342C13.412 17.0876 13.5 16.7975 13.5 16.5009C13.5 16.103 13.342 15.7215 13.0607 15.4402C12.7794 15.1589 12.3978 15.0009 12 15.0009Z" fill="#394458"/>
</g>
<defs>
<clipPath id="clip0_34_8973">
<rect width="24" height="24" fill="white"/>
</clipPath>
</defs>
</svg>
