<svg width="24" height="24" viewBox="0 0 24 24" fill="none" xmlns="http://www.w3.org/2000/svg">
<g clip-path="url(#clip0_34_9172)">
<path d="M8.09391 1.32807C7.96941 1.07872 7.77789 0.868991 7.54085 0.722404C7.30381 0.575817 7.03062 0.498169 6.75191 0.498169C6.47321 0.498169 6.20002 0.575817 5.96298 0.722404C5.72593 0.868991 5.53442 1.07872 5.40991 1.32807L0.159914 11.8281C0.0455891 12.0566 -0.00843876 12.3106 0.00295696 12.566C0.0143527 12.8213 0.090794 13.0694 0.225028 13.2869C0.359263 13.5044 0.546838 13.684 0.769959 13.8086C0.993079 13.9332 1.24434 13.9988 1.49991 13.9991C1.77852 13.9992 2.05165 13.9216 2.28868 13.7752C2.52572 13.6288 2.71728 13.4192 2.84191 13.1701L3.42891 11.9991H10.0749L10.6599 13.1701C10.7844 13.4189 10.9756 13.6283 11.2123 13.7747C11.4489 13.9211 11.7216 13.9988 11.9999 13.9991C12.2557 13.9991 12.5072 13.9338 12.7306 13.8093C12.954 13.6848 13.1418 13.5053 13.2763 13.2878C13.4107 13.0702 13.4874 12.8219 13.4988 12.5665C13.5103 12.311 13.4563 12.0568 13.3419 11.8281L8.09391 1.32807ZM4.92891 8.99907L6.75191 5.35307L8.57491 8.99907H4.92891Z" fill="#394458"/>
<path d="M13.0002 23.5001C12.8032 23.5002 12.6081 23.4615 12.4261 23.3862C12.244 23.3108 12.0786 23.2004 11.9392 23.0611L6.93924 18.0611C6.65784 17.7797 6.49976 17.3981 6.49976 17.0001C6.49976 16.6022 6.65784 16.2205 6.93924 15.9391C7.22063 15.6577 7.60228 15.4996 8.00023 15.4996C8.39819 15.4996 8.77984 15.6577 9.06123 15.9391L13.0002 19.8791L21.4392 11.4391C21.7206 11.1577 22.1023 10.9996 22.5002 10.9996C22.8982 10.9996 23.2798 11.1577 23.5612 11.4391C23.8426 11.7205 24.0007 12.1022 24.0007 12.5001C24.0007 12.8981 23.8426 13.2797 23.5612 13.5611L14.0612 23.0611C13.9219 23.2004 13.7564 23.3108 13.5744 23.3862C13.3923 23.4615 13.1972 23.5002 13.0002 23.5001Z" fill="#394458"/>
</g>
<defs>
<clipPath id="clip0_34_9172">
<rect width="24" height="24" fill="white"/>
</clipPath>
</defs>
</svg>
