<svg width="24" height="24" viewBox="0 0 24 24" fill="none" xmlns="http://www.w3.org/2000/svg">
<g clip-path="url(#clip0_34_9353)">
<path d="M5.5 0H3.5C2.57174 0 1.6815 0.368749 1.02513 1.02513C0.368749 1.6815 0 2.57174 0 3.5L0 5.5C0.00226823 6.33771 0.305439 7.14673 0.854266 7.77962C1.40309 8.41252 2.16104 8.82716 2.99 8.948V9.493C2.98814 9.89031 3.14398 10.2721 3.42332 10.5547C3.70267 10.8372 4.0827 10.9974 4.48 11C4.67707 11.0011 4.87241 10.9633 5.05487 10.8888C5.23732 10.8143 5.40332 10.7046 5.54336 10.566C5.68341 10.4273 5.79476 10.2624 5.87105 10.0807C5.94734 9.89902 5.98708 9.70407 5.988 9.507V8.95C6.73251 8.84485 7.42305 8.50172 7.95653 7.97185C8.49001 7.44198 8.8378 6.75379 8.948 6.01H9.492C9.88948 6.01213 10.2716 5.8564 10.5543 5.57703C10.8371 5.29766 10.9974 4.91748 11 4.52C11.0011 4.32302 10.9633 4.12775 10.8889 3.94536C10.8145 3.76297 10.7049 3.59702 10.5663 3.45699C10.4278 3.31696 10.263 3.20559 10.0814 3.12924C9.89983 3.05288 9.70498 3.01305 9.508 3.012H8.95C8.83394 2.1787 8.42109 1.41526 7.7873 0.861931C7.15351 0.308603 6.34134 0.00255158 5.5 0V0ZM6 5.5C6 5.63261 5.94732 5.75979 5.85355 5.85355C5.75979 5.94732 5.63261 6 5.5 6H3.5C3.36739 6 3.24021 5.94732 3.14645 5.85355C3.05268 5.75979 3 5.63261 3 5.5V3.5C3 3.36739 3.05268 3.24021 3.14645 3.14645C3.24021 3.05268 3.36739 3 3.5 3H5.5C5.63261 3 5.75979 3.05268 5.85355 3.14645C5.94732 3.24021 6 3.36739 6 3.5V5.5Z" fill="#394458"/>
<path d="M20.4998 0H18.4998C17.6621 0.00226823 16.853 0.305439 16.2202 0.854266C15.5873 1.40309 15.1726 2.16104 15.0518 2.99H14.5078C14.1103 2.98787 13.7282 3.1436 13.4455 3.42297C13.1627 3.70234 13.0024 4.08252 12.9998 4.48C12.9987 4.67698 13.0365 4.87225 13.1109 5.05464C13.1853 5.23703 13.2949 5.40298 13.4335 5.54301C13.572 5.68304 13.7368 5.79441 13.9184 5.87076C14.0999 5.94711 14.2948 5.98695 14.4918 5.988H15.0498C15.1553 6.73215 15.4986 7.42224 16.0285 7.95532C16.5583 8.4884 17.2463 8.83591 17.9898 8.946V9.491C17.9874 9.88865 18.143 10.271 18.4224 10.554C18.7018 10.8369 19.0821 10.9974 19.4798 11C19.6768 11.0011 19.8722 10.9633 20.0546 10.8888C20.2371 10.8143 20.4031 10.7046 20.5431 10.566C20.6832 10.4273 20.7945 10.2624 20.8708 10.0807C20.9471 9.89902 20.9869 9.70407 20.9878 9.507V8.95C21.8211 8.83394 22.5845 8.42109 23.1378 7.7873C23.6912 7.15351 23.9972 6.34134 23.9998 5.5V3.5C23.9998 2.57174 23.631 1.6815 22.9747 1.02513C22.3183 0.368749 21.428 0 20.4998 0ZM20.9998 5.5C20.9998 5.63261 20.9471 5.75979 20.8533 5.85355C20.7596 5.94732 20.6324 6 20.4998 6H18.4998C18.3672 6 18.24 5.94732 18.1462 5.85355C18.0525 5.75979 17.9998 5.63261 17.9998 5.5V3.5C17.9998 3.36739 18.0525 3.24021 18.1462 3.14645C18.24 3.05268 18.3672 3 18.4998 3H20.4998C20.6324 3 20.7596 3.05268 20.8533 3.14645C20.9471 3.24021 20.9998 3.36739 20.9998 3.5V5.5Z" fill="#394458"/>
<path d="M21.0098 15.0528V14.5078C21.0116 14.1104 20.8558 13.7286 20.5765 13.4461C20.2971 13.1636 19.9171 13.0034 19.5198 13.0008C19.3227 12.9997 19.1274 13.0375 18.9449 13.112C18.7625 13.1864 18.5965 13.2961 18.4564 13.4348C18.3164 13.5734 18.205 13.7383 18.1287 13.92C18.0524 14.1017 18.0127 14.2967 18.0118 14.4938V15.0508C17.2678 15.1565 16.5779 15.4999 16.0451 16.0297C15.5122 16.5595 15.1648 17.2474 15.0548 17.9908H14.5108C14.3137 17.9893 14.1183 18.0267 13.9357 18.1008C13.7531 18.1749 13.5869 18.2843 13.4465 18.4227C13.3062 18.561 13.1945 18.7257 13.1179 18.9073C13.0412 19.0888 13.0011 19.2837 12.9998 19.4808C12.9987 19.6777 13.0365 19.873 13.1109 20.0554C13.1853 20.2378 13.2949 20.4037 13.4335 20.5438C13.572 20.6838 13.7368 20.7952 13.9184 20.8715C14.0999 20.9479 14.2948 20.9877 14.4918 20.9888H15.0498C15.1658 21.8221 15.5787 22.5855 16.2125 23.1388C16.8463 23.6922 17.6584 23.9982 18.4998 24.0008H20.4998C21.428 24.0008 22.3183 23.632 22.9747 22.9756C23.631 22.3193 23.9998 21.429 23.9998 20.5008V18.5008C23.9975 17.663 23.6943 16.854 23.1455 16.2211C22.5967 15.5882 21.8387 15.1736 21.0098 15.0528ZM20.9998 20.5008C20.9998 20.6334 20.9471 20.7605 20.8533 20.8543C20.7596 20.9481 20.6324 21.0008 20.4998 21.0008H18.4998C18.3672 21.0008 18.24 20.9481 18.1462 20.8543C18.0525 20.7605 17.9998 20.6334 17.9998 20.5008V18.5008C17.9998 18.3681 18.0525 18.241 18.1462 18.1472C18.24 18.0534 18.3672 18.0008 18.4998 18.0008H20.4998C20.6324 18.0008 20.7596 18.0534 20.8533 18.1472C20.9471 18.241 20.9998 18.3681 20.9998 18.5008V20.5008Z" fill="#394458"/>
<path d="M6.01 15.0528V14.5078C6.01186 14.1104 5.85602 13.7286 5.57668 13.4461C5.29733 13.1636 4.9173 13.0034 4.52 13.0008C4.32293 12.9997 4.12759 13.0375 3.94513 13.112C3.76268 13.1864 3.59668 13.2961 3.45664 13.4348C3.31659 13.5734 3.20524 13.7383 3.12895 13.92C3.05266 14.1017 3.01292 14.2967 3.012 14.4938V15.0508C2.1787 15.1668 1.41526 15.5797 0.861931 16.2135C0.308603 16.8472 0.00255158 17.6594 0 18.5008L0 20.5008C0 21.429 0.368749 22.3193 1.02513 22.9756C1.6815 23.632 2.57174 24.0008 3.5 24.0008H5.5C6.33771 23.9985 7.14673 23.6953 7.77962 23.1465C8.41252 22.5977 8.82716 21.8397 8.948 21.0108H9.492C9.88948 21.0129 10.2716 20.8572 10.5543 20.5778C10.8371 20.2984 10.9974 19.9182 11 19.5208C11.0011 19.3238 10.9633 19.1285 10.8889 18.9461C10.8145 18.7637 10.7049 18.5978 10.5663 18.4577C10.4278 18.3177 10.263 18.2063 10.0814 18.13C9.89983 18.0536 9.70498 18.0138 9.508 18.0128H8.95C8.84485 17.2682 8.50172 16.5777 7.97185 16.0442C7.44198 15.5107 6.75379 15.163 6.01 15.0528ZM6 20.5008C6 20.6334 5.94732 20.7605 5.85355 20.8543C5.75979 20.9481 5.63261 21.0008 5.5 21.0008H3.5C3.36739 21.0008 3.24021 20.9481 3.14645 20.8543C3.05268 20.7605 3 20.6334 3 20.5008V18.5008C3 18.3681 3.05268 18.241 3.14645 18.1472C3.24021 18.0534 3.36739 18.0008 3.5 18.0008H5.5C5.63261 18.0008 5.75979 18.0534 5.85355 18.1472C5.94732 18.241 6 18.3681 6 18.5008V20.5008Z" fill="#394458"/>
</g>
<defs>
<clipPath id="clip0_34_9353">
<rect width="24" height="24" fill="white"/>
</clipPath>
</defs>
</svg>
