<svg width="199" height="82" viewBox="0 0 199 82" fill="none" xmlns="http://www.w3.org/2000/svg">
<g clip-path="url(#clip0_1_108)">
<g clip-path="url(#clip1_1_108)">
<path d="M69.62 10.47C70.1 17.02 72.23 53.47 47.4 73.86C43.3815 77.1469 38.9128 79.8409 34.13 81.86C26.714 77.592 20.1723 71.9597 14.85 65.26C-2.58 43.17 -0.250001 17 0.589999 10.1C4.71017 10.0835 8.81798 9.64789 12.85 8.8C20.2301 7.23423 27.2644 4.34057 33.61 0.26L36.17 0C42.5204 4.09176 49.5252 7.0648 56.88 8.79C61.061 9.76782 65.3284 10.3306 69.62 10.47Z" fill="#C4C4CE"/>
<path d="M65.43 14.1499C65.85 19.8999 67.73 51.9699 45.89 69.8699C42.3594 72.756 38.4284 75.114 34.22 76.8699C27.7033 73.1232 21.9553 68.176 17.28 62.2899C2 42.8999 4 19.8799 4.74 13.8299C8.36287 13.8101 11.9745 13.4249 15.52 12.6799C22.0105 11.3109 28.1957 8.7656 33.77 5.16994L36 4.93994C41.5812 8.54288 47.7413 11.1578 54.21 12.6699C57.8921 13.5317 61.6504 14.0274 65.43 14.1499Z" fill="#394458"/>
<path d="M42.75 36.98H26.75V52.98H42.75V36.98Z" fill="#EEF1F6"/>
<path d="M51.11 30.66L42.84 36.9701L36.71 28.93L36.76 28.89L36.71 28.82L44.92 22.55L51.11 30.66Z" fill="#EEF1F6"/>
<path d="M36.66 28.86L36.71 28.93L26.75 36.88L18.77 26.86L28.79 18.89L36.71 28.82L36.66 28.86Z" fill="#EEF1F6"/>
<path d="M76.27 24.5H76.39C76.518 24.5 76.63 24.46 76.726 24.38C76.822 24.284 76.902 24.172 76.966 24.044C77.03 23.9 77.078 23.756 77.11 23.612C77.142 23.452 77.158 23.308 77.158 23.18V10.388C77.158 10.276 77.134 10.148 77.086 10.004C77.054 9.85999 77.006 9.72399 76.942 9.59599C76.878 9.46799 76.798 9.36399 76.702 9.28399C76.606 9.18799 76.502 9.13999 76.39 9.13999H76.27V8.89999H88.558V9.13999H88.366C88.254 9.13999 88.158 9.18799 88.078 9.28399C87.998 9.36399 87.926 9.47599 87.862 9.61999C87.814 9.74799 87.774 9.88399 87.742 10.028C87.71 10.172 87.694 10.292 87.694 10.388V23.18C87.694 23.308 87.702 23.444 87.718 23.588C87.75 23.732 87.79 23.876 87.838 24.02C87.902 24.148 87.974 24.26 88.054 24.356C88.15 24.452 88.254 24.5 88.366 24.5H88.558V24.74H85.198V24.5H85.414C85.526 24.5 85.622 24.452 85.702 24.356C85.798 24.26 85.87 24.148 85.918 24.02C85.982 23.892 86.022 23.756 86.038 23.612C86.07 23.452 86.086 23.308 86.086 23.18V9.73999H78.766V23.18C78.766 23.308 78.782 23.452 78.814 23.612C78.846 23.756 78.886 23.892 78.934 24.02C78.998 24.148 79.078 24.26 79.174 24.356C79.27 24.452 79.382 24.5 79.51 24.5H79.63V24.74H76.27V24.5ZM100.4 24.5H100.52C100.648 24.5 100.76 24.46 100.856 24.38C100.952 24.284 101.032 24.172 101.096 24.044C101.176 23.9 101.232 23.756 101.264 23.612C101.296 23.452 101.312 23.308 101.312 23.18V12.188L93.3441 22.964V23.18C93.3441 23.308 93.3601 23.452 93.3921 23.612C93.4401 23.756 93.4961 23.892 93.5601 24.02C93.6241 24.148 93.7041 24.26 93.8001 24.356C93.8961 24.452 94.0081 24.5 94.1361 24.5H94.2561V24.74H90.8481V24.5H90.9681C91.0961 24.5 91.2081 24.46 91.3041 24.38C91.4001 24.284 91.4801 24.172 91.5441 24.044C91.6241 23.9 91.6801 23.756 91.7121 23.612C91.7441 23.452 91.7601 23.308 91.7601 23.18V10.388C91.7601 10.276 91.7441 10.148 91.7121 10.004C91.6801 9.85999 91.6241 9.72399 91.5441 9.59599C91.4801 9.46799 91.4001 9.36399 91.3041 9.28399C91.2081 9.18799 91.0961 9.13999 90.9681 9.13999H90.8481V8.89999H94.2561V9.13999H94.0641C93.9521 9.15599 93.8481 9.21199 93.7521 9.30799C93.6721 9.40399 93.6001 9.51599 93.5361 9.64399C93.4721 9.75599 93.4241 9.88399 93.3921 10.028C93.3601 10.156 93.3441 10.276 93.3441 10.388V21.476L101.312 10.7V10.388C101.312 10.276 101.296 10.148 101.264 10.004C101.232 9.85999 101.176 9.72399 101.096 9.59599C101.032 9.46799 100.952 9.36399 100.856 9.28399C100.76 9.18799 100.648 9.13999 100.52 9.13999H100.4V8.89999H103.808V9.13999H103.688C103.56 9.13999 103.448 9.18799 103.352 9.28399C103.256 9.36399 103.176 9.46799 103.112 9.59599C103.048 9.72399 102.992 9.85999 102.944 10.004C102.912 10.148 102.896 10.276 102.896 10.388V23.18C102.896 23.308 102.912 23.444 102.944 23.588C102.992 23.732 103.048 23.876 103.112 24.02C103.176 24.148 103.256 24.26 103.352 24.356C103.448 24.452 103.56 24.5 103.688 24.5H103.808V24.74H100.4V24.5ZM112.419 8.89999H115.803V9.13999H115.611C115.499 9.15599 115.395 9.21199 115.299 9.30799C115.219 9.40399 115.147 9.51599 115.083 9.64399C115.019 9.77199 114.971 9.91599 114.939 10.076C114.907 10.22 114.891 10.348 114.891 10.46V10.58C115.995 10.612 116.995 10.796 117.891 11.132C118.803 11.452 119.587 11.892 120.243 12.452C120.899 13.012 121.403 13.668 121.755 14.42C122.123 15.156 122.307 15.956 122.307 16.82C122.307 17.764 122.099 18.62 121.683 19.388C121.283 20.156 120.739 20.812 120.051 21.356C119.363 21.9 118.571 22.332 117.675 22.652C116.795 22.956 115.867 23.116 114.891 23.132V23.252C114.891 23.364 114.907 23.492 114.939 23.636C114.971 23.78 115.019 23.916 115.083 24.044C115.163 24.172 115.251 24.284 115.347 24.38C115.443 24.46 115.555 24.5 115.683 24.5H115.803V24.74H112.419V24.5H112.539C112.651 24.5 112.755 24.46 112.851 24.38C112.963 24.284 113.051 24.172 113.115 24.044C113.179 23.916 113.227 23.78 113.259 23.636C113.307 23.492 113.331 23.364 113.331 23.252V23.132C112.211 23.1 111.195 22.924 110.283 22.604C109.371 22.268 108.587 21.82 107.931 21.26C107.291 20.684 106.787 20.02 106.419 19.268C106.067 18.516 105.891 17.7 105.891 16.82C105.891 15.892 106.083 15.052 106.467 14.3C106.867 13.532 107.403 12.884 108.075 12.356C108.747 11.812 109.531 11.388 110.427 11.084C111.339 10.78 112.307 10.612 113.331 10.58V10.46C113.331 10.348 113.307 10.22 113.259 10.076C113.227 9.91599 113.179 9.77199 113.115 9.64399C113.051 9.51599 112.971 9.40399 112.875 9.30799C112.779 9.21199 112.675 9.15599 112.563 9.13999H112.419V8.89999ZM107.451 16.58C107.451 17.284 107.611 17.98 107.931 18.668C108.267 19.34 108.707 19.948 109.251 20.492C109.795 21.02 110.419 21.452 111.123 21.788C111.827 22.124 112.563 22.308 113.331 22.34V11.372C112.371 11.388 111.523 11.556 110.787 11.876C110.051 12.196 109.435 12.604 108.939 13.1C108.443 13.58 108.067 14.132 107.811 14.756C107.571 15.364 107.451 15.972 107.451 16.58ZM120.723 17.06C120.723 16.356 120.571 15.668 120.267 14.996C119.963 14.324 119.547 13.724 119.019 13.196C118.491 12.668 117.875 12.244 117.171 11.924C116.467 11.588 115.707 11.404 114.891 11.372V22.34C115.787 22.308 116.595 22.14 117.315 21.836C118.035 21.516 118.643 21.116 119.139 20.636C119.651 20.14 120.043 19.588 120.315 18.98C120.587 18.356 120.723 17.716 120.723 17.06ZM130.907 24.5H131.027C131.411 24.5 131.603 24.324 131.603 23.972C131.603 23.844 131.579 23.708 131.531 23.564L129.371 17.732H125.171L123.083 23.468C123.035 23.596 123.011 23.716 123.011 23.828C123.011 24.036 123.067 24.204 123.179 24.332C123.291 24.444 123.411 24.5 123.539 24.5H123.659V24.74H120.995V24.5H121.115C121.323 24.5 121.523 24.38 121.715 24.14C121.923 23.884 122.091 23.588 122.219 23.252L127.715 8.61199L133.091 23.108C133.203 23.428 133.355 23.74 133.547 24.044C133.755 24.348 134.019 24.5 134.339 24.5H134.459V24.74H130.907V24.5ZM125.411 16.916H129.107L127.259 11.9L125.411 16.916ZM139.231 24.5H139.351V24.74H135.895V24.5H136.015C136.143 24.5 136.255 24.46 136.351 24.38C136.447 24.284 136.527 24.172 136.591 24.044C136.671 23.916 136.727 23.78 136.759 23.636C136.791 23.492 136.807 23.356 136.807 23.228V10.388C136.807 10.276 136.791 10.148 136.759 10.004C136.727 9.85999 136.671 9.72399 136.591 9.59599C136.527 9.46799 136.447 9.36399 136.351 9.28399C136.255 9.18799 136.143 9.13999 136.015 9.13999H135.895V8.89999H145.135V11.444H144.895C144.895 10.868 144.767 10.444 144.511 10.172C144.271 9.88399 143.887 9.73999 143.359 9.73999H138.439V23.228C138.439 23.356 138.455 23.492 138.487 23.636C138.519 23.78 138.567 23.916 138.631 24.044C138.711 24.172 138.799 24.284 138.895 24.38C138.991 24.46 139.103 24.5 139.231 24.5ZM153.147 8.65999C154.395 8.65999 155.515 8.88399 156.507 9.33199C157.499 9.76399 158.339 10.356 159.027 11.108C159.731 11.844 160.267 12.708 160.635 13.7C161.019 14.676 161.211 15.7 161.211 16.772C161.211 17.972 160.987 19.076 160.539 20.084C160.107 21.092 159.507 21.956 158.739 22.676C157.971 23.396 157.075 23.964 156.051 24.38C155.043 24.78 153.963 24.98 152.811 24.98C151.579 24.98 150.467 24.756 149.475 24.308C148.499 23.86 147.667 23.268 146.979 22.532C146.307 21.796 145.787 20.948 145.419 19.988C145.051 19.028 144.867 18.028 144.867 16.988C144.867 15.964 145.051 14.956 145.419 13.964C145.787 12.956 146.323 12.06 147.027 11.276C147.747 10.492 148.619 9.85999 149.643 9.37999C150.667 8.89999 151.835 8.65999 153.147 8.65999ZM153.123 24.14C154.195 24.092 155.131 23.852 155.931 23.42C156.747 22.972 157.427 22.412 157.971 21.74C158.515 21.052 158.915 20.3 159.171 19.484C159.443 18.668 159.579 17.86 159.579 17.06C159.579 16.18 159.419 15.292 159.099 14.396C158.779 13.5 158.323 12.692 157.731 11.972C157.139 11.236 156.427 10.644 155.595 10.196C154.779 9.73199 153.859 9.49999 152.835 9.49999C151.843 9.49999 150.955 9.72399 150.171 10.172C149.387 10.604 148.715 11.164 148.155 11.852C147.611 12.54 147.195 13.308 146.907 14.156C146.619 15.004 146.475 15.836 146.475 16.652C146.475 17.532 146.643 18.42 146.979 19.316C147.315 20.196 147.779 20.996 148.371 21.716C148.963 22.436 149.659 23.02 150.459 23.468C151.275 23.916 152.163 24.14 153.123 24.14ZM163.293 8.89999H166.701C168.477 8.89999 169.821 9.24399 170.733 9.93199C171.661 10.604 172.125 11.564 172.125 12.812C172.125 13.484 171.965 14.084 171.645 14.612C171.325 15.14 170.901 15.588 170.373 15.956C169.861 16.308 169.277 16.58 168.621 16.772C167.981 16.964 167.341 17.06 166.701 17.06H165.789V23.18C165.789 23.308 165.805 23.452 165.837 23.612C165.869 23.756 165.917 23.892 165.981 24.02C166.061 24.148 166.141 24.26 166.221 24.356C166.317 24.452 166.429 24.5 166.557 24.5H166.677V24.74H163.293V24.5H163.413C163.525 24.5 163.629 24.452 163.725 24.356C163.821 24.26 163.901 24.148 163.965 24.02C164.029 23.892 164.077 23.756 164.109 23.612C164.141 23.452 164.157 23.308 164.157 23.18V10.388C164.157 10.164 164.093 9.90799 163.965 9.61999C163.837 9.33199 163.653 9.17199 163.413 9.13999H163.293V8.89999ZM165.789 9.73999V16.22H166.509C167.149 16.22 167.717 16.132 168.213 15.956C168.725 15.78 169.149 15.548 169.485 15.26C169.821 14.972 170.077 14.644 170.253 14.276C170.429 13.908 170.517 13.532 170.517 13.148C170.517 12.684 170.437 12.252 170.277 11.852C170.133 11.436 169.885 11.076 169.533 10.772C169.197 10.452 168.749 10.204 168.189 10.028C167.629 9.83599 166.941 9.73999 166.125 9.73999H165.789Z" fill="#C4C4CE"/>
<path d="M76.82 30.77L198 31.0099" stroke="#8A8A9F" stroke-miterlimit="10"/>
<path d="M79.82 32.3C80.34 32.3 80.8067 32.3933 81.22 32.58C81.6333 32.76 81.9833 33.0067 82.27 33.32C82.5633 33.6267 82.7867 33.9867 82.94 34.4C83.1 34.8067 83.18 35.2333 83.18 35.68C83.18 36.18 83.0867 36.64 82.9 37.06C82.72 37.48 82.47 37.84 82.15 38.14C81.83 38.44 81.4567 38.6767 81.03 38.85C80.61 39.0167 80.16 39.1 79.68 39.1C79.1667 39.1 78.7033 39.0067 78.29 38.82C77.8833 38.6333 77.5367 38.3867 77.25 38.08C76.97 37.7733 76.7533 37.42 76.6 37.02C76.4467 36.62 76.37 36.2033 76.37 35.77C76.37 35.3433 76.4467 34.9233 76.6 34.51C76.7533 34.09 76.9767 33.7167 77.27 33.39C77.57 33.0633 77.9333 32.8 78.36 32.6C78.7867 32.4 79.2733 32.3 79.82 32.3ZM79.81 38.75C80.2567 38.73 80.6467 38.63 80.98 38.45C81.32 38.2633 81.6033 38.03 81.83 37.75C82.0567 37.4633 82.2233 37.15 82.33 36.81C82.4433 36.47 82.5 36.1333 82.5 35.8C82.5 35.4333 82.4333 35.0633 82.3 34.69C82.1667 34.3167 81.9767 33.98 81.73 33.68C81.4833 33.3733 81.1867 33.1267 80.84 32.94C80.5 32.7467 80.1167 32.65 79.69 32.65C79.2767 32.65 78.9067 32.7433 78.58 32.93C78.2533 33.11 77.9733 33.3433 77.74 33.63C77.5133 33.9167 77.34 34.2367 77.22 34.59C77.1 34.9433 77.04 35.29 77.04 35.63C77.04 35.9967 77.11 36.3667 77.25 36.74C77.39 37.1067 77.5833 37.44 77.83 37.74C78.0767 38.04 78.3667 38.2833 78.7 38.47C79.04 38.6567 79.41 38.75 79.81 38.75ZM86.2174 34.73C86.5508 34.73 86.8508 34.7867 87.1174 34.9C87.3908 35.0067 87.6208 35.1567 87.8074 35.35C88.0008 35.5367 88.1474 35.76 88.2474 36.02C88.3474 36.28 88.3974 36.5633 88.3974 36.87C88.3974 37.1967 88.3408 37.4967 88.2274 37.77C88.1141 38.0367 87.9574 38.2667 87.7574 38.46C87.5574 38.6533 87.3208 38.8033 87.0474 38.91C86.7741 39.0167 86.4774 39.07 86.1574 39.07C85.8174 39.07 85.5141 39.0067 85.2474 38.88C84.9808 38.7467 84.7541 38.5667 84.5674 38.34C84.3808 38.1133 84.2374 37.8467 84.1374 37.54C84.0374 37.2267 83.9874 36.89 83.9874 36.53C83.9874 36.3233 83.9974 36.1333 84.0174 35.96C84.0441 35.7867 84.0808 35.62 84.1274 35.46C84.1808 35.2933 84.2441 35.1333 84.3174 34.98C84.3908 34.8267 84.4774 34.6667 84.5774 34.5C84.8574 34.06 85.2074 33.7133 85.6274 33.46C86.0541 33.2067 86.4874 33.08 86.9274 33.08H88.1974L87.8074 33.72H86.7674C86.5541 33.72 86.3408 33.76 86.1274 33.84C85.9141 33.9133 85.7108 34.0267 85.5174 34.18C85.3308 34.3267 85.1641 34.5067 85.0174 34.72C84.8708 34.9333 84.7541 35.1767 84.6674 35.45C84.8474 35.23 85.0541 35.0567 85.2874 34.93C85.5274 34.7967 85.8374 34.73 86.2174 34.73ZM86.2774 38.73C86.5241 38.7167 86.7408 38.66 86.9274 38.56C87.1141 38.4533 87.2708 38.32 87.3974 38.16C87.5241 37.9933 87.6174 37.81 87.6774 37.61C87.7441 37.4033 87.7774 37.1933 87.7774 36.98C87.7774 36.7333 87.7374 36.4967 87.6574 36.27C87.5774 36.0367 87.4641 35.8333 87.3174 35.66C87.1708 35.4867 86.9941 35.3467 86.7874 35.24C86.5874 35.1333 86.3641 35.08 86.1174 35.08C85.8774 35.08 85.6641 35.1333 85.4774 35.24C85.2908 35.34 85.1341 35.4733 85.0074 35.64C84.8808 35.8067 84.7841 35.9967 84.7174 36.21C84.6574 36.4233 84.6274 36.6367 84.6274 36.85C84.6274 37.0633 84.6641 37.2833 84.7374 37.51C84.8174 37.73 84.9274 37.93 85.0674 38.11C85.2141 38.29 85.3874 38.44 85.5874 38.56C85.7941 38.6733 86.0241 38.73 86.2774 38.73ZM91.4218 34.73C91.7818 34.73 92.0918 34.7933 92.3518 34.92C92.6185 35.04 92.8385 35.2 93.0118 35.4C93.1918 35.6 93.3251 35.83 93.4118 36.09C93.4985 36.35 93.5418 36.6167 93.5418 36.89C93.5418 37.1567 93.4985 37.42 93.4118 37.68C93.3318 37.94 93.2051 38.1733 93.0318 38.38C92.8651 38.5867 92.6551 38.7533 92.4018 38.88C92.1485 39.0067 91.8485 39.07 91.5018 39.07C91.2951 39.07 91.0818 39.0167 90.8618 38.91C90.6485 38.7967 90.4551 38.6567 90.2818 38.49V40.55C90.2818 40.6033 90.2885 40.66 90.3018 40.72C90.3151 40.7867 90.3351 40.8467 90.3618 40.9C90.3951 40.9533 90.4285 41 90.4618 41.04C90.5018 41.08 90.5485 41.1 90.6018 41.1V41.2H89.3018V41.1C89.3485 41.1 89.3918 41.08 89.4318 41.04C89.4718 41 89.5051 40.9533 89.5318 40.9C89.5651 40.8467 89.5885 40.7867 89.6018 40.72C89.6151 40.66 89.6218 40.6033 89.6218 40.55V35.39C89.6218 35.33 89.6185 35.2733 89.6118 35.22C89.6118 35.16 89.6018 35.11 89.5818 35.07C89.5618 35.0233 89.5285 34.9867 89.4818 34.96C89.4418 34.9267 89.3818 34.9067 89.3018 34.9V34.8H90.2818V35.24C90.4151 35.08 90.5751 34.9567 90.7618 34.87C90.9551 34.7767 91.1751 34.73 91.4218 34.73ZM91.5118 38.73C91.7451 38.7233 91.9485 38.67 92.1218 38.57C92.2951 38.47 92.4385 38.34 92.5518 38.18C92.6651 38.02 92.7485 37.8433 92.8018 37.65C92.8551 37.45 92.8818 37.2433 92.8818 37.03C92.8818 36.79 92.8485 36.5533 92.7818 36.32C92.7151 36.0867 92.6185 35.88 92.4918 35.7C92.3651 35.5133 92.2085 35.3633 92.0218 35.25C91.8418 35.13 91.6351 35.07 91.4018 35.07C91.2618 35.07 91.1218 35.0967 90.9818 35.15C90.8485 35.2033 90.7285 35.28 90.6218 35.38C90.5218 35.48 90.4385 35.6 90.3718 35.74C90.3118 35.8733 90.2818 36.0233 90.2818 36.19V37.5C90.2818 37.68 90.3185 37.8467 90.3918 38C90.4651 38.1467 90.5585 38.2767 90.6718 38.39C90.7918 38.4967 90.9251 38.58 91.0718 38.64C91.2185 38.7 91.3651 38.73 91.5118 38.73ZM97.0783 39V38.49L97.0283 38.54C96.8616 38.7067 96.6683 38.8367 96.4483 38.93C96.2349 39.0233 95.9749 39.07 95.6683 39.07C95.4349 39.07 95.2349 39.0433 95.0683 38.99C94.9016 38.9367 94.7649 38.8633 94.6583 38.77C94.5516 38.67 94.4716 38.5567 94.4183 38.43C94.3716 38.3033 94.3483 38.17 94.3483 38.03C94.3483 37.8033 94.4083 37.6033 94.5283 37.43C94.6549 37.2567 94.8349 37.1033 95.0683 36.97C95.3016 36.8367 95.5849 36.7167 95.9183 36.61C96.2583 36.4967 96.6449 36.3867 97.0783 36.28C97.0649 36.02 97.0116 35.81 96.9183 35.65C96.8249 35.49 96.7149 35.3667 96.5883 35.28C96.4616 35.1867 96.3283 35.1267 96.1883 35.1C96.0483 35.0667 95.9283 35.05 95.8283 35.05C95.6549 35.05 95.5016 35.0767 95.3683 35.13C95.2349 35.1767 95.1183 35.2433 95.0183 35.33C94.9183 35.41 94.8349 35.5033 94.7683 35.61C94.7083 35.7167 94.6616 35.8233 94.6283 35.93H94.5383V35.15C94.5983 35.15 94.6683 35.13 94.7483 35.09C94.8283 35.0433 94.9216 34.9933 95.0283 34.94C95.1416 34.8867 95.2749 34.84 95.4283 34.8C95.5883 34.7533 95.7783 34.73 95.9983 34.73C96.3649 34.73 96.6616 34.7767 96.8883 34.87C97.1149 34.9633 97.2883 35.0867 97.4083 35.24C97.5349 35.3933 97.6183 35.57 97.6583 35.77C97.6983 35.9633 97.7183 36.1633 97.7183 36.37V38.35C97.7183 38.4833 97.7516 38.61 97.8183 38.73C97.8849 38.8433 97.9749 38.9 98.0883 38.9V39H97.0783ZM97.0783 38.05V36.62L96.9783 36.64C96.8183 36.68 96.6216 36.7333 96.3883 36.8C96.1616 36.8667 95.9449 36.9533 95.7383 37.06C95.5316 37.1667 95.3549 37.2933 95.2083 37.44C95.0616 37.5867 94.9883 37.7567 94.9883 37.95C94.9883 38.1633 95.0749 38.34 95.2483 38.48C95.4216 38.62 95.6483 38.69 95.9283 38.69C96.1483 38.69 96.3416 38.6433 96.5083 38.55C96.6749 38.45 96.8283 38.3233 96.9683 38.17L97.0783 38.05ZM101.739 35.78C101.739 35.94 101.669 36.1133 101.529 36.3C101.389 36.48 101.199 36.6233 100.959 36.73C101.332 36.81 101.599 36.95 101.759 37.15C101.925 37.3433 102.009 37.55 102.009 37.77C102.009 37.9767 101.959 38.16 101.859 38.32C101.759 38.48 101.622 38.6133 101.449 38.72C101.282 38.8267 101.089 38.9067 100.869 38.96C100.655 39.0133 100.432 39.04 100.199 39.04C99.9786 39.04 99.7819 39.02 99.6086 38.98C99.4353 38.9333 99.2853 38.8867 99.1586 38.84C99.0319 38.7867 98.9253 38.74 98.8386 38.7C98.7586 38.6533 98.6953 38.63 98.6486 38.63V37.82H98.7386C98.7519 37.96 98.7986 38.0867 98.8786 38.2C98.9586 38.3067 99.0586 38.4 99.1786 38.48C99.3053 38.5533 99.4453 38.61 99.5986 38.65C99.7586 38.69 99.9219 38.71 100.089 38.71C100.242 38.71 100.392 38.6933 100.539 38.66C100.692 38.6267 100.825 38.5767 100.939 38.51C101.059 38.4367 101.155 38.3467 101.229 38.24C101.302 38.1333 101.339 38.01 101.339 37.87C101.339 37.7233 101.299 37.5933 101.219 37.48C101.139 37.36 101.032 37.26 100.899 37.18C100.772 37.1 100.629 37.04 100.469 37C100.315 36.96 100.162 36.94 100.009 36.94H99.6886V36.62H100.039C100.179 36.62 100.312 36.5967 100.439 36.55C100.572 36.5033 100.685 36.4433 100.779 36.37C100.872 36.2967 100.945 36.2133 100.999 36.12C101.059 36.02 101.089 35.92 101.089 35.82C101.089 35.7 101.055 35.5933 100.989 35.5C100.929 35.4067 100.845 35.3267 100.739 35.26C100.632 35.1933 100.512 35.1433 100.379 35.11C100.252 35.07 100.119 35.05 99.9786 35.05C99.8519 35.05 99.7286 35.0667 99.6086 35.1C99.4886 35.1267 99.3786 35.1733 99.2786 35.24C99.1853 35.3067 99.1053 35.39 99.0386 35.49C98.9786 35.59 98.9386 35.71 98.9186 35.85H98.8286V35.07C98.8819 35.07 98.9319 35.0633 98.9786 35.05C99.0253 35.03 99.0786 35.0033 99.1386 34.97C99.2453 34.9167 99.3753 34.8667 99.5286 34.82C99.6819 34.7667 99.8753 34.74 100.109 34.74C100.629 34.74 101.029 34.8333 101.309 35.02C101.595 35.2067 101.739 35.46 101.739 35.78ZM104.917 39.07C104.584 39.07 104.284 39.0167 104.017 38.91C103.751 38.7967 103.521 38.6467 103.327 38.46C103.141 38.2667 102.994 38.04 102.887 37.78C102.787 37.52 102.737 37.2367 102.737 36.93C102.737 36.6033 102.794 36.3067 102.907 36.04C103.021 35.7667 103.177 35.5333 103.377 35.34C103.577 35.1467 103.814 34.9967 104.087 34.89C104.361 34.7833 104.657 34.73 104.977 34.73C105.297 34.73 105.591 34.7833 105.857 34.89C106.124 34.99 106.354 35.1333 106.547 35.32C106.741 35.5067 106.891 35.73 106.997 35.99C107.104 36.2433 107.157 36.5233 107.157 36.83C107.157 37.1167 107.107 37.3967 107.007 37.67C106.914 37.9367 106.771 38.1733 106.577 38.38C106.391 38.5867 106.157 38.7533 105.877 38.88C105.604 39.0067 105.284 39.07 104.917 39.07ZM104.857 35.06C104.617 35.0733 104.404 35.1333 104.217 35.24C104.037 35.34 103.884 35.4733 103.757 35.64C103.637 35.8 103.544 35.9833 103.477 36.19C103.417 36.3967 103.387 36.6067 103.387 36.82C103.387 37.0667 103.424 37.3067 103.497 37.54C103.577 37.7667 103.687 37.97 103.827 38.15C103.974 38.33 104.147 38.4733 104.347 38.58C104.547 38.6867 104.771 38.74 105.017 38.74C105.264 38.74 105.481 38.6867 105.667 38.58C105.861 38.4733 106.021 38.3367 106.147 38.17C106.274 37.9967 106.367 37.8033 106.427 37.59C106.494 37.3767 106.527 37.1633 106.527 36.95C106.527 36.73 106.494 36.51 106.427 36.29C106.361 36.0633 106.257 35.86 106.117 35.68C105.977 35.4933 105.801 35.3433 105.587 35.23C105.381 35.1167 105.137 35.06 104.857 35.06ZM111.442 35.8C111.442 35.9133 111.418 36.02 111.372 36.12C111.325 36.22 111.265 36.3133 111.192 36.4C111.125 36.48 111.045 36.5533 110.952 36.62C110.858 36.68 110.768 36.7267 110.682 36.76C110.795 36.78 110.912 36.8167 111.032 36.87C111.158 36.9233 111.272 36.9933 111.372 37.08C111.478 37.1667 111.565 37.2767 111.632 37.41C111.698 37.5367 111.732 37.69 111.732 37.87C111.732 37.9633 111.708 38.0767 111.662 38.21C111.622 38.3367 111.545 38.46 111.432 38.58C111.325 38.6933 111.175 38.7933 110.982 38.88C110.795 38.96 110.552 39 110.252 39H108.052V38.9C108.105 38.9 108.152 38.88 108.192 38.84C108.232 38.8 108.265 38.7533 108.292 38.7C108.325 38.6467 108.348 38.59 108.362 38.53C108.375 38.4633 108.382 38.4033 108.382 38.35V35.43C108.382 35.3233 108.352 35.21 108.292 35.09C108.238 34.9633 108.158 34.9 108.052 34.9V34.8H110.092C110.332 34.8 110.535 34.8333 110.702 34.9C110.875 34.96 111.015 35.04 111.122 35.14C111.235 35.2333 111.315 35.34 111.362 35.46C111.415 35.5733 111.442 35.6867 111.442 35.8ZM109.032 36.63H109.802C109.995 36.63 110.155 36.61 110.282 36.57C110.415 36.5233 110.522 36.4633 110.602 36.39C110.682 36.3167 110.738 36.2333 110.772 36.14C110.812 36.0467 110.832 35.95 110.832 35.85C110.832 35.77 110.808 35.6867 110.762 35.6C110.715 35.5133 110.645 35.4367 110.552 35.37C110.465 35.2967 110.358 35.2367 110.232 35.19C110.105 35.1433 109.962 35.12 109.802 35.12H109.032V36.63ZM110.012 38.68C110.092 38.68 110.192 38.6733 110.312 38.66C110.438 38.64 110.558 38.6033 110.672 38.55C110.792 38.49 110.892 38.4067 110.972 38.3C111.058 38.1867 111.102 38.04 111.102 37.86C111.102 37.6667 111.045 37.51 110.932 37.39C110.818 37.27 110.685 37.18 110.532 37.12C110.385 37.0533 110.232 37.01 110.072 36.99C109.912 36.97 109.788 36.96 109.702 36.96H109.032V38.68H110.012ZM115.242 39V38.49L115.192 38.54C115.026 38.7067 114.832 38.8367 114.612 38.93C114.399 39.0233 114.139 39.07 113.832 39.07C113.599 39.07 113.399 39.0433 113.232 38.99C113.066 38.9367 112.929 38.8633 112.822 38.77C112.716 38.67 112.636 38.5567 112.582 38.43C112.536 38.3033 112.512 38.17 112.512 38.03C112.512 37.8033 112.572 37.6033 112.692 37.43C112.819 37.2567 112.999 37.1033 113.232 36.97C113.466 36.8367 113.749 36.7167 114.082 36.61C114.422 36.4967 114.809 36.3867 115.242 36.28C115.229 36.02 115.176 35.81 115.082 35.65C114.989 35.49 114.879 35.3667 114.752 35.28C114.626 35.1867 114.492 35.1267 114.352 35.1C114.212 35.0667 114.092 35.05 113.992 35.05C113.819 35.05 113.666 35.0767 113.532 35.13C113.399 35.1767 113.282 35.2433 113.182 35.33C113.082 35.41 112.999 35.5033 112.932 35.61C112.872 35.7167 112.826 35.8233 112.792 35.93H112.702V35.15C112.762 35.15 112.832 35.13 112.912 35.09C112.992 35.0433 113.086 34.9933 113.192 34.94C113.306 34.8867 113.439 34.84 113.592 34.8C113.752 34.7533 113.942 34.73 114.162 34.73C114.529 34.73 114.826 34.7767 115.052 34.87C115.279 34.9633 115.452 35.0867 115.572 35.24C115.699 35.3933 115.782 35.57 115.822 35.77C115.862 35.9633 115.882 36.1633 115.882 36.37V38.35C115.882 38.4833 115.916 38.61 115.982 38.73C116.049 38.8433 116.139 38.9 116.252 38.9V39H115.242ZM115.242 38.05V36.62L115.142 36.64C114.982 36.68 114.786 36.7333 114.552 36.8C114.326 36.8667 114.109 36.9533 113.902 37.06C113.696 37.1667 113.519 37.2933 113.372 37.44C113.226 37.5867 113.152 37.7567 113.152 37.95C113.152 38.1633 113.239 38.34 113.412 38.48C113.586 38.62 113.812 38.69 114.092 38.69C114.312 38.69 114.506 38.6433 114.672 38.55C114.839 38.45 114.992 38.3233 115.132 38.17L115.242 38.05ZM120.553 35.85C120.553 35.7767 120.539 35.6967 120.513 35.61C120.486 35.5233 120.446 35.4467 120.393 35.38C120.339 35.3067 120.273 35.2467 120.193 35.2C120.113 35.1533 120.019 35.13 119.913 35.13H119.033V38.35C119.033 38.4033 119.039 38.46 119.053 38.52C119.066 38.58 119.086 38.64 119.113 38.7C119.146 38.7533 119.179 38.8 119.213 38.84C119.253 38.88 119.299 38.9 119.353 38.9V39H118.053V38.9C118.106 38.9 118.153 38.88 118.193 38.84C118.233 38.8 118.266 38.7533 118.293 38.7C118.326 38.6467 118.349 38.59 118.363 38.53C118.376 38.4633 118.383 38.4033 118.383 38.35V35.13H117.523C117.416 35.13 117.323 35.1533 117.243 35.2C117.163 35.2467 117.096 35.3067 117.043 35.38C116.996 35.4467 116.959 35.5233 116.933 35.61C116.906 35.6967 116.893 35.7767 116.893 35.85H116.793V34.8H120.643V35.85H120.553ZM121.639 36.98C121.665 37.2133 121.722 37.4367 121.809 37.65C121.895 37.8567 122.009 38.04 122.149 38.2C122.295 38.36 122.472 38.49 122.679 38.59C122.885 38.6833 123.125 38.73 123.399 38.73C123.545 38.73 123.699 38.71 123.859 38.67C124.025 38.6233 124.179 38.56 124.319 38.48C124.459 38.4 124.582 38.3033 124.689 38.19C124.802 38.07 124.879 37.9367 124.919 37.79H125.009V38.54C124.969 38.54 124.922 38.5533 124.869 38.58C124.822 38.6067 124.765 38.64 124.699 38.68C124.565 38.76 124.385 38.8467 124.159 38.94C123.932 39.0267 123.632 39.07 123.259 39.07C122.959 39.07 122.672 39.0267 122.399 38.94C122.132 38.8533 121.895 38.72 121.689 38.54C121.482 38.36 121.315 38.13 121.189 37.85C121.069 37.57 121.009 37.2367 121.009 36.85C121.009 36.6033 121.049 36.3533 121.129 36.1C121.215 35.8467 121.342 35.62 121.509 35.42C121.682 35.2133 121.902 35.0467 122.169 34.92C122.435 34.7933 122.755 34.73 123.129 34.73C123.462 34.73 123.752 34.7867 123.999 34.9C124.252 35.0133 124.459 35.17 124.619 35.37C124.785 35.57 124.909 35.8067 124.989 36.08C125.069 36.3533 125.109 36.6533 125.109 36.98H121.639ZM123.089 35.06C122.855 35.06 122.652 35.1067 122.479 35.2C122.312 35.2933 122.169 35.4133 122.049 35.56C121.929 35.7067 121.835 35.8733 121.769 36.06C121.702 36.2467 121.659 36.4333 121.639 36.62H124.489C124.482 36.4267 124.445 36.2367 124.379 36.05C124.319 35.8633 124.232 35.6967 124.119 35.55C124.005 35.4033 123.862 35.2867 123.689 35.2C123.515 35.1067 123.315 35.06 123.089 35.06ZM128.532 38.9C128.579 38.9 128.632 38.88 128.692 38.84C128.752 38.8 128.782 38.7433 128.782 38.67C128.782 38.6567 128.775 38.63 128.762 38.59C128.755 38.5433 128.739 38.4933 128.712 38.44L127.442 35.44L126.122 38.59C126.009 38.8633 125.785 39 125.452 39H125.232V38.9C125.325 38.9 125.425 38.8533 125.532 38.76C125.645 38.66 125.735 38.5433 125.802 38.41L127.162 35.23C127.195 35.1433 127.212 35.0733 127.212 35.02C127.212 34.94 127.159 34.9 127.052 34.9V34.8H127.862L129.402 38.4C129.449 38.5 129.515 38.61 129.602 38.73C129.695 38.8433 129.782 38.9 129.862 38.9V39H128.532V38.9ZM132.224 36.62C132.53 36.62 132.797 36.65 133.024 36.71C133.257 36.77 133.447 36.8533 133.594 36.96C133.747 37.0667 133.86 37.1933 133.934 37.34C134.007 37.48 134.044 37.6333 134.044 37.8C134.044 37.9667 134.007 38.1233 133.934 38.27C133.86 38.4167 133.744 38.5433 133.584 38.65C133.43 38.7567 133.237 38.8433 133.004 38.91C132.77 38.97 132.494 39 132.174 39H130.464V38.9C130.517 38.9 130.564 38.8833 130.604 38.85C130.644 38.81 130.677 38.7633 130.704 38.71C130.737 38.65 130.76 38.59 130.774 38.53C130.787 38.4633 130.794 38.4033 130.794 38.35V35.42C130.794 35.3733 130.787 35.32 130.774 35.26C130.76 35.2 130.737 35.1433 130.704 35.09C130.677 35.0367 130.644 34.9933 130.604 34.96C130.564 34.92 130.517 34.9 130.464 34.9V34.8H131.774V34.9C131.674 34.9 131.594 34.9633 131.534 35.09C131.474 35.21 131.444 35.32 131.444 35.42V36.62H132.224ZM132.154 38.67C132.594 38.67 132.91 38.6 133.104 38.46C133.304 38.3133 133.404 38.1333 133.404 37.92C133.404 37.8 133.377 37.6833 133.324 37.57C133.27 37.45 133.187 37.3467 133.074 37.26C132.967 37.1667 132.834 37.0933 132.674 37.04C132.514 36.98 132.33 36.95 132.124 36.95H131.444V38.67H132.154ZM135.897 38.35C135.897 38.4033 135.903 38.4633 135.917 38.53C135.93 38.59 135.95 38.6467 135.977 38.7C136.003 38.7533 136.033 38.8 136.067 38.84C136.107 38.88 136.15 38.9 136.197 38.9V39H134.937V38.9C134.983 38.9 135.023 38.8833 135.057 38.85C135.097 38.81 135.13 38.7633 135.157 38.71C135.183 38.65 135.203 38.59 135.217 38.53C135.23 38.4633 135.237 38.4033 135.237 38.35V35.42C135.237 35.3733 135.23 35.32 135.217 35.26C135.203 35.2 135.183 35.1433 135.157 35.09C135.13 35.0367 135.097 34.9933 135.057 34.96C135.023 34.92 134.983 34.9 134.937 34.9V34.8H136.197V34.9C136.143 34.9 136.097 34.92 136.057 34.96C136.023 34.9933 135.993 35.0367 135.967 35.09C135.947 35.1433 135.93 35.2 135.917 35.26C135.903 35.32 135.897 35.3733 135.897 35.42V36.63H138.177V35.42C138.177 35.3733 138.17 35.32 138.157 35.26C138.143 35.2 138.123 35.1433 138.097 35.09C138.077 35.0367 138.047 34.9933 138.007 34.96C137.973 34.92 137.93 34.9 137.877 34.9V34.8H139.137V34.9C139.083 34.9 139.037 34.92 138.997 34.96C138.963 34.9933 138.933 35.0367 138.907 35.09C138.88 35.1433 138.86 35.2 138.847 35.26C138.84 35.32 138.837 35.3733 138.837 35.42V38.35C138.837 38.4033 138.843 38.4633 138.857 38.53C138.87 38.59 138.89 38.6467 138.917 38.7C138.943 38.7533 138.973 38.8 139.007 38.84C139.047 38.88 139.09 38.9 139.137 38.9V39H137.877V38.9C137.923 38.9 137.963 38.8833 137.997 38.85C138.037 38.81 138.07 38.7633 138.097 38.71C138.123 38.65 138.143 38.59 138.157 38.53C138.17 38.4633 138.177 38.4033 138.177 38.35V36.96H135.897V38.35ZM142.742 39V38.49L142.692 38.54C142.526 38.7067 142.332 38.8367 142.112 38.93C141.899 39.0233 141.639 39.07 141.332 39.07C141.099 39.07 140.899 39.0433 140.732 38.99C140.566 38.9367 140.429 38.8633 140.322 38.77C140.216 38.67 140.136 38.5567 140.082 38.43C140.036 38.3033 140.012 38.17 140.012 38.03C140.012 37.8033 140.072 37.6033 140.192 37.43C140.319 37.2567 140.499 37.1033 140.732 36.97C140.966 36.8367 141.249 36.7167 141.582 36.61C141.922 36.4967 142.309 36.3867 142.742 36.28C142.729 36.02 142.676 35.81 142.582 35.65C142.489 35.49 142.379 35.3667 142.252 35.28C142.126 35.1867 141.992 35.1267 141.852 35.1C141.712 35.0667 141.592 35.05 141.492 35.05C141.319 35.05 141.166 35.0767 141.032 35.13C140.899 35.1767 140.782 35.2433 140.682 35.33C140.582 35.41 140.499 35.5033 140.432 35.61C140.372 35.7167 140.326 35.8233 140.292 35.93H140.202V35.15C140.262 35.15 140.332 35.13 140.412 35.09C140.492 35.0433 140.586 34.9933 140.692 34.94C140.806 34.8867 140.939 34.84 141.092 34.8C141.252 34.7533 141.442 34.73 141.662 34.73C142.029 34.73 142.326 34.7767 142.552 34.87C142.779 34.9633 142.952 35.0867 143.072 35.24C143.199 35.3933 143.282 35.57 143.322 35.77C143.362 35.9633 143.382 36.1633 143.382 36.37V38.35C143.382 38.4833 143.416 38.61 143.482 38.73C143.549 38.8433 143.639 38.9 143.752 38.9V39H142.742ZM142.742 38.05V36.62L142.642 36.64C142.482 36.68 142.286 36.7333 142.052 36.8C141.826 36.8667 141.609 36.9533 141.402 37.06C141.196 37.1667 141.019 37.2933 140.872 37.44C140.726 37.5867 140.652 37.7567 140.652 37.95C140.652 38.1633 140.739 38.34 140.912 38.48C141.086 38.62 141.312 38.69 141.592 38.69C141.812 38.69 142.006 38.6433 142.172 38.55C142.339 38.45 142.492 38.3233 142.632 38.17L142.742 38.05ZM147.863 38.35C147.863 38.4033 147.869 38.4633 147.883 38.53C147.896 38.59 147.916 38.65 147.943 38.71C147.976 38.7633 148.009 38.81 148.043 38.85C148.083 38.8833 148.129 38.9 148.183 38.9V39H146.883V38.9C146.929 38.9 146.973 38.88 147.013 38.84C147.053 38.8 147.086 38.7533 147.113 38.7C147.146 38.6467 147.169 38.59 147.183 38.53C147.196 38.4633 147.203 38.4033 147.203 38.35V36.95C147.129 36.9633 147.046 37.0033 146.953 37.07C146.859 37.13 146.763 37.21 146.663 37.31C146.563 37.4033 146.466 37.5067 146.373 37.62C146.279 37.7333 146.193 37.8467 146.113 37.96C146.046 38.0533 145.989 38.13 145.943 38.19C145.896 38.25 145.856 38.3067 145.823 38.36C145.756 38.4467 145.689 38.53 145.623 38.61C145.556 38.6833 145.479 38.75 145.393 38.81C145.313 38.87 145.216 38.9167 145.103 38.95C144.989 38.9833 144.856 39 144.703 39H144.333V38.9C144.413 38.9 144.493 38.8767 144.573 38.83C144.659 38.7833 144.743 38.7267 144.823 38.66C144.903 38.5867 144.976 38.51 145.043 38.43C145.116 38.3433 145.179 38.2633 145.233 38.19L145.543 37.76C145.656 37.6067 145.773 37.4567 145.893 37.31C146.013 37.1567 146.149 37.0367 146.303 36.95C146.063 36.9433 145.849 36.91 145.663 36.85C145.476 36.79 145.319 36.71 145.193 36.61C145.066 36.51 144.969 36.3967 144.903 36.27C144.843 36.1367 144.813 35.9967 144.813 35.85C144.813 35.71 144.843 35.5767 144.903 35.45C144.969 35.3233 145.073 35.2133 145.213 35.12C145.353 35.02 145.529 34.9433 145.743 34.89C145.963 34.83 146.226 34.8 146.533 34.8H148.183V34.9C148.129 34.9 148.083 34.92 148.043 34.96C148.009 34.9933 147.976 35.0367 147.943 35.09C147.916 35.1433 147.896 35.2 147.883 35.26C147.869 35.32 147.863 35.3733 147.863 35.42V38.35ZM145.463 35.79C145.463 35.89 145.493 35.99 145.553 36.09C145.619 36.19 145.706 36.28 145.813 36.36C145.926 36.44 146.053 36.5067 146.193 36.56C146.333 36.6067 146.483 36.63 146.643 36.63H147.203V35.12H146.553C146.153 35.12 145.869 35.1833 145.703 35.31C145.543 35.4367 145.463 35.5967 145.463 35.79ZM152.723 38.35C152.723 38.4033 152.73 38.4633 152.743 38.53C152.756 38.59 152.773 38.6467 152.793 38.7C152.82 38.7533 152.85 38.8 152.883 38.84C152.923 38.88 152.97 38.9 153.023 38.9V39H151.753V38.9C151.806 38.9 151.853 38.8833 151.893 38.85C151.933 38.81 151.963 38.7633 151.983 38.71C152.01 38.65 152.03 38.59 152.043 38.53C152.056 38.4633 152.063 38.4033 152.063 38.35V35.42C152.063 35.3733 152.056 35.32 152.043 35.26C152.03 35.1933 152.01 35.1367 151.983 35.09C151.956 35.0367 151.923 34.9933 151.883 34.96C151.843 34.92 151.8 34.9 151.753 34.9V34.8H155.903V34.9C155.796 34.9 155.716 34.9633 155.663 35.09C155.61 35.21 155.583 35.32 155.583 35.42V38.35C155.583 38.4033 155.59 38.4633 155.603 38.53C155.616 38.59 155.636 38.6467 155.663 38.7C155.69 38.7533 155.723 38.8 155.763 38.84C155.81 38.88 155.856 38.9 155.903 38.9V39H154.613V38.9C154.673 38.9 154.72 38.8833 154.753 38.85C154.793 38.81 154.826 38.7633 154.853 38.71C154.88 38.65 154.896 38.59 154.903 38.53C154.916 38.4633 154.923 38.4033 154.923 38.35V35.15H152.723V38.35ZM159.85 38.9C159.897 38.9 159.95 38.88 160.01 38.84C160.07 38.8 160.1 38.7433 160.1 38.67C160.1 38.6567 160.094 38.63 160.08 38.59C160.074 38.5433 160.057 38.4933 160.03 38.44L158.76 35.44L157.44 38.59C157.327 38.8633 157.104 39 156.77 39H156.55V38.9C156.644 38.9 156.744 38.8533 156.85 38.76C156.964 38.66 157.054 38.5433 157.12 38.41L158.48 35.23C158.514 35.1433 158.53 35.0733 158.53 35.02C158.53 34.94 158.477 34.9 158.37 34.9V34.8H159.18L160.72 38.4C160.767 38.5 160.834 38.61 160.92 38.73C161.014 38.8433 161.1 38.9 161.18 38.9V39H159.85V38.9ZM164.422 39V38.49L164.372 38.54C164.205 38.7067 164.012 38.8367 163.792 38.93C163.579 39.0233 163.319 39.07 163.012 39.07C162.779 39.07 162.579 39.0433 162.412 38.99C162.245 38.9367 162.109 38.8633 162.002 38.77C161.895 38.67 161.815 38.5567 161.762 38.43C161.715 38.3033 161.692 38.17 161.692 38.03C161.692 37.8033 161.752 37.6033 161.872 37.43C161.999 37.2567 162.179 37.1033 162.412 36.97C162.645 36.8367 162.929 36.7167 163.262 36.61C163.602 36.4967 163.989 36.3867 164.422 36.28C164.409 36.02 164.355 35.81 164.262 35.65C164.169 35.49 164.059 35.3667 163.932 35.28C163.805 35.1867 163.672 35.1267 163.532 35.1C163.392 35.0667 163.272 35.05 163.172 35.05C162.999 35.05 162.845 35.0767 162.712 35.13C162.579 35.1767 162.462 35.2433 162.362 35.33C162.262 35.41 162.179 35.5033 162.112 35.61C162.052 35.7167 162.005 35.8233 161.972 35.93H161.882V35.15C161.942 35.15 162.012 35.13 162.092 35.09C162.172 35.0433 162.265 34.9933 162.372 34.94C162.485 34.8867 162.619 34.84 162.772 34.8C162.932 34.7533 163.122 34.73 163.342 34.73C163.709 34.73 164.005 34.7767 164.232 34.87C164.459 34.9633 164.632 35.0867 164.752 35.24C164.879 35.3933 164.962 35.57 165.002 35.77C165.042 35.9633 165.062 36.1633 165.062 36.37V38.35C165.062 38.4833 165.095 38.61 165.162 38.73C165.229 38.8433 165.319 38.9 165.432 38.9V39H164.422ZM164.422 38.05V36.62L164.322 36.64C164.162 36.68 163.965 36.7333 163.732 36.8C163.505 36.8667 163.289 36.9533 163.082 37.06C162.875 37.1667 162.699 37.2933 162.552 37.44C162.405 37.5867 162.332 37.7567 162.332 37.95C162.332 38.1633 162.419 38.34 162.592 38.48C162.765 38.62 162.992 38.69 163.272 38.69C163.492 38.69 163.685 38.6433 163.852 38.55C164.019 38.45 164.172 38.3233 164.312 38.17L164.422 38.05ZM169.732 35.85C169.732 35.7767 169.719 35.6967 169.692 35.61C169.666 35.5233 169.626 35.4467 169.572 35.38C169.519 35.3067 169.452 35.2467 169.372 35.2C169.292 35.1533 169.199 35.13 169.092 35.13H168.212V38.35C168.212 38.4033 168.219 38.46 168.232 38.52C168.246 38.58 168.266 38.64 168.292 38.7C168.326 38.7533 168.359 38.8 168.392 38.84C168.432 38.88 168.479 38.9 168.532 38.9V39H167.232V38.9C167.286 38.9 167.332 38.88 167.372 38.84C167.412 38.8 167.446 38.7533 167.472 38.7C167.506 38.6467 167.529 38.59 167.542 38.53C167.556 38.4633 167.562 38.4033 167.562 38.35V35.13H166.702C166.596 35.13 166.502 35.1533 166.422 35.2C166.342 35.2467 166.276 35.3067 166.222 35.38C166.176 35.4467 166.139 35.5233 166.112 35.61C166.086 35.6967 166.072 35.7767 166.072 35.85H165.972V34.8H169.822V35.85H169.732ZM174.805 34.73C175.132 34.73 175.409 34.79 175.635 34.91C175.869 35.03 176.059 35.19 176.205 35.39C176.352 35.59 176.455 35.82 176.515 36.08C176.582 36.3333 176.615 36.5967 176.615 36.87C176.615 37.1367 176.575 37.4033 176.495 37.67C176.422 37.93 176.305 38.1633 176.145 38.37C175.992 38.5767 175.795 38.7467 175.555 38.88C175.315 39.0067 175.032 39.07 174.705 39.07C174.579 39.07 174.459 39.05 174.345 39.01C174.239 38.9767 174.139 38.9367 174.045 38.89C173.939 38.8367 173.839 38.7733 173.745 38.7V40.55C173.745 40.6033 173.752 40.66 173.765 40.72C173.779 40.7867 173.799 40.8467 173.825 40.9C173.859 40.9533 173.892 41 173.925 41.04C173.965 41.08 174.012 41.1 174.065 41.1V41.2H172.785V41.1C172.839 41.1 172.885 41.08 172.925 41.04C172.965 41.0067 172.999 40.96 173.025 40.9C173.052 40.8467 173.072 40.7867 173.085 40.72C173.099 40.66 173.105 40.6033 173.105 40.55V38.7C173.039 38.7667 172.929 38.8467 172.775 38.94C172.629 39.0267 172.422 39.07 172.155 39.07C171.829 39.07 171.545 39.0067 171.305 38.88C171.065 38.7467 170.865 38.5767 170.705 38.37C170.545 38.1567 170.425 37.9167 170.345 37.65C170.272 37.3833 170.235 37.11 170.235 36.83C170.235 36.5633 170.269 36.3067 170.335 36.06C170.402 35.8067 170.505 35.5833 170.645 35.39C170.792 35.19 170.979 35.03 171.205 34.91C171.439 34.79 171.719 34.73 172.045 34.73C172.365 34.73 172.602 34.7767 172.755 34.87C172.915 34.9567 173.032 35.0367 173.105 35.11V33.92C173.105 33.8733 173.099 33.8233 173.085 33.77C173.072 33.71 173.052 33.6533 173.025 33.6C172.999 33.5467 172.965 33.5033 172.925 33.47C172.885 33.43 172.839 33.41 172.785 33.41V33.31H174.065V33.41C174.019 33.41 173.975 33.43 173.935 33.47C173.895 33.5033 173.862 33.5467 173.835 33.6C173.809 33.6467 173.785 33.7 173.765 33.76C173.752 33.82 173.745 33.8733 173.745 33.92V35.1C173.819 35.0333 173.935 34.9567 174.095 34.87C174.255 34.7767 174.492 34.73 174.805 34.73ZM172.225 38.73C172.352 38.73 172.469 38.7 172.575 38.64C172.682 38.58 172.775 38.5033 172.855 38.41C172.935 38.3167 172.995 38.2167 173.035 38.11C173.082 37.9967 173.105 37.89 173.105 37.79V36.1C173.105 35.9533 173.075 35.82 173.015 35.7C172.962 35.5733 172.889 35.4633 172.795 35.37C172.709 35.2767 172.605 35.2033 172.485 35.15C172.372 35.0967 172.252 35.07 172.125 35.07C171.892 35.07 171.695 35.1167 171.535 35.21C171.375 35.2967 171.245 35.4167 171.145 35.57C171.045 35.7233 170.972 35.9 170.925 36.1C170.879 36.2933 170.855 36.4933 170.855 36.7C170.855 36.9467 170.885 37.1933 170.945 37.44C171.005 37.68 171.092 37.8967 171.205 38.09C171.325 38.2767 171.469 38.43 171.635 38.55C171.809 38.67 172.005 38.73 172.225 38.73ZM174.665 38.73C174.899 38.73 175.099 38.6833 175.265 38.59C175.432 38.4967 175.569 38.3733 175.675 38.22C175.789 38.06 175.872 37.8833 175.925 37.69C175.979 37.49 176.005 37.2833 176.005 37.07C176.005 36.8233 175.979 36.5833 175.925 36.35C175.872 36.11 175.792 35.8967 175.685 35.71C175.579 35.5233 175.442 35.3733 175.275 35.26C175.115 35.14 174.925 35.08 174.705 35.08C174.425 35.08 174.195 35.1767 174.015 35.37C173.835 35.5567 173.745 35.7967 173.745 36.09V37.78C173.745 37.8867 173.769 37.9967 173.815 38.11C173.869 38.2167 173.935 38.3167 174.015 38.41C174.102 38.5033 174.202 38.58 174.315 38.64C174.429 38.7 174.545 38.73 174.665 38.73ZM179.468 39.07C179.135 39.07 178.835 39.0167 178.568 38.91C178.301 38.7967 178.071 38.6467 177.878 38.46C177.691 38.2667 177.545 38.04 177.438 37.78C177.338 37.52 177.288 37.2367 177.288 36.93C177.288 36.6033 177.345 36.3067 177.458 36.04C177.571 35.7667 177.728 35.5333 177.928 35.34C178.128 35.1467 178.365 34.9967 178.638 34.89C178.911 34.7833 179.208 34.73 179.528 34.73C179.848 34.73 180.141 34.7833 180.408 34.89C180.675 34.99 180.905 35.1333 181.098 35.32C181.291 35.5067 181.441 35.73 181.548 35.99C181.655 36.2433 181.708 36.5233 181.708 36.83C181.708 37.1167 181.658 37.3967 181.558 37.67C181.465 37.9367 181.321 38.1733 181.128 38.38C180.941 38.5867 180.708 38.7533 180.428 38.88C180.155 39.0067 179.835 39.07 179.468 39.07ZM179.408 35.06C179.168 35.0733 178.955 35.1333 178.768 35.24C178.588 35.34 178.435 35.4733 178.308 35.64C178.188 35.8 178.095 35.9833 178.028 36.19C177.968 36.3967 177.938 36.6067 177.938 36.82C177.938 37.0667 177.975 37.3067 178.048 37.54C178.128 37.7667 178.238 37.97 178.378 38.15C178.525 38.33 178.698 38.4733 178.898 38.58C179.098 38.6867 179.321 38.74 179.568 38.74C179.815 38.74 180.031 38.6867 180.218 38.58C180.411 38.4733 180.571 38.3367 180.698 38.17C180.825 37.9967 180.918 37.8033 180.978 37.59C181.045 37.3767 181.078 37.1633 181.078 36.95C181.078 36.73 181.045 36.51 180.978 36.29C180.911 36.0633 180.808 35.86 180.668 35.68C180.528 35.4933 180.351 35.3433 180.138 35.23C179.931 35.1167 179.688 35.06 179.408 35.06ZM184.146 34.73C184.506 34.73 184.816 34.7933 185.076 34.92C185.343 35.04 185.563 35.2 185.736 35.4C185.916 35.6 186.05 35.83 186.136 36.09C186.223 36.35 186.266 36.6167 186.266 36.89C186.266 37.1567 186.223 37.42 186.136 37.68C186.056 37.94 185.93 38.1733 185.756 38.38C185.59 38.5867 185.38 38.7533 185.126 38.88C184.873 39.0067 184.573 39.07 184.226 39.07C184.02 39.07 183.806 39.0167 183.586 38.91C183.373 38.7967 183.18 38.6567 183.006 38.49V40.55C183.006 40.6033 183.013 40.66 183.026 40.72C183.04 40.7867 183.06 40.8467 183.086 40.9C183.12 40.9533 183.153 41 183.186 41.04C183.226 41.08 183.273 41.1 183.326 41.1V41.2H182.026V41.1C182.073 41.1 182.116 41.08 182.156 41.04C182.196 41 182.23 40.9533 182.256 40.9C182.29 40.8467 182.313 40.7867 182.326 40.72C182.34 40.66 182.346 40.6033 182.346 40.55V35.39C182.346 35.33 182.343 35.2733 182.336 35.22C182.336 35.16 182.326 35.11 182.306 35.07C182.286 35.0233 182.253 34.9867 182.206 34.96C182.166 34.9267 182.106 34.9067 182.026 34.9V34.8H183.006V35.24C183.14 35.08 183.3 34.9567 183.486 34.87C183.68 34.7767 183.9 34.73 184.146 34.73ZM184.236 38.73C184.47 38.7233 184.673 38.67 184.846 38.57C185.02 38.47 185.163 38.34 185.276 38.18C185.39 38.02 185.473 37.8433 185.526 37.65C185.58 37.45 185.606 37.2433 185.606 37.03C185.606 36.79 185.573 36.5533 185.506 36.32C185.44 36.0867 185.343 35.88 185.216 35.7C185.09 35.5133 184.933 35.3633 184.746 35.25C184.566 35.13 184.36 35.07 184.126 35.07C183.986 35.07 183.846 35.0967 183.706 35.15C183.573 35.2033 183.453 35.28 183.346 35.38C183.246 35.48 183.163 35.6 183.096 35.74C183.036 35.8733 183.006 36.0233 183.006 36.19V37.5C183.006 37.68 183.043 37.8467 183.116 38C183.19 38.1467 183.283 38.2767 183.396 38.39C183.516 38.4967 183.65 38.58 183.796 38.64C183.943 38.7 184.09 38.73 184.236 38.73ZM191.743 38.35C191.743 38.4033 191.75 38.4633 191.763 38.53C191.776 38.59 191.796 38.6467 191.823 38.7C191.856 38.7533 191.893 38.8 191.933 38.84C191.973 38.88 192.02 38.9 192.073 38.9V39H190.773V38.9C190.826 38.9 190.873 38.8833 190.913 38.85C190.953 38.81 190.986 38.7633 191.013 38.71C191.04 38.65 191.06 38.59 191.073 38.53C191.086 38.4633 191.093 38.4033 191.093 38.35V35.65L189.423 39.09L187.823 35.85V38.35C187.823 38.4033 187.83 38.4633 187.843 38.53C187.856 38.59 187.876 38.6467 187.903 38.7C187.93 38.7533 187.963 38.8 188.003 38.84C188.043 38.88 188.09 38.9 188.143 38.9V39H187.173V38.9C187.226 38.9 187.273 38.88 187.313 38.84C187.353 38.8 187.383 38.7533 187.403 38.7C187.43 38.6467 187.45 38.59 187.463 38.53C187.476 38.4633 187.483 38.4033 187.483 38.35V35.42C187.483 35.3 187.466 35.1833 187.433 35.07C187.406 34.9567 187.32 34.9 187.173 34.9V34.8H188.063L189.593 37.93L191.123 34.8H192.073V34.9C191.973 34.9 191.893 34.9633 191.833 35.09C191.773 35.21 191.743 35.32 191.743 35.42V38.35ZM195.692 39V38.49L195.642 38.54C195.475 38.7067 195.282 38.8367 195.062 38.93C194.848 39.0233 194.588 39.07 194.282 39.07C194.048 39.07 193.848 39.0433 193.682 38.99C193.515 38.9367 193.378 38.8633 193.272 38.77C193.165 38.67 193.085 38.5567 193.032 38.43C192.985 38.3033 192.962 38.17 192.962 38.03C192.962 37.8033 193.022 37.6033 193.142 37.43C193.268 37.2567 193.448 37.1033 193.682 36.97C193.915 36.8367 194.198 36.7167 194.532 36.61C194.872 36.4967 195.258 36.3867 195.692 36.28C195.678 36.02 195.625 35.81 195.532 35.65C195.438 35.49 195.328 35.3667 195.202 35.28C195.075 35.1867 194.942 35.1267 194.802 35.1C194.662 35.0667 194.542 35.05 194.442 35.05C194.268 35.05 194.115 35.0767 193.982 35.13C193.848 35.1767 193.732 35.2433 193.632 35.33C193.532 35.41 193.448 35.5033 193.382 35.61C193.322 35.7167 193.275 35.8233 193.242 35.93H193.152V35.15C193.212 35.15 193.282 35.13 193.362 35.09C193.442 35.0433 193.535 34.9933 193.642 34.94C193.755 34.8867 193.888 34.84 194.042 34.8C194.202 34.7533 194.392 34.73 194.612 34.73C194.978 34.73 195.275 34.7767 195.502 34.87C195.728 34.9633 195.902 35.0867 196.022 35.24C196.148 35.3933 196.232 35.57 196.272 35.77C196.312 35.9633 196.332 36.1633 196.332 36.37V38.35C196.332 38.4833 196.365 38.61 196.432 38.73C196.498 38.8433 196.588 38.9 196.702 38.9V39H195.692ZM195.692 38.05V36.62L195.592 36.64C195.432 36.68 195.235 36.7333 195.002 36.8C194.775 36.8667 194.558 36.9533 194.352 37.06C194.145 37.1667 193.968 37.2933 193.822 37.44C193.675 37.5867 193.602 37.7567 193.602 37.95C193.602 38.1633 193.688 38.34 193.862 38.48C194.035 38.62 194.262 38.69 194.542 38.69C194.762 38.69 194.955 38.6433 195.122 38.55C195.288 38.45 195.442 38.3233 195.582 38.17L195.692 38.05Z" fill="#C4C4CE"/>
</g>
</g>
<defs>
<clipPath id="clip0_1_108">
<rect width="198.02" height="81.83" fill="white"/>
</clipPath>
<clipPath id="clip1_1_108">
<rect width="198.03" height="81.83" fill="white"/>
</clipPath>
</defs>
</svg>
