<svg width="136" height="136" viewBox="0 0 136 136" fill="none" xmlns="http://www.w3.org/2000/svg">
<path d="M49.072 128.994L49.1851 128.88C49.3058 128.76 49.3737 128.617 49.3888 128.451C49.3888 128.27 49.3586 128.089 49.2983 127.908C49.2229 127.711 49.1324 127.53 49.0268 127.364C48.9061 127.183 48.7854 127.033 48.6647 126.912L36.6043 114.851C36.4987 114.746 36.3554 114.648 36.1744 114.557C36.0084 114.452 35.835 114.369 35.654 114.308C35.4729 114.248 35.2995 114.225 35.1335 114.241C34.9525 114.241 34.8092 114.293 34.7036 114.399L34.5905 114.512L34.3642 114.286L45.9494 102.701L46.1757 102.927L45.9947 103.108C45.8891 103.213 45.8438 103.349 45.8589 103.515C45.8589 103.666 45.8966 103.839 45.9721 104.036C46.0475 104.202 46.138 104.367 46.2436 104.533C46.3492 104.699 46.4472 104.828 46.5377 104.918L58.5982 116.978C58.7188 117.099 58.8546 117.22 59.0054 117.341C59.1714 117.446 59.3449 117.544 59.5259 117.635C59.7069 117.695 59.8804 117.733 60.0463 117.748C60.2273 117.748 60.3706 117.695 60.4762 117.589L60.6573 117.408L60.8835 117.635L57.7157 120.803L57.4894 120.576L57.6931 120.373C57.7987 120.267 57.8439 120.131 57.8288 119.965C57.8288 119.784 57.7911 119.611 57.7157 119.445C57.6553 119.264 57.5648 119.098 57.4442 118.947C57.3235 118.766 57.2028 118.615 57.0821 118.495L44.4108 105.823L37.5094 112.725L50.1808 125.396C50.3014 125.517 50.4523 125.637 50.6333 125.758C50.7992 125.864 50.9652 125.954 51.1311 126.029C51.3121 126.09 51.4931 126.12 51.6742 126.12C51.8552 126.12 52.006 126.06 52.1267 125.939L52.2398 125.826L52.4661 126.052L49.2983 129.22L49.072 128.994ZM70.6455 104.931C70.7662 105.052 70.917 105.173 71.098 105.293C71.2791 105.384 71.4601 105.459 71.6411 105.519C71.8221 105.58 72.0031 105.61 72.1842 105.61C72.3803 105.595 72.5236 105.542 72.6141 105.452L72.8403 105.678L69.944 108.574L69.7178 108.348C69.8234 108.242 69.8837 108.107 69.8988 107.941C69.8988 107.76 69.8686 107.579 69.8083 107.398C69.7328 107.201 69.6423 107.02 69.5367 106.854C69.4161 106.673 69.2954 106.523 69.1747 106.402L63.7441 100.971L63.631 111.629L63.7894 111.787C63.9101 111.908 64.0609 112.029 64.2419 112.149C64.4079 112.255 64.5813 112.338 64.7624 112.398C64.9434 112.459 65.1169 112.496 65.2828 112.511C65.4638 112.511 65.6071 112.459 65.7127 112.353L65.939 112.579L63.0653 115.453L62.839 115.227C62.9446 115.121 63.005 114.985 63.02 114.819C63.02 114.638 62.9899 114.457 62.9295 114.276C62.8541 114.08 62.7636 113.899 62.658 113.733C62.5373 113.552 62.4166 113.401 62.296 113.281L55.6661 106.651C55.5605 106.545 55.4248 106.44 55.2588 106.334C55.0929 106.228 54.9194 106.145 54.7384 106.085C54.5574 106.025 54.3839 106.002 54.218 106.017C54.037 106.017 53.8937 106.07 53.7881 106.176L53.5618 105.949L56.4355 103.076L56.6617 103.302C56.5411 103.423 56.4807 103.573 56.4807 103.755C56.4807 103.905 56.5109 104.071 56.5712 104.252C56.6467 104.418 56.7372 104.584 56.8428 104.75C56.9484 104.916 57.054 105.052 57.1595 105.157L62.5675 110.565L62.6806 99.9079L62.5449 99.7721C62.4393 99.6665 62.3035 99.5609 62.1376 99.4553C61.9716 99.3497 61.7982 99.2667 61.6171 99.2064C61.4361 99.1461 61.2627 99.1234 61.0967 99.1385C60.9157 99.1385 60.7724 99.1913 60.6668 99.2969L60.4405 99.0706L63.3368 96.1743L63.5631 96.4006C63.4424 96.5213 63.3745 96.6797 63.3595 96.8758C63.3444 97.0417 63.367 97.2152 63.4273 97.3962C63.5028 97.5621 63.5933 97.7281 63.6989 97.894C63.8045 98.06 63.9101 98.1957 64.0157 98.3013L70.6455 104.931ZM75.3361 83.8583C76.0752 83.1191 76.837 82.6289 77.6214 82.3875C78.421 82.1311 79.2129 82.0632 79.9973 82.1839C80.7817 82.3046 81.536 82.5912 82.2601 83.0437C82.9841 83.4661 83.6554 83.9865 84.2739 84.605C84.8773 85.2084 85.3902 85.9023 85.8126 86.6867C86.235 87.441 86.4989 88.2329 86.6045 89.0626C86.7252 89.8772 86.6649 90.7069 86.4235 91.5516C86.1671 92.3813 85.6693 93.1657 84.9301 93.9049C84.6435 94.1915 84.3267 94.4178 83.9798 94.5837C83.663 94.7496 83.3462 94.8854 83.0294 94.991C82.6674 95.1117 82.2978 95.1946 81.9207 95.2399L86.1067 99.426C86.2274 99.5466 86.3707 99.6598 86.5367 99.7654C86.7177 99.8861 86.8987 99.9766 87.0797 100.037C87.2758 100.082 87.4568 100.112 87.6228 100.127C87.8038 100.127 87.9546 100.067 88.0753 99.9464L88.3016 100.173L85.4053 103.069L85.179 102.843C85.2997 102.722 85.36 102.571 85.36 102.39C85.3751 102.224 85.3449 102.043 85.2695 101.847C85.2092 101.666 85.1187 101.485 84.998 101.304C84.8924 101.138 84.7793 100.995 84.6586 100.874L80.4725 96.688C80.4725 96.9897 80.4046 97.4197 80.2689 97.9778C80.1331 98.5058 79.7635 99.0715 79.1601 99.6749C78.421 100.414 77.6365 100.912 76.8069 101.168C75.9621 101.41 75.1249 101.478 74.2952 101.372C73.4505 101.251 72.6359 100.98 71.8515 100.557C71.0821 100.12 70.3807 99.5844 69.7471 98.9508C69.1437 98.3474 68.6384 97.6912 68.2311 96.9822C67.8087 96.2581 67.5372 95.519 67.4165 94.7647C67.2958 93.9803 67.3561 93.1959 67.5975 92.4115C67.8539 91.612 68.3518 90.8426 69.0909 90.1035C69.815 89.3794 70.4561 88.9495 71.0142 88.8137C71.5724 88.6478 72.0174 88.5648 72.3493 88.5648L69.6566 85.8721C69.551 85.7665 69.4228 85.6685 69.2719 85.578C69.106 85.4724 68.9325 85.3894 68.7515 85.3291C68.5705 85.2687 68.397 85.2461 68.2311 85.2612C68.0501 85.2612 67.8992 85.3215 67.7785 85.4422L67.5522 85.2159L70.4486 82.3196L70.6748 82.5459C70.5692 82.6515 70.5164 82.7948 70.5164 82.9758C70.5014 83.1418 70.524 83.3152 70.5843 83.4963C70.6296 83.6622 70.6975 83.8357 70.788 84.0167C70.8936 84.1826 70.9992 84.3184 71.1048 84.424L73.7748 87.094C73.7899 86.7772 73.8804 86.3398 74.0463 85.7816C74.1972 85.2084 74.6271 84.5673 75.3361 83.8583ZM78.5492 98.7471C78.8358 98.4605 79.0319 98.1287 79.1375 97.7515C79.2431 97.3744 79.2808 96.9897 79.2506 96.5975C79.2205 96.2053 79.1299 95.8433 78.9791 95.5114C78.8282 95.1494 78.6397 94.8552 78.4134 94.629L74.5894 90.8049C74.2575 90.473 73.8879 90.2392 73.4806 90.1035C73.0733 89.9375 72.6585 89.8546 72.2361 89.8546C71.8288 89.8395 71.4291 89.9074 71.0369 90.0582C70.6597 90.194 70.3279 90.4052 70.0413 90.6918C69.5133 91.2198 69.1739 91.7704 69.023 92.3436C68.8571 92.9017 68.8345 93.4674 68.9551 94.0406C69.0758 94.6139 69.3096 95.1796 69.6566 95.7377C69.9885 96.2808 70.3882 96.7861 70.8559 97.2537C71.414 97.8119 72.04 98.3021 72.7339 98.7245C73.4127 99.1318 74.0991 99.426 74.793 99.607C75.4869 99.7578 76.1582 99.7805 76.8069 99.6749C77.4706 99.5542 78.0514 99.2449 78.5492 98.7471ZM84.0703 93.2261C84.5982 92.6981 84.9452 92.1399 85.1111 91.5516C85.2771 90.9633 85.3072 90.375 85.2016 89.7867C85.096 89.1682 84.8849 88.5799 84.5681 88.0217C84.2362 87.4485 83.8289 86.9205 83.3462 86.4378C82.788 85.8797 82.1846 85.397 81.536 84.9897C80.8723 84.5673 80.2085 84.2656 79.5448 84.0846C78.881 83.9036 78.2324 83.8734 77.5988 83.9941C76.9653 84.0846 76.3996 84.3787 75.9018 84.8765C75.2682 85.5101 74.9665 86.2493 74.9967 87.094C75.0118 87.9237 75.3512 88.6704 76.0149 89.3341L79.8389 93.1582C80.0803 93.3995 80.382 93.5956 80.744 93.7465C81.1061 93.8672 81.4832 93.9426 81.8754 93.9728C82.2827 93.9878 82.6824 93.935 83.0747 93.8144C83.4669 93.6937 83.7987 93.4976 84.0703 93.2261ZM96.7703 81.7479L95.6163 80.5939L95.6163 80.8202C95.6163 81.5745 95.473 82.3061 95.1863 83.0151C94.9148 83.709 94.4321 84.4029 93.7382 85.0968C93.2102 85.6248 92.6973 86.017 92.1995 86.2734C91.7017 86.5299 91.2265 86.6732 90.774 86.7033C90.3064 86.7184 89.8689 86.643 89.4616 86.4771C89.0694 86.2961 88.7149 86.0471 88.3981 85.7304C87.8852 85.2175 87.5684 84.6292 87.4478 83.9654C87.3422 83.2866 87.4025 82.5324 87.6288 81.7027C87.8551 80.873 88.2246 79.9604 88.7375 78.9648C89.2504 77.939 89.8764 76.8152 90.6156 75.5933C89.9971 75.0351 89.4013 74.6806 88.828 74.5298C88.2548 74.3789 87.7268 74.3488 87.2441 74.4393C86.7463 74.5147 86.3088 74.6806 85.9317 74.9371C85.5395 75.1784 85.2303 75.4123 85.004 75.6385C84.6118 76.0307 84.3252 76.438 84.1442 76.8604C83.9481 77.2677 83.8349 77.6825 83.8047 78.1049C83.7595 78.5122 83.7821 78.912 83.8726 79.3042C83.9782 79.6813 84.114 80.0283 84.2799 80.345L84.0763 80.5487L82.3113 78.7837C82.4471 78.648 82.5602 78.4443 82.6507 78.1728C82.7262 77.8862 82.8242 77.5619 82.9449 77.1998C83.0807 76.8227 83.2768 76.4154 83.5332 75.9779C83.7897 75.5103 84.1668 75.0276 84.6646 74.5298C85.4943 73.7001 86.2711 73.1344 86.9952 72.8327C87.7193 72.531 88.3906 72.4179 89.0091 72.4933C89.6426 72.5537 90.2309 72.7649 90.774 73.1269C91.302 73.4738 91.7998 73.8811 92.2674 74.3488L96.7476 78.829C97.0493 79.1307 97.4114 79.3419 97.8337 79.4626C98.241 79.5682 98.5729 79.4927 98.8294 79.2363L99.0556 79.4626L96.7703 81.7479ZM94.6207 79.5983L91.3849 76.3626L91.2039 76.6341C90.9324 77.0867 90.6081 77.6524 90.2309 78.3312C89.8689 78.9949 89.5747 79.6813 89.3485 80.3903C89.1222 81.0993 89.0091 81.7857 89.0091 82.4494C89.0091 83.1131 89.2278 83.6637 89.6652 84.1012C90.148 84.5839 90.7438 84.7876 91.4528 84.7121C92.1618 84.6367 92.8331 84.2822 93.4667 83.6486C93.9645 83.1508 94.2963 82.6078 94.4623 82.0195C94.6131 81.4161 94.6734 80.7825 94.6433 80.1188L94.6207 79.5983ZM98.649 60.8621L101.002 63.2154L100.776 63.4417C100.61 63.2757 100.399 63.14 100.142 63.0344C99.886 62.8986 99.6145 62.8232 99.3279 62.8081C99.0262 62.7779 98.7245 62.8081 98.4228 62.8986C98.1362 62.974 97.8722 63.1324 97.6308 63.3738L94.6214 66.3832L101.953 73.7145C102.073 73.8352 102.217 73.9483 102.383 74.0539C102.564 74.1444 102.745 74.2198 102.926 74.2802C103.122 74.3254 103.31 74.3481 103.491 74.3481C103.657 74.333 103.801 74.2651 103.921 74.1444L104.148 74.3707L101.138 77.3801L100.912 77.1539C101.032 77.0332 101.1 76.8899 101.115 76.7239C101.115 76.5429 101.085 76.3619 101.025 76.1809C100.98 75.9848 100.904 75.8038 100.799 75.6378C100.693 75.4719 100.58 75.3286 100.459 75.2079L93.7841 68.5328C93.6785 68.4272 93.5428 68.3216 93.3769 68.216C93.2109 68.1104 93.0299 68.035 92.8338 67.9898C92.6528 67.9294 92.4793 67.9068 92.3134 67.9219C92.1323 67.9219 91.9815 67.9822 91.8608 68.1029L91.6345 67.8766L98.649 60.8621ZM114.003 64.8318C113.249 65.5861 112.449 66.1442 111.605 66.5063C110.745 66.8532 109.885 67.0342 109.025 67.0493C108.165 67.0342 107.321 66.8532 106.491 66.5063C105.676 66.1442 104.922 65.6162 104.228 64.9223C103.489 64.1832 102.946 63.3837 102.599 62.5238C102.237 61.6489 102.063 60.7664 102.079 59.8764C102.094 58.9864 102.29 58.1115 102.667 57.2516C103.044 56.3918 103.595 55.5998 104.319 54.8758C105.043 54.1517 105.827 53.6086 106.672 53.2466C107.502 52.8695 108.346 52.6734 109.206 52.6583C110.066 52.6432 110.911 52.8091 111.74 53.1561C112.555 53.4879 113.309 54.0008 114.003 54.6947C114.652 55.3434 115.172 56.0901 115.564 56.9349C115.957 57.7494 116.168 58.6093 116.198 59.5144C116.243 60.4044 116.092 61.3095 115.745 62.2297C115.414 63.1348 114.833 64.0022 114.003 64.8318ZM104.794 55.894C104.281 56.4672 103.934 57.0857 103.753 57.7494C103.572 58.383 103.527 59.0317 103.617 59.6954C103.708 60.329 103.911 60.955 104.228 61.5735C104.56 62.1769 104.967 62.7199 105.45 63.2026C106.008 63.7608 106.634 64.2209 107.328 64.5829C108.022 64.9148 108.731 65.126 109.455 65.2165C110.194 65.2919 110.911 65.224 111.605 65.0128C112.299 64.8017 112.925 64.417 113.483 63.8588C114.041 63.3007 114.41 62.6898 114.591 62.026C114.788 61.3472 114.84 60.6759 114.75 60.0122C114.644 59.3334 114.418 58.6847 114.071 58.0662C113.739 57.4327 113.332 56.8745 112.849 56.3918C112.351 55.894 111.778 55.4716 111.129 55.1247C110.466 54.7626 109.772 54.5363 109.048 54.4458C108.309 54.3402 107.569 54.4006 106.83 54.6269C106.106 54.838 105.427 55.2604 104.794 55.894ZM114.769 44.4254C115.584 43.6108 116.428 43.0527 117.303 42.751C118.178 42.4191 119.038 42.2834 119.883 42.3437C120.743 42.389 121.565 42.6077 122.349 42.9999C123.134 43.3921 123.835 43.8975 124.453 44.5159C125.057 45.1193 125.555 45.8132 125.947 46.5977C126.354 47.367 126.596 48.1816 126.671 49.0414C126.761 49.8862 126.663 50.7385 126.377 51.5983C126.09 52.4582 125.555 53.2803 124.77 54.0647C124.303 54.5323 123.699 54.8944 122.96 55.1508C122.221 55.3771 121.467 55.4978 120.697 55.5129L125.359 60.1741C125.479 60.2948 125.623 60.4079 125.789 60.5135C125.97 60.6342 126.151 60.7247 126.332 60.7851C126.528 60.8303 126.709 60.8605 126.875 60.8756C127.056 60.8756 127.206 60.8152 127.327 60.6945L127.553 60.9208L124.612 63.8624L124.386 63.6361C124.491 63.5305 124.544 63.3872 124.544 63.2062C124.544 63.0252 124.514 62.8441 124.453 62.6631C124.408 62.467 124.325 62.2785 124.205 62.0974C124.099 61.9315 123.986 61.7882 123.865 61.6675L112.189 49.9918C112.054 49.856 111.918 49.7353 111.782 49.6297C111.646 49.494 111.511 49.4035 111.375 49.3582C111.224 49.2979 111.066 49.2903 110.9 49.3356C110.734 49.3507 110.553 49.4412 110.357 49.6071L110.13 49.3808L112.348 47.1633L113.343 48.159C113.283 47.4952 113.366 46.8541 113.592 46.2356C113.819 45.587 114.211 44.9836 114.769 44.4254ZM124.024 53.2727C124.536 52.7297 124.876 52.1489 125.042 51.5304C125.208 50.912 125.238 50.2935 125.132 49.675C125.027 49.0565 124.816 48.4682 124.499 47.91C124.167 47.3368 123.76 46.8088 123.277 46.3261C122.734 45.7831 122.123 45.323 121.444 44.9459C120.765 44.5687 120.079 44.3198 119.385 44.1992C118.676 44.0634 117.982 44.0785 117.303 44.2444C116.624 44.3802 116.021 44.712 115.493 45.24C115.176 45.5568 114.92 45.9339 114.724 46.3714C114.543 46.7938 114.445 47.2388 114.43 47.7064C114.43 48.159 114.513 48.619 114.678 49.0867C114.844 49.5241 115.116 49.9314 115.493 50.3086L118.457 53.2727C118.865 53.68 119.325 53.9742 119.837 54.1552C120.335 54.3212 120.841 54.4041 121.354 54.4041C121.866 54.3739 122.357 54.2608 122.824 54.0647C123.292 53.8686 123.692 53.6046 124.024 53.2727Z" fill="#8E8EA3" fill-opacity="0.3"/>
<g clip-path="url(#clip0_276_111)">
<path d="M55.3934 35.0205C57.3242 36.7499 67.9052 46.5446 66.6848 59.4528C66.4878 61.5384 66.001 63.5831 65.2394 65.5231C62.0347 66.42 58.6961 66.6795 55.3989 66.288C44.5601 64.958 38.0217 56.8187 36.3569 54.6126C37.4811 53.4308 38.4881 52.1343 39.3628 50.7427C40.9598 48.1916 42.0965 45.3589 42.7171 42.3836L43.3479 41.5788C46.2115 40.9333 48.9479 39.7828 51.4386 38.1769C52.8544 37.2642 54.1793 36.2068 55.3934 35.0205Z" fill="#C4C4CE" fill-opacity="0.3"/>
<path d="M55.2536 37.2665C56.9512 38.7876 66.2569 47.4036 65.1818 58.7451C65.0035 60.576 64.5721 62.3706 63.901 64.0733C61.0852 64.8634 58.1513 65.0929 55.2536 64.7497C45.7312 63.5853 39.9799 56.4305 38.5208 54.4956C39.509 53.456 40.3939 52.3153 41.162 51.0909C42.565 48.8469 43.5631 46.3556 44.1076 43.7392L44.6643 43.0343C47.1821 42.4661 49.5882 41.4546 51.7787 40.0434C53.022 39.239 54.1859 38.3089 55.2536 37.2665Z" fill="#8E8EA3" fill-opacity="0.3"/>
<path d="M55.2974 50.2575L50.9092 54.8238L55.2974 59.39L59.6856 54.8238L55.2974 50.2575Z" fill="#F6F7FA" fill-opacity="0.8"/>
<path d="M55.8542 46.0651L55.3166 50.2261L51.4331 49.6839L51.4358 49.6582L51.4029 49.6525L51.935 45.52L55.8542 46.0651Z" fill="#F6F7FA" fill-opacity="0.8"/>
<path d="M51.4002 49.6782L51.4331 49.6839L50.8791 54.7924L45.9424 54.2102L46.5046 49.076L51.4029 49.6525L51.4002 49.6782Z" fill="#F6F7FA" fill-opacity="0.8"/>
<path d="M32.531 50.9681C31.6134 51.4359 30.8714 52.208 30.4219 53.1628C30.2482 53.4912 30.1382 53.8519 30.0983 54.2245C30.0409 54.7656 30.1312 55.3125 30.3588 55.8027L31.7822 57.3866C31.9998 56.7693 32.2969 56.1856 32.6654 55.6514C32.8969 55.3152 33.1566 55.001 33.4415 54.7125C32.9618 54.2007 32.6276 53.5605 32.4761 52.8631C32.3468 52.2362 32.3656 51.5859 32.531 50.9681Z" fill="#8E8EA3" fill-opacity="0.3"/>
<path d="M28.7571 55.1006C28.5845 55.6487 28.5137 56.2259 28.5487 56.8015C28.5957 57.5048 28.7974 58.1873 29.1384 58.7964L30.8635 60.5915L32.2814 61.3992C32.1785 60.6476 32.0357 59.9026 31.8535 59.1674C31.7329 58.7222 31.6287 58.3227 31.508 57.9346C31.0889 57.2983 30.6062 56.7099 30.0681 56.1794C29.6577 55.7862 29.2194 55.4256 28.7571 55.1006Z" fill="#8E8EA3" fill-opacity="0.3"/>
<path d="M32.978 61.6504C32.2926 60.3642 32.0534 58.8717 32.3006 57.4237C32.4863 56.9628 32.7378 56.5336 33.0466 56.1509C33.4351 55.6659 33.9077 55.2612 34.4398 54.9579C34.5919 55.4459 34.6885 55.9506 34.7278 56.4619C34.7703 57.0039 34.7492 57.5492 34.6647 58.0858C34.117 58.7161 33.6798 59.4416 33.373 60.2291C33.1962 60.688 33.0639 61.1641 32.978 61.6504Z" fill="#8E8EA3" fill-opacity="0.3"/>
<path d="M34.9472 65.623C34.2852 65.0622 33.797 64.3105 33.5438 63.4621C33.2906 62.6138 33.2836 61.7065 33.5238 60.8541C33.7723 60.0069 34.255 59.2546 34.9116 58.6908C35.4352 59.6263 35.7018 60.6935 35.6822 61.7759L34.9472 65.623Z" fill="#8E8EA3" fill-opacity="0.3"/>
<path d="M34.2122 65.623L32.5803 62.3781C32.1637 61.7991 31.6372 61.3153 31.0335 60.9569C30.5369 60.6587 29.9953 60.4503 29.4318 60.3404C29.4362 61.6433 29.8732 62.9046 30.6687 63.9107C31.1565 64.3909 31.7183 64.7826 32.3308 65.0693C32.9234 65.363 33.5595 65.5502 34.2122 65.623Z" fill="#8E8EA3" fill-opacity="0.3"/>
<path d="M31.22 65.095C31.737 65.1816 32.2468 65.3094 32.7449 65.4774C33.4203 65.7016 34.0718 65.9971 34.6894 66.3593C35.5341 67.1926 36.3789 68.026 37.2208 68.8622L33.6938 68.5368C32.864 67.9021 32.1747 67.0895 31.6725 66.1538C31.5003 65.8112 31.3491 65.4576 31.22 65.095Z" fill="#8E8EA3" fill-opacity="0.3"/>
<path d="M36.2993 62.2012C35.5274 63.4712 35.2153 64.9858 35.419 66.4735C36.1512 67.2355 36.8835 67.9975 37.5938 68.7766C37.4521 67.2752 37.5102 65.7607 37.7666 64.276C37.2839 63.5834 36.7948 62.8918 36.2993 62.2012Z" fill="#8E8EA3" fill-opacity="0.3"/>
<path d="M40.9727 71.1111C40.8393 70.6564 40.7348 70.1931 40.6601 69.7241C40.5338 68.9013 40.5043 68.0656 40.5723 67.2355L38.4084 64.9837C38.1675 65.6113 38.0258 66.2753 37.9888 66.9501C37.9561 67.5375 38.005 68.1267 38.1341 68.6995C38.8278 69.7802 39.8164 70.6201 40.9727 71.1111Z" fill="#8E8EA3" fill-opacity="0.3"/>
<path d="M40.5065 71.522C39.6069 70.8029 38.7073 70.078 37.8078 69.3588L33.8145 69.1133C34.562 70.236 35.4975 71.2094 36.5763 71.9872C37.243 72.0702 37.9168 72.0721 38.5839 71.9929C39.2393 71.9091 39.884 71.7512 40.5065 71.522Z" fill="#8E8EA3" fill-opacity="0.3"/>
<path d="M45.4953 72.9633C44.9525 72.4293 44.5203 71.7854 44.2255 71.0711C44.0527 70.6592 43.9284 70.227 43.8552 69.784C43.261 69.2279 42.6315 68.714 41.9711 68.2457C41.6346 68.0098 41.3055 67.7929 40.9837 67.5951C40.8554 68.7973 41.0421 70.0132 41.524 71.1139C41.7654 71.3936 42.0012 71.6733 42.2426 71.953C42.7304 72.4185 43.3256 72.7449 43.9704 72.9005C44.4691 73.031 44.9883 73.0523 45.4953 72.9633Z" fill="#8E8EA3" fill-opacity="0.3"/>
<path d="M41.5076 71.9416C41.9778 72.3749 42.517 72.7197 43.101 72.9604C43.6503 73.188 44.2326 73.3173 44.8234 73.3428C44.4806 73.5169 44.1158 73.6853 43.7181 73.848C42.8588 74.1972 41.9687 74.4582 41.0605 74.6271C40.3987 74.5059 39.7593 74.2777 39.1654 73.9507C38.5614 73.6158 38.0117 73.1844 37.5362 72.6722C38.2541 72.454 38.9841 72.2815 39.7221 72.1556C40.3133 72.052 40.9092 71.9805 41.5076 71.9416Z" fill="#8E8EA3" fill-opacity="0.3"/>
<path d="M49.5928 73.6539C49.1047 73.145 48.6459 72.6065 48.2187 72.0414C47.8567 71.562 47.5441 71.0939 47.2698 70.6544L44.2529 69.6042C44.3184 70.1271 44.4532 70.638 44.6533 71.1225C44.8678 71.6508 45.1562 72.1432 45.509 72.5837C46.0168 73.1522 46.6713 73.5564 47.3941 73.7477C48.1169 73.9391 48.8775 73.9095 49.5846 73.6625L49.5928 73.6539Z" fill="#8E8EA3" fill-opacity="0.3"/>
<path d="M48.9812 74.0906C47.8266 74.2458 46.6536 74.0516 45.6023 73.5312C44.9786 73.7076 44.3643 73.9181 43.762 74.1619C43.1178 74.4214 42.4887 74.7196 41.8778 75.0552C42.4064 75.502 43.0211 75.8252 43.6803 76.003C44.3395 76.1808 45.0277 76.2089 45.6983 76.0854C46.2771 75.8911 46.8358 75.6368 47.3658 75.3263C47.9452 74.9757 48.4867 74.5614 48.9812 74.0906Z" fill="#8E8EA3" fill-opacity="0.3"/>
<path d="M47.747 70.4718C47.9626 70.9204 48.2101 71.3516 48.4875 71.7618C48.9377 72.424 49.4657 73.0251 50.059 73.5512C50.6514 73.8104 51.2905 73.9336 51.9328 73.9124C52.575 73.8913 53.2054 73.7262 53.7808 73.4284C53.1574 73.0968 52.5769 72.6845 52.0529 72.2013C51.5525 71.7365 51.1069 71.2115 50.7255 70.6373L47.747 70.4718Z" fill="#8E8EA3" fill-opacity="0.3"/>
<path d="M49.804 74.1362C50.3373 74.2742 50.8867 74.3328 51.4358 74.3103C52.0142 74.2883 52.5862 74.1777 53.1335 73.9821C52.8353 74.415 52.5012 74.8199 52.1352 75.1922C51.8094 75.5244 51.4602 75.8306 51.0903 76.1083C49.7151 76.6082 48.2231 76.6422 46.8282 76.2053C47.3247 75.7915 47.8869 75.3663 48.5122 74.9439C48.9565 74.6414 49.3898 74.3731 49.804 74.1362Z" fill="#8E8EA3" fill-opacity="0.3"/>
<path d="M51.4742 70.7657C51.7956 71.3506 52.2265 71.8624 52.7414 72.2707C53.2563 72.6791 53.8448 72.9757 54.4719 73.1431C55.7807 73.334 57.109 72.978 58.1662 72.1527C57.5924 71.9853 57.0357 71.7597 56.5042 71.4792C55.8661 71.143 55.2663 70.7332 54.716 70.2578C53.9371 70.332 53.0979 70.4575 52.2394 70.6202C51.9789 70.663 51.7238 70.7115 51.4742 70.7657Z" fill="#8E8EA3" fill-opacity="0.3"/>
<path d="M54.4116 73.457C55.4938 73.6817 56.6176 73.4836 57.5683 72.9005C57.4531 73.1573 57.3187 73.4285 57.1679 73.7053C56.7697 74.4199 56.2879 75.0804 55.7335 75.6716C55.2319 76.0254 54.6737 76.2834 54.0852 76.4336C53.2163 76.6525 52.3082 76.6368 51.4468 76.388L54.4116 73.457Z" fill="#8E8EA3" fill-opacity="0.3"/>
<path d="M56.5179 75.9285C56.4538 75.8541 56.4052 75.7666 56.3753 75.6716C56.3396 75.5603 56.282 75.2493 56.943 74.3046C57.2124 73.927 57.5046 73.5676 57.8179 73.2287C58.0044 73.0346 58.158 72.8748 58.2649 72.7635C58.4642 72.5402 58.7141 72.3724 58.9917 72.2755C59.085 72.2469 59.0576 72.2641 59.4964 72.1727C59.9352 72.0814 60.0422 72.0443 60.2863 72.0129C60.4563 71.9891 60.6276 71.9767 60.7991 71.9758C61.3273 71.5517 61.8776 71.1582 62.4474 70.7971C63.4857 70.1394 64.5823 69.587 65.7221 69.1476C66.4701 68.85 67.2327 68.5938 68.0067 68.3799L67.7133 69.6099C66.8212 69.8334 65.9421 70.1097 65.0803 70.4376C64.212 70.7352 63.3771 71.1294 62.5901 71.6134C62.1587 71.8934 61.7471 72.2053 61.3586 72.5466L60.7991 73.5169C59.733 74.8673 58.2032 75.7323 56.5344 75.9285L56.5179 75.9285Z" fill="#8E8EA3" fill-opacity="0.3"/>
<path d="M62.0827 70.155C61.0766 69.3064 59.8053 68.8736 58.5118 68.9392C58.0073 68.9794 57.5106 69.0928 57.0363 69.276C56.4341 69.4716 55.8502 69.7238 55.292 70.0294C55.6575 70.5048 56.1072 70.903 56.6166 71.2024C57.0457 71.4493 57.5066 71.6309 57.9852 71.7418C58.8904 71.9863 59.8498 71.885 60.6894 71.4564C61.251 71.1506 61.73 70.7031 62.0827 70.155Z" fill="#8E8EA3" fill-opacity="0.3"/>
<path d="M66.885 75.9285L69.3369 75.2721C69.1358 74.3086 69.0147 73.329 68.9749 72.344C68.9026 70.5415 69.0997 68.7382 69.559 66.9986C69.8009 65.8658 70.1691 64.7662 70.6561 63.7223C70.7164 63.6024 71.0373 62.9774 71.4734 62.0841L71.8573 61.3079C72.4123 61.2264 72.928 60.9635 73.3301 60.5573C73.8253 60.102 74.2565 59.5765 74.6109 58.9962C74.9192 58.4941 75.167 57.9545 75.3487 57.3895C75.4353 57.2388 75.4886 57.07 75.5048 56.8952C75.5209 56.7205 75.4994 56.5442 75.4419 56.3792C75.3928 56.2647 75.3219 56.1618 75.2335 56.0767C75.0214 56.0817 74.8114 56.1212 74.6109 56.1937C74.2447 56.3269 73.921 56.5629 73.6757 56.8757L72.713 57.8775L72.0658 58.6594C71.9638 58.9473 71.8804 59.2419 71.8162 59.5413C71.7199 59.9433 71.6548 60.3528 71.6215 60.7656C71.0912 61.5011 70.6083 62.2724 70.1761 63.0745C69.5391 64.2456 69.011 65.4775 68.5991 66.7531L67.9985 69.0905C67.7818 69.9667 67.5789 70.897 67.3979 71.8902C67.1558 73.2255 66.9845 74.5736 66.885 75.9285Z" fill="#8E8EA3" fill-opacity="0.3"/>
<path d="M75.9411 66.933L75.2747 69.7041C73.3382 69.0489 71.274 68.9134 69.2738 69.3103L69.4411 67.9946C71.6096 67.6369 73.7763 67.283 75.9411 66.933Z" fill="#8E8EA3" fill-opacity="0.3"/>
<path d="M51.8417 30.8737C52.2913 29.9189 53.0332 29.1468 53.9508 28.6791C54.2664 28.4983 54.613 28.3838 54.9711 28.3423C55.4911 28.2827 56.0167 28.3766 56.4877 28.6134L58.0099 30.0946C57.4166 30.321 56.8557 30.6301 56.3424 31.0136C56.0192 31.2545 55.7173 31.5248 55.4401 31.8212C54.9482 31.322 54.333 30.9743 53.6628 30.8166C53.0604 30.6806 52.4352 30.7002 51.8417 30.8737Z" fill="#8E8EA3" fill-opacity="0.3"/>
<path d="M55.8158 26.9439C56.3425 26.7642 56.8972 26.6906 57.4504 26.727C58.1298 26.7693 58.7906 26.9744 59.3812 27.3263L61.1063 29.1214L61.8825 30.5969C61.1589 30.4834 60.442 30.3281 59.735 30.1317C59.3072 30.0061 58.9232 29.8977 58.5502 29.7721C57.9387 29.336 57.3733 28.8338 56.8635 28.2738C56.4802 27.8608 56.1298 27.416 55.8158 26.9439Z" fill="#8E8EA3" fill-opacity="0.3"/>
<path d="M62.1101 31.3361C60.8741 30.6228 59.4398 30.3739 58.0483 30.6311C57.6053 30.8244 57.1929 31.0861 56.8251 31.4074C56.359 31.8116 55.9701 32.3034 55.6787 32.8572C56.1476 33.0154 56.6327 33.116 57.124 33.1569C57.6473 33.1959 58.1733 33.1681 58.6901 33.0741C59.2958 32.5041 59.9929 32.0492 60.7498 31.7299C61.1896 31.5522 61.6453 31.4203 62.1101 31.3361Z" fill="#8E8EA3" fill-opacity="0.3"/>
<path d="M65.9278 33.3852C65.3889 32.6963 64.6665 32.1882 63.8512 31.9248C63.036 31.6613 62.1641 31.654 61.3449 31.904C60.5308 32.1626 59.8078 32.6648 59.266 33.3481C60.165 33.893 61.1906 34.1704 62.2308 34.15L65.9278 33.3852Z" fill="#8E8EA3" fill-opacity="0.3"/>
<path d="M65.9278 32.6203L62.8232 30.908C61.8022 30.1119 61.1062 28.9455 60.8732 27.6402C62.1253 27.6448 63.3373 28.0995 64.3042 28.9274C65.2283 29.9339 65.8001 31.2346 65.9278 32.6203Z" fill="#8E8EA3" fill-opacity="0.3"/>
<path d="M65.4177 29.5096C65.5009 30.0475 65.6238 30.578 65.7852 31.0963C66.0006 31.7991 66.2846 32.4771 66.6327 33.1198C67.4335 33.9988 68.2344 34.8778 69.038 35.7539L68.7253 32.0838C68.1153 31.2203 67.3344 30.503 66.4352 29.9805C66.106 29.8012 65.7661 29.6439 65.4177 29.5096Z" fill="#8E8EA3" fill-opacity="0.3"/>
<path d="M62.6367 34.795C63.8564 33.9951 65.3097 33.6724 66.7369 33.8846C67.4692 34.6466 68.2015 35.4086 68.9502 36.1478C67.5074 36.0002 66.052 36.0607 64.6251 36.3276C63.9632 35.8215 63.3004 35.3106 62.6367 34.795Z" fill="#8E8EA3" fill-opacity="0.3"/>
<path d="M71.1991 39.6581C70.7622 39.5192 70.3169 39.4105 69.8662 39.3327C69.0756 39.2013 68.2725 39.1706 67.4747 39.2414L65.3107 36.9897C65.9139 36.739 66.552 36.5915 67.2004 36.553C67.7649 36.519 68.3311 36.5699 68.8816 36.7043C69.9172 37.432 70.7196 38.4658 71.1854 39.6723L71.1991 39.6581Z" fill="#8E8EA3" fill-opacity="0.3"/>
<path d="M71.5941 39.1729C70.9029 38.2368 70.2063 37.3007 69.5152 36.3647L69.2793 32.2094C70.3582 32.9871 71.2937 33.9606 72.0411 35.0832C72.1208 35.777 72.1227 36.4781 72.0466 37.1723C71.9661 37.8543 71.8143 38.5251 71.5941 39.1729Z" fill="#8E8EA3" fill-opacity="0.3"/>
<path d="M72.9763 44.367C72.4632 43.8022 71.8444 43.3525 71.158 43.0457C70.7621 42.8659 70.3468 42.7365 69.9211 42.6604C69.3867 42.042 68.8928 41.387 68.4428 40.6998C68.2161 40.3497 68.0076 40.0072 67.8175 39.6724C68.9748 39.5346 70.1463 39.726 71.2074 40.226C71.4624 40.4914 71.7449 40.7226 72.0137 40.9737C72.4611 41.4814 72.7747 42.1007 72.9242 42.7717C73.0481 43.2939 73.0658 43.8373 72.9763 44.367Z" fill="#8E8EA3" fill-opacity="0.3"/>
<path d="M71.9972 40.2146C72.4137 40.7039 72.745 41.265 72.9764 41.8727C73.1951 42.4443 73.3193 43.0503 73.3439 43.665C73.5112 43.3082 73.673 42.9287 73.8293 42.5148C74.1616 41.6231 74.4096 40.6998 74.5698 39.758C74.4585 39.0703 74.2448 38.4049 73.9363 37.7859C73.617 37.1506 73.2032 36.5717 72.7103 36.0707C72.5006 36.8177 72.3349 37.5773 72.2139 38.3453C72.1103 38.964 72.0379 39.588 71.9972 40.2146Z" fill="#8E8EA3" fill-opacity="0.3"/>
<path d="M73.6565 48.6137C73.1674 48.1058 72.65 47.6284 72.1069 47.1839C71.6462 46.8071 71.1964 46.4818 70.774 46.1964L69.7647 43.0571C70.2672 43.1253 70.7583 43.2655 71.2238 43.4738C71.7315 43.697 72.2047 43.997 72.628 44.3642C73.1745 44.8942 73.5623 45.5772 73.7448 46.331C73.9272 47.0849 73.8966 47.8775 73.6565 48.6137Z" fill="#8E8EA3" fill-opacity="0.3"/>
<path d="M74.0624 47.9915C74.2102 46.7908 74.0226 45.5711 73.5221 44.4783C73.6916 43.8294 73.894 43.1901 74.1283 42.5634C74.3776 41.893 74.6642 41.2384 74.9867 40.6027C75.4161 41.1527 75.7267 41.7924 75.8975 42.4783C76.0684 43.1643 76.0954 43.8805 75.9768 44.5782C75.7908 45.1695 75.5492 45.7401 75.2555 46.282C74.9184 46.8951 74.5184 47.4683 74.0624 47.9915Z" fill="#8E8EA3" fill-opacity="0.3"/>
<path d="M70.5848 46.7072C71.0159 46.9316 71.4303 47.1892 71.8244 47.4778C72.4608 47.9463 73.0385 48.4956 73.5441 49.1131C73.7932 49.7295 73.9116 50.3945 73.8913 51.0629C73.8709 51.7312 73.7123 52.3871 73.4261 52.9859C73.1074 52.3372 72.7112 51.7331 72.2468 51.1879C71.8002 50.6671 71.2956 50.2035 70.7439 49.8066L70.5848 46.7072Z" fill="#8E8EA3" fill-opacity="0.3"/>
<path d="M74.1091 48.8448C74.2416 49.3998 74.2979 49.9715 74.2764 50.5429C74.2552 51.1447 74.1489 51.7399 73.961 52.3095C74.3769 51.9991 74.766 51.6515 75.1238 51.2707C75.4431 50.9317 75.7373 50.5682 76.0042 50.1833C76.4846 48.7523 76.5173 47.1998 76.0975 45.7483C75.6998 46.2649 75.2911 46.8499 74.8852 47.5006C74.5918 47.9658 74.3367 48.4139 74.1091 48.8448Z" fill="#8E8EA3" fill-opacity="0.3"/>
<path d="M70.8673 50.5857C71.4293 50.9201 71.9211 51.3685 72.3136 51.9043C72.706 52.4401 72.9911 53.0525 73.1519 53.705C73.3354 55.067 72.9932 56.4491 72.2002 57.5493C72.0392 56.9522 71.8225 56.3729 71.5529 55.8198C71.2298 55.1558 70.836 54.5316 70.3791 53.959C70.4531 53.1343 70.5656 52.2695 70.7192 51.3734C70.7685 51.1108 70.8152 50.8454 70.8673 50.5857Z" fill="#8E8EA3" fill-opacity="0.3"/>
<path d="M73.4536 53.6423C73.6695 54.7684 73.4791 55.9378 72.9187 56.9271C73.1656 56.8073 73.4261 56.6674 73.6922 56.5104C74.3789 56.0961 75.0136 55.5947 75.5818 55.0178C75.9218 54.4958 76.1697 53.9151 76.3141 53.3026C76.5244 52.3985 76.5093 51.4535 76.2702 50.5572L73.4536 53.6423Z" fill="#8E8EA3" fill-opacity="0.3"/>
<path d="M70.2804 61.6247C69.4649 60.5778 69.0489 59.2549 69.112 57.9089C69.1506 57.3839 69.2595 56.8671 69.4356 56.3735C69.6222 55.749 69.8627 55.1434 70.1542 54.5641C70.6125 54.9423 70.9969 55.4082 71.2869 55.9368C71.5241 56.3833 71.6987 56.8629 71.8053 57.3609C72.0402 58.3028 71.9429 59.3012 71.531 60.1749C71.2371 60.7593 70.8071 61.2577 70.2804 61.6247Z" fill="#8E8EA3" fill-opacity="0.3"/>
</g>
<defs>
<clipPath id="clip0_276_111">
<rect width="51.5427" height="44.0896" fill="white" transform="matrix(0.692908 -0.721026 0.692908 0.721026 24.155 59.3187)"/>
</clipPath>
</defs>
</svg>
