<svg width="170" height="170" viewBox="0 0 170 170" fill="none" xmlns="http://www.w3.org/2000/svg">
<path d="M48.2515 118.173L48.3647 118.06C48.4853 117.939 48.5532 117.796 48.5683 117.63C48.5683 117.449 48.5381 117.268 48.4778 117.087C48.4024 116.891 48.3119 116.71 48.2063 116.544C48.0856 116.363 47.9649 116.212 47.8442 116.091L35.7838 104.031C35.6782 103.925 35.5349 103.827 35.3539 103.737C35.188 103.631 35.0145 103.548 34.8335 103.488C34.6524 103.428 34.479 103.405 34.313 103.42C34.132 103.42 33.9887 103.473 33.8831 103.578L33.77 103.692L33.5437 103.465L45.1289 91.8801L45.3552 92.1064L45.1742 92.2874C45.0686 92.393 45.0233 92.5287 45.0384 92.6947C45.0384 92.8455 45.0761 93.019 45.1516 93.2151C45.227 93.381 45.3175 93.547 45.4231 93.7129C45.5287 93.8788 45.6267 94.0071 45.7173 94.0976L57.7777 106.158C57.8983 106.279 58.0341 106.399 58.185 106.52C58.3509 106.626 58.5244 106.724 58.7054 106.814C58.8864 106.875 59.0599 106.912 59.2258 106.927C59.4068 106.927 59.5501 106.875 59.6557 106.769L59.8368 106.588L60.063 106.814L56.8952 109.982L56.6689 109.756L56.8726 109.552C56.9782 109.446 57.0234 109.311 57.0083 109.145C57.0083 108.964 56.9706 108.79 56.8952 108.624C56.8349 108.443 56.7443 108.277 56.6237 108.127C56.503 107.946 56.3823 107.795 56.2616 107.674L43.5903 95.0027L36.6889 101.904L49.3603 114.575C49.4809 114.696 49.6318 114.817 49.8128 114.937C49.9787 115.043 50.1447 115.134 50.3106 115.209C50.4916 115.269 50.6727 115.299 50.8537 115.299C51.0347 115.299 51.1855 115.239 51.3062 115.118L51.4194 115.005L51.6456 115.232L48.4778 118.399L48.2515 118.173ZM69.825 94.1106C69.9457 94.2313 70.0965 94.352 70.2775 94.4727C70.4586 94.5632 70.6396 94.6386 70.8206 94.699C71.0016 94.7593 71.1826 94.7895 71.3637 94.7895C71.5598 94.7744 71.7031 94.7216 71.7936 94.6311L72.0199 94.8574L69.1235 97.7537L68.8973 97.5274C69.0029 97.4218 69.0632 97.286 69.0783 97.1201C69.0783 96.9391 69.0481 96.7581 68.9878 96.577C68.9124 96.3809 68.8219 96.1999 68.7163 96.034C68.5956 95.853 68.4749 95.7021 68.3542 95.5814L62.9236 90.1508L62.8105 100.808L62.9689 100.967C63.0896 101.087 63.2404 101.208 63.4214 101.329C63.5874 101.434 63.7609 101.517 63.9419 101.578C64.1229 101.638 64.2964 101.676 64.4623 101.691C64.6433 101.691 64.7866 101.638 64.8922 101.532L65.1185 101.759L62.2448 104.632L62.0185 104.406C62.1241 104.301 62.1845 104.165 62.1996 103.999C62.1996 103.818 62.1694 103.637 62.109 103.456C62.0336 103.26 61.9431 103.079 61.8375 102.913C61.7168 102.732 61.5962 102.581 61.4755 102.46L54.8456 95.8303C54.7401 95.7247 54.6043 95.6191 54.4384 95.5135C54.2724 95.408 54.0989 95.325 53.9179 95.2646C53.7369 95.2043 53.5634 95.1817 53.3975 95.1968C53.2165 95.1968 53.0732 95.2496 52.9676 95.3552L52.7413 95.1289L55.615 92.2552L55.8413 92.4815C55.7206 92.6022 55.6602 92.753 55.6602 92.934C55.6602 93.0849 55.6904 93.2508 55.7507 93.4318C55.8262 93.5978 55.9167 93.7637 56.0223 93.9296C56.1279 94.0956 56.2335 94.2313 56.3391 94.3369L61.747 99.7449L61.8601 89.0874L61.7244 88.9516C61.6188 88.846 61.483 88.7404 61.3171 88.6348C61.1512 88.5292 60.9777 88.4463 60.7967 88.3859C60.6156 88.3256 60.4422 88.3029 60.2762 88.318C60.0952 88.318 59.9519 88.3708 59.8463 88.4764L59.62 88.2501L62.5163 85.3538L62.7426 85.5801C62.6219 85.7008 62.5541 85.8592 62.539 86.0553C62.5239 86.2212 62.5465 86.3947 62.6069 86.5757C62.6823 86.7417 62.7728 86.9076 62.8784 87.0735C62.984 87.2395 63.0896 87.3752 63.1952 87.4808L69.825 94.1106ZM74.5156 73.0378C75.2548 72.2986 76.0165 71.8084 76.801 71.567C77.6005 71.3106 78.3924 71.2427 79.1768 71.3634C79.9613 71.4841 80.7155 71.7707 81.4396 72.2232C82.1637 72.6456 82.8349 73.166 83.4534 73.7845C84.0568 74.3879 84.5697 75.0818 84.9921 75.8662C85.4145 76.6205 85.6785 77.4124 85.784 78.2421C85.9047 79.0567 85.8444 79.8864 85.603 80.7311C85.3466 81.5608 84.8488 82.3452 84.1096 83.0844C83.823 83.371 83.5062 83.5973 83.1593 83.7632C82.8425 83.9291 82.5257 84.0649 82.2089 84.1705C81.8469 84.2912 81.4773 84.3741 81.1002 84.4194L85.2862 88.6055C85.4069 88.7261 85.5502 88.8393 85.7162 88.9449C85.8972 89.0656 86.0782 89.1561 86.2592 89.2164C86.4553 89.2617 86.6363 89.2918 86.8023 89.3069C86.9833 89.3069 87.1341 89.2466 87.2548 89.1259L87.4811 89.3522L84.5848 92.2485L84.3585 92.0222C84.4792 91.9015 84.5395 91.7507 84.5395 91.5697C84.5546 91.4037 84.5245 91.2227 84.449 91.0266C84.3887 90.8456 84.2982 90.6646 84.1775 90.4835C84.0719 90.3176 83.9588 90.1743 83.8381 90.0536L79.652 85.8675C79.652 86.1692 79.5841 86.5992 79.4484 87.1573C79.3126 87.6853 78.943 88.251 78.3396 88.8544C77.6005 89.5935 76.816 90.0913 75.9864 90.3478C75.1416 90.5891 74.3044 90.657 73.4747 90.5514C72.63 90.4307 71.8154 90.1592 71.031 89.7368C70.2616 89.2994 69.5602 88.7639 68.9266 88.1303C68.3232 87.5269 67.8179 86.8707 67.4106 86.1617C66.9882 85.4376 66.7167 84.6985 66.596 83.9442C66.4753 83.1598 66.5357 82.3754 66.777 81.591C67.0335 80.7915 67.5313 80.0221 68.2704 79.283C68.9945 78.5589 69.6356 78.129 70.1938 77.9932C70.7519 77.8273 71.1969 77.7443 71.5288 77.7443L68.8361 75.0516C68.7305 74.946 68.6023 74.848 68.4514 74.7575C68.2855 74.6519 68.112 74.5689 67.931 74.5086C67.75 74.4482 67.5765 74.4256 67.4106 74.4407C67.2296 74.4407 67.0787 74.501 66.958 74.6217L66.7318 74.3954L69.6281 71.4991L69.8543 71.7254C69.7487 71.831 69.696 71.9743 69.696 72.1553C69.6809 72.3213 69.7035 72.4947 69.7638 72.6758C69.8091 72.8417 69.877 73.0152 69.9675 73.1962C70.0731 73.3621 70.1787 73.4979 70.2843 73.6035L72.9543 76.2735C72.9694 75.9567 73.0599 75.5193 73.2258 74.9611C73.3767 74.3879 73.8066 73.7468 74.5156 73.0378ZM77.7287 87.9266C78.0153 87.64 78.2114 87.3082 78.317 86.931C78.4226 86.5539 78.4603 86.1692 78.4301 85.777C78.4 85.3848 78.3095 85.0228 78.1586 84.6909C78.0078 84.3289 77.8192 84.0347 77.5929 83.8085L73.7689 79.9844C73.437 79.6526 73.0674 79.4187 72.6601 79.283C72.2529 79.117 71.838 79.0341 71.4156 79.0341C71.0083 79.019 70.6086 79.0869 70.2164 79.2377C69.8393 79.3735 69.5074 79.5847 69.2208 79.8713C68.6928 80.3993 68.3534 80.9499 68.2025 81.5231C68.0366 82.0812 68.014 82.6469 68.1347 83.2201C68.2553 83.7934 68.4892 84.3591 68.8361 84.9172C69.168 85.4603 69.5677 85.9656 70.0354 86.4332C70.5935 86.9914 71.2195 87.4816 71.9134 87.904C72.5923 88.3113 73.2786 88.6055 73.9725 88.7865C74.6664 88.9373 75.3377 88.96 75.9864 88.8544C76.6501 88.7337 77.2309 88.4244 77.7287 87.9266ZM83.2498 82.4056C83.7777 81.8776 84.1247 81.3194 84.2906 80.7311C84.4566 80.1428 84.4867 79.5545 84.3811 78.9662C84.2756 78.3477 84.0644 77.7594 83.7476 77.2012C83.4157 76.628 83.0084 76.1 82.5257 75.6173C81.9676 75.0592 81.3642 74.5765 80.7155 74.1692C80.0518 73.7468 79.388 73.4451 78.7243 73.2641C78.0606 73.0831 77.4119 73.0529 76.7783 73.1736C76.1448 73.2641 75.5791 73.5582 75.0813 74.056C74.4477 74.6896 74.146 75.4288 74.1762 76.2735C74.1913 77.1032 74.5307 77.8499 75.1944 78.5136L79.0184 82.3377C79.2598 82.579 79.5615 82.7751 79.9235 82.926C80.2856 83.0467 80.6627 83.1221 81.0549 83.1523C81.4622 83.1673 81.862 83.1145 82.2542 82.9939C82.6464 82.8732 82.9782 82.6771 83.2498 82.4056ZM95.9498 70.9274L94.7958 69.7734L94.7958 69.9997C94.7958 70.754 94.6525 71.4856 94.3658 72.1946C94.0943 72.8885 93.6116 73.5824 92.9177 74.2763C92.3897 74.8043 91.8768 75.1965 91.379 75.4529C90.8812 75.7094 90.4061 75.8527 89.9535 75.8828C89.4859 75.8979 89.0484 75.8225 88.6411 75.6566C88.2489 75.4756 87.8944 75.2267 87.5776 74.9099C87.0647 74.397 86.748 73.8087 86.6273 73.1449C86.5217 72.4661 86.582 71.7119 86.8083 70.8822C87.0346 70.0525 87.4041 69.1399 87.917 68.1443C88.4299 67.1185 89.0559 65.9947 89.7951 64.7728C89.1766 64.2146 88.5808 63.8601 88.0075 63.7093C87.4343 63.5584 86.9063 63.5283 86.4236 63.6188C85.9258 63.6942 85.4884 63.8601 85.1112 64.1166C84.719 64.3579 84.4098 64.5918 84.1835 64.818C83.7913 65.2102 83.5047 65.6175 83.3237 66.0399C83.1276 66.4472 83.0144 66.8621 82.9843 67.2844C82.939 67.6917 82.9616 68.0915 83.0521 68.4837C83.1577 68.8608 83.2935 69.2078 83.4594 69.5245L83.2558 69.7282L81.4908 67.9633C81.6266 67.8275 81.7397 67.6238 81.8303 67.3523C81.9057 67.0657 82.0037 66.7414 82.1244 66.3793C82.2602 66.0022 82.4563 65.5949 82.7127 65.1575C82.9692 64.6898 83.3463 64.2071 83.8441 63.7093C84.6738 62.8796 85.4506 62.3139 86.1747 62.0122C86.8988 61.7105 87.5701 61.5974 88.1886 61.6728C88.8221 61.7332 89.4104 61.9444 89.9535 62.3064C90.4815 62.6534 90.9793 63.0606 91.4469 63.5283L95.9271 68.0085C96.2288 68.3102 96.5909 68.5214 97.0133 68.6421C97.4206 68.7477 97.7524 68.6722 98.0089 68.4158L98.2351 68.6421L95.9498 70.9274ZM93.8002 68.7778L90.5644 65.5421L90.3834 65.8136C90.1119 66.2662 89.7876 66.8319 89.4104 67.5107C89.0484 68.1744 88.7542 68.8608 88.528 69.5698C88.3017 70.2788 88.1886 70.9652 88.1886 71.6289C88.1886 72.2926 88.4073 72.8432 88.8448 73.2807C89.3275 73.7634 89.9233 73.9671 90.6323 73.8916C91.3413 73.8162 92.0126 73.4617 92.6462 72.8281C93.144 72.3303 93.4758 71.7873 93.6418 71.199C93.7926 70.5956 93.853 69.962 93.8228 69.2983L93.8002 68.7778ZM97.8286 50.0416L100.182 52.3949L99.9555 52.6212C99.7896 52.4552 99.5784 52.3195 99.322 52.2139C99.0655 52.0781 98.794 52.0027 98.5074 51.9876C98.2057 51.9574 97.904 51.9876 97.6023 52.0781C97.3157 52.1535 97.0517 52.3119 96.8103 52.5533L93.8009 55.5627L101.132 62.894C101.253 63.0147 101.396 63.1278 101.562 63.2334C101.743 63.3239 101.924 63.3993 102.105 63.4597C102.301 63.5049 102.49 63.5276 102.671 63.5276C102.837 63.5125 102.98 63.4446 103.101 63.3239L103.327 63.5502L100.318 66.5596L100.091 66.3334C100.212 66.2127 100.28 66.0694 100.295 65.9034C100.295 65.7224 100.265 65.5414 100.204 65.3604C100.159 65.1643 100.084 64.9833 99.9782 64.8173C99.8726 64.6514 99.7594 64.5081 99.6387 64.3874L92.9637 57.7123C92.8581 57.6067 92.7223 57.5011 92.5564 57.3955C92.3904 57.2899 92.2094 57.2145 92.0133 57.1693C91.8323 57.1089 91.6588 57.0863 91.4929 57.1014C91.3119 57.1014 91.161 57.1617 91.0403 57.2824L90.8141 57.0561L97.8286 50.0416ZM113.183 54.0113C112.428 54.7656 111.629 55.3237 110.784 55.6858C109.924 56.0327 109.064 56.2137 108.205 56.2288C107.345 56.2137 106.5 56.0327 105.67 55.6858C104.856 55.3237 104.102 54.7957 103.408 54.1018C102.668 53.3627 102.125 52.5632 101.778 51.7033C101.416 50.8284 101.243 49.9459 101.258 49.0559C101.273 48.1659 101.469 47.291 101.846 46.4311C102.223 45.5713 102.774 44.7793 103.498 44.0553C104.222 43.3312 105.007 42.7881 105.851 42.4261C106.681 42.049 107.526 41.8529 108.386 41.8378C109.245 41.8227 110.09 41.9886 110.92 42.3356C111.735 42.6674 112.489 43.1803 113.183 43.8742C113.831 44.5229 114.352 45.2696 114.744 46.1144C115.136 46.9289 115.347 47.7888 115.378 48.6939C115.423 49.5839 115.272 50.489 114.925 51.4092C114.593 52.3143 114.012 53.1817 113.183 54.0113ZM103.973 45.0735C103.46 45.6467 103.113 46.2652 102.932 46.9289C102.751 47.5625 102.706 48.2112 102.797 48.8749C102.887 49.5085 103.091 50.1345 103.408 50.753C103.739 51.3564 104.147 51.8994 104.63 52.3822C105.188 52.9403 105.814 53.4004 106.508 53.7624C107.201 54.0943 107.91 54.3055 108.635 54.396C109.374 54.4714 110.09 54.4035 110.784 54.1923C111.478 53.9812 112.104 53.5965 112.662 53.0383C113.22 52.4802 113.59 51.8693 113.771 51.2055C113.967 50.5267 114.02 49.8554 113.929 49.1917C113.824 48.5129 113.598 47.8642 113.251 47.2457C112.919 46.6122 112.511 46.054 112.029 45.5713C111.531 45.0735 110.958 44.6511 110.309 44.3042C109.645 43.9421 108.951 43.7159 108.227 43.6253C107.488 43.5197 106.749 43.5801 106.01 43.8064C105.286 44.0175 104.607 44.4399 103.973 45.0735ZM113.948 33.6049C114.763 32.7903 115.608 32.2322 116.483 31.9305C117.358 31.5986 118.218 31.4629 119.062 31.5232C119.922 31.5685 120.744 31.7872 121.529 32.1794C122.313 32.5716 123.015 33.077 123.633 33.6954C124.236 34.2988 124.734 34.9927 125.126 35.7772C125.534 36.5465 125.775 37.3611 125.85 38.2209C125.941 39.0657 125.843 39.918 125.556 40.7778C125.27 41.6377 124.734 42.4598 123.95 43.2442C123.482 43.7118 122.879 44.0739 122.14 44.3303C121.4 44.5566 120.646 44.6773 119.877 44.6924L124.538 49.3536C124.659 49.4743 124.802 49.5874 124.968 49.693C125.149 49.8137 125.33 49.9042 125.511 49.9646C125.707 50.0098 125.888 50.04 126.054 50.0551C126.235 50.0551 126.386 49.9947 126.507 49.874L126.733 50.1003L123.791 53.0419L123.565 52.8156C123.671 52.71 123.724 52.5667 123.724 52.3857C123.724 52.2047 123.693 52.0236 123.633 51.8426C123.588 51.6465 123.505 51.458 123.384 51.2769C123.279 51.111 123.165 50.9677 123.045 50.847L111.369 39.1713C111.233 39.0355 111.097 38.9148 110.962 38.8092C110.826 38.6735 110.69 38.583 110.554 38.5377C110.404 38.4774 110.245 38.4698 110.079 38.5151C109.913 38.5302 109.732 38.6207 109.536 38.7866L109.31 38.5603L111.527 36.3428L112.523 37.3385C112.463 36.6747 112.546 36.0336 112.772 35.4151C112.998 34.7665 113.39 34.1631 113.948 33.6049ZM123.203 42.4523C123.716 41.9092 124.055 41.3284 124.221 40.7099C124.387 40.0915 124.417 39.473 124.312 38.8545C124.206 38.236 123.995 37.6477 123.678 37.0896C123.346 36.5163 122.939 35.9884 122.456 35.5056C121.913 34.9626 121.302 34.5025 120.624 34.1254C119.945 33.7482 119.258 33.4993 118.564 33.3787C117.855 33.2429 117.162 33.258 116.483 33.4239C115.804 33.5597 115.201 33.8915 114.673 34.4195C114.356 34.7363 114.099 35.1134 113.903 35.5509C113.722 35.9733 113.624 36.4183 113.609 36.8859C113.609 37.3385 113.692 37.7985 113.858 38.2662C114.024 38.7036 114.295 39.1109 114.673 39.4881L117.637 42.4523C118.044 42.8595 118.504 43.1537 119.017 43.3347C119.515 43.5007 120.02 43.5836 120.533 43.5836C121.046 43.5535 121.536 43.4403 122.004 43.2442C122.471 43.0481 122.871 42.7841 123.203 42.4523Z" fill="#8E8EA3" fill-opacity="0.3"/>
<path d="M34.5578 154.977C35.1094 154.425 35.7034 154.029 36.3398 153.789C36.9691 153.541 37.6019 153.432 38.2383 153.46C38.8747 153.474 39.4935 153.619 40.0945 153.895C40.6955 154.156 41.2329 154.524 41.7067 154.998C42.237 155.528 42.6259 156.115 42.8734 156.759C43.128 157.395 43.2447 158.042 43.2234 158.7C43.2022 159.357 43.0573 160.004 42.7886 160.641C42.5199 161.263 42.131 161.828 41.6218 162.338C41.0774 162.882 40.4869 163.274 39.8505 163.515C39.2212 163.748 38.5919 163.854 37.9626 163.833C37.3403 163.805 36.7357 163.66 36.1488 163.398C35.5619 163.137 35.0387 162.776 34.5791 162.316C34.1265 161.864 33.7624 161.337 33.4866 160.736C33.2037 160.128 33.0446 159.495 33.0093 158.837C32.981 158.173 33.0871 157.508 33.3275 156.843C33.5679 156.179 33.978 155.556 34.5578 154.977ZM41.3885 161.828C41.841 161.333 42.1486 160.814 42.3113 160.269C42.4739 159.711 42.5269 159.163 42.4704 158.625C42.4067 158.081 42.2512 157.572 42.0037 157.098C41.7633 156.617 41.4663 156.2 41.1127 155.846C40.7238 155.457 40.2607 155.136 39.7233 154.881C39.1859 154.627 38.6272 154.471 38.0474 154.414C37.4605 154.351 36.8842 154.404 36.3185 154.574C35.7529 154.729 35.2437 155.033 34.7912 155.486C34.3528 155.924 34.0593 156.416 33.9108 156.96C33.7553 157.497 33.7058 158.042 33.7624 158.593C33.826 159.138 33.9816 159.661 34.229 160.163C34.4765 160.665 34.7806 161.097 35.1412 161.457C35.5301 161.846 35.9968 162.164 36.5413 162.412C37.0787 162.652 37.6373 162.801 38.2171 162.857C38.797 162.914 39.3626 162.864 39.9142 162.709C40.4728 162.546 40.9642 162.253 41.3885 161.828ZM43.9207 150.769C44.2743 150.415 44.6526 150.157 45.0556 149.994C45.4587 149.817 45.8618 149.733 46.2648 149.74C46.6679 149.733 47.0603 149.814 47.4421 149.984C47.824 150.153 48.1775 150.401 48.5028 150.726C48.8493 151.073 49.1074 151.451 49.2771 151.861C49.4397 152.264 49.5175 152.674 49.5104 153.091C49.5034 153.509 49.4114 153.919 49.2347 154.322C49.0579 154.725 48.7998 155.096 48.4604 155.435C48.0997 155.796 47.7108 156.051 47.2936 156.199C46.8694 156.341 46.438 156.39 45.9996 156.348C45.5612 156.305 45.1264 156.174 44.695 155.955C44.2566 155.729 43.8465 155.425 43.4647 155.043C43.2455 154.824 43.0545 154.612 42.8919 154.407C42.7363 154.194 42.5985 153.979 42.4782 153.76C42.358 153.526 42.2555 153.289 42.1707 153.049C42.0858 152.809 42.008 152.547 41.9373 152.264C41.7676 151.5 41.7711 150.761 41.9479 150.047C42.1318 149.326 42.457 148.732 42.9237 148.265L44.2708 146.918L44.5359 148.011L43.4328 149.114C43.2066 149.34 43.0227 149.609 42.8813 149.92C42.7328 150.224 42.6373 150.56 42.5949 150.928C42.5525 151.281 42.5666 151.649 42.6373 152.031C42.7081 152.413 42.8424 152.794 43.0404 153.176C42.998 152.752 43.0333 152.349 43.1465 151.967C43.2596 151.571 43.5177 151.172 43.9207 150.769ZM48.227 154.948C48.4745 154.672 48.6442 154.382 48.7361 154.078C48.821 153.767 48.8457 153.459 48.8104 153.155C48.768 152.844 48.6725 152.55 48.524 152.275C48.3755 151.985 48.1881 151.727 47.9619 151.5C47.7002 151.239 47.4068 151.03 47.0815 150.875C46.7492 150.712 46.4133 150.616 46.0739 150.588C45.7345 150.56 45.3986 150.599 45.0663 150.705C44.741 150.804 44.4475 150.984 44.1859 151.246C43.9313 151.5 43.7616 151.783 43.6768 152.094C43.5849 152.398 43.5601 152.706 43.6025 153.017C43.645 153.328 43.744 153.632 43.8995 153.929C44.0622 154.219 44.2566 154.477 44.4829 154.704C44.7092 154.93 44.9814 155.124 45.2996 155.287C45.6178 155.435 45.9466 155.531 46.286 155.573C46.6325 155.609 46.9754 155.584 47.3149 155.499C47.6543 155.4 47.9583 155.216 48.227 154.948ZM49.4408 145.248C49.8227 144.867 50.2186 144.605 50.6288 144.464C51.0389 144.308 51.4419 144.244 51.8379 144.273C52.241 144.294 52.6263 144.396 52.994 144.58C53.3617 144.764 53.6905 145.001 53.9804 145.291C54.2633 145.574 54.4966 145.899 54.6805 146.267C54.8714 146.627 54.9845 147.009 55.0199 147.412C55.0623 147.808 55.0164 148.208 54.882 148.611C54.7477 149.014 54.4966 149.399 54.1289 149.767C53.9097 149.986 53.6269 150.156 53.2804 150.276C52.9339 150.382 52.5804 150.439 52.2197 150.446L54.4047 152.631C54.4613 152.687 54.5285 152.74 54.6062 152.79C54.6911 152.846 54.7759 152.889 54.8608 152.917C54.9527 152.938 55.0376 152.952 55.1153 152.959C55.2002 152.959 55.2709 152.931 55.3275 152.875L55.4335 152.981L54.0547 154.36L53.9486 154.253C53.9981 154.204 54.0229 154.137 54.0229 154.052C54.0229 153.967 54.0087 153.882 53.9804 153.797C53.9592 153.705 53.9203 153.617 53.8638 153.532C53.8143 153.454 53.7612 153.387 53.7047 153.331L48.2317 147.858C48.168 147.794 48.1044 147.737 48.0407 147.688C47.9771 147.624 47.9135 147.582 47.8498 147.561C47.7791 147.532 47.7049 147.529 47.6271 147.55C47.5493 147.557 47.4645 147.6 47.3725 147.677L47.2665 147.571L48.3059 146.532L48.7726 146.999C48.7443 146.687 48.7832 146.387 48.8893 146.097C48.9953 145.793 49.1792 145.51 49.4408 145.248ZM53.7789 149.396C54.0193 149.141 54.1784 148.869 54.2562 148.579C54.334 148.289 54.3481 147.999 54.2986 147.709C54.2491 147.419 54.1501 147.143 54.0017 146.882C53.8461 146.613 53.6552 146.366 53.4289 146.139C53.1743 145.885 52.888 145.669 52.5698 145.492C52.2516 145.316 51.9298 145.199 51.6046 145.142C51.2722 145.079 50.947 145.086 50.6288 145.164C50.3106 145.227 50.0277 145.383 49.7802 145.63C49.6317 145.779 49.5115 145.956 49.4196 146.161C49.3348 146.359 49.2888 146.567 49.2817 146.786C49.2817 146.999 49.3206 147.214 49.3984 147.433C49.4762 147.638 49.6035 147.829 49.7802 148.006L51.1697 149.396C51.3606 149.587 51.5763 149.724 51.8167 149.809C52.05 149.887 52.2869 149.926 52.5273 149.926C52.7678 149.912 52.9976 149.859 53.2168 149.767C53.436 149.675 53.6234 149.551 53.7789 149.396ZM59.9694 143.778L59.4285 143.237L59.4285 143.343C59.4285 143.697 59.3613 144.039 59.227 144.372C59.0997 144.697 58.8734 145.022 58.5482 145.348C58.3007 145.595 58.0603 145.779 57.8269 145.899C57.5936 146.019 57.3708 146.087 57.1587 146.101C56.9395 146.108 56.7344 146.072 56.5435 145.995C56.3597 145.91 56.1935 145.793 56.045 145.645C55.8046 145.404 55.6561 145.128 55.5995 144.817C55.55 144.499 55.5783 144.146 55.6844 143.757C55.7904 143.368 55.9637 142.94 56.2041 142.473C56.4445 141.992 56.738 141.466 57.0844 140.893C56.7945 140.631 56.5152 140.465 56.2465 140.394C55.9778 140.324 55.7303 140.309 55.5041 140.352C55.2707 140.387 55.0657 140.465 54.8889 140.585C54.705 140.698 54.5601 140.808 54.454 140.914C54.2702 141.098 54.1358 141.289 54.051 141.487C53.959 141.678 53.906 141.872 53.8919 142.07C53.8706 142.261 53.8813 142.448 53.9237 142.632C53.9732 142.809 54.0368 142.972 54.1146 143.12L54.0191 143.216L53.1918 142.388C53.2555 142.325 53.3085 142.229 53.3509 142.102C53.3863 141.968 53.4322 141.816 53.4888 141.646C53.5524 141.469 53.6444 141.278 53.7646 141.073C53.8848 140.854 54.0616 140.628 54.2949 140.394C54.6838 140.005 55.048 139.74 55.3874 139.599C55.7268 139.457 56.0415 139.404 56.3314 139.44C56.6284 139.468 56.9041 139.567 57.1587 139.737C57.4062 139.899 57.6395 140.09 57.8587 140.309L59.9588 142.41C60.1003 142.551 60.27 142.65 60.468 142.707C60.6589 142.756 60.8144 142.721 60.9346 142.601L61.0407 142.707L59.9694 143.778ZM58.9618 142.77L57.4451 141.253L57.3602 141.381C57.2329 141.593 57.0809 141.858 56.9041 142.176C56.7344 142.487 56.5965 142.809 56.4905 143.141C56.3844 143.474 56.3314 143.796 56.3314 144.107C56.3314 144.418 56.4339 144.676 56.639 144.881C56.8652 145.107 57.1446 145.203 57.4769 145.167C57.8092 145.132 58.1239 144.966 58.4209 144.669C58.6542 144.435 58.8098 144.181 58.8876 143.905C58.9583 143.622 58.9866 143.325 58.9724 143.014L58.9618 142.77ZM61.4971 135.42C61.6668 135.589 61.7764 135.847 61.8259 136.194C61.8684 136.533 61.8189 136.887 61.6774 137.254C62.1583 136.943 62.5896 136.809 62.9714 136.851C63.3533 136.88 63.6609 137.011 63.8942 137.244C64.1134 137.463 64.2548 137.711 64.3185 137.986C64.3821 138.262 64.3786 138.548 64.3079 138.845C64.2442 139.135 64.124 139.425 63.9473 139.715C63.7775 139.998 63.5689 140.263 63.3215 140.511C63.0881 140.744 62.8583 140.931 62.632 141.073C62.3987 141.207 62.1901 141.317 62.0062 141.402C61.8153 141.479 61.6527 141.543 61.5183 141.593C61.384 141.628 61.2921 141.67 61.2426 141.72L60.3834 140.861L60.4789 140.765C60.6415 140.9 60.8254 140.984 61.0304 141.02C61.2284 141.048 61.4335 141.041 61.6456 140.999C61.8578 140.942 62.0663 140.854 62.2714 140.733C62.4835 140.606 62.678 140.454 62.8548 140.277C63.0174 140.115 63.1588 139.938 63.279 139.747C63.4063 139.549 63.4947 139.355 63.5442 139.164C63.5937 138.959 63.6008 138.761 63.5654 138.57C63.5301 138.379 63.4381 138.209 63.2896 138.061C63.1341 137.905 62.9538 137.81 62.7487 137.774C62.5366 137.732 62.3174 137.739 62.0911 137.795C61.8719 137.845 61.6562 137.933 61.4441 138.061C61.239 138.181 61.0552 138.322 60.8925 138.485L60.5531 138.824L60.2137 138.485L60.585 138.114C60.7335 137.965 60.8501 137.799 60.935 137.615C61.0269 137.424 61.0835 137.24 61.1047 137.064C61.1259 136.887 61.1153 136.721 61.0729 136.565C61.0304 136.395 60.9562 136.257 60.8501 136.151C60.7228 136.024 60.5744 135.946 60.4046 135.918C60.242 135.883 60.0688 135.886 59.8849 135.929C59.7011 135.971 59.5208 136.045 59.344 136.151C59.1672 136.243 59.0046 136.363 58.8561 136.512C58.7217 136.646 58.6086 136.795 58.5167 136.957C58.4177 137.113 58.3505 137.279 58.3151 137.456C58.2869 137.626 58.2904 137.799 58.3258 137.976C58.3682 138.145 58.453 138.315 58.5803 138.485L58.4849 138.58L57.6575 137.753C57.7141 137.696 57.7601 137.636 57.7954 137.573C57.8237 137.502 57.852 137.417 57.8803 137.318C57.9368 137.148 58.0217 136.957 58.1348 136.745C58.2409 136.526 58.4177 136.293 58.6652 136.045C59.2167 135.494 59.74 135.168 60.2349 135.069C60.737 134.963 61.1577 135.08 61.4971 135.42ZM68.3581 135.538C68.0046 135.891 67.6298 136.153 67.2338 136.323C66.8308 136.485 66.4277 136.57 66.0247 136.577C65.6216 136.57 65.2256 136.485 64.8367 136.323C64.4549 136.153 64.1013 135.905 63.7761 135.58C63.4296 135.234 63.175 134.859 63.0124 134.456C62.8427 134.046 62.7614 133.632 62.7684 133.215C62.7755 132.798 62.8674 132.388 63.0442 131.984C63.221 131.581 63.4791 131.21 63.8185 130.871C64.1579 130.531 64.5256 130.277 64.9216 130.107C65.3105 129.93 65.7065 129.838 66.1095 129.831C66.5126 129.824 66.9085 129.902 67.2974 130.065C67.6793 130.22 68.0328 130.461 68.3581 130.786C68.6622 131.09 68.9061 131.44 69.09 131.836C69.2738 132.218 69.3728 132.621 69.3869 133.045C69.4082 133.462 69.3374 133.887 69.1748 134.318C69.0193 134.742 68.747 135.149 68.3581 135.538ZM64.0412 131.348C63.8008 131.617 63.6382 131.907 63.5533 132.218C63.4685 132.515 63.4472 132.819 63.4897 133.13C63.5321 133.427 63.6276 133.72 63.7761 134.01C63.9316 134.293 64.1225 134.548 64.3488 134.774C64.6104 135.036 64.9039 135.251 65.2292 135.421C65.5544 135.577 65.8868 135.676 66.2262 135.718C66.5727 135.753 66.9085 135.722 67.2338 135.623C67.5591 135.524 67.8525 135.343 68.1142 135.082C68.3758 134.82 68.549 134.534 68.6339 134.222C68.7258 133.904 68.7506 133.59 68.7081 133.278C68.6586 132.96 68.5526 132.656 68.3899 132.366C68.2344 132.069 68.0434 131.808 67.8172 131.581C67.5838 131.348 67.3151 131.15 67.0111 130.987C66.6999 130.818 66.3747 130.712 66.0353 130.669C65.6888 130.62 65.3423 130.648 64.9958 130.754C64.6564 130.853 64.3382 131.051 64.0412 131.348ZM71.8099 125.149C71.9301 125.269 72.0185 125.407 72.0751 125.563C72.1316 125.718 72.167 125.881 72.1811 126.051C72.1953 126.206 72.1882 126.369 72.1599 126.539C72.1246 126.701 72.0786 126.846 72.022 126.974C72.1634 126.875 72.3261 126.79 72.5099 126.719C72.7008 126.641 72.8953 126.595 73.0933 126.581C73.2984 126.56 73.5069 126.585 73.7191 126.655C73.9241 126.719 74.1221 126.846 74.3131 127.037C74.412 127.136 74.5075 127.281 74.5994 127.472C74.6914 127.649 74.7409 127.861 74.7479 128.108C74.755 128.342 74.702 128.607 74.5888 128.904C74.4757 129.187 74.26 129.487 73.9418 129.805L71.6084 132.139L71.5023 132.033C71.5589 131.976 71.5872 131.906 71.5872 131.821C71.5872 131.736 71.573 131.651 71.5447 131.566C71.5235 131.474 71.4882 131.389 71.4387 131.312C71.3821 131.227 71.3255 131.156 71.269 131.099L68.1718 128.002C68.0587 127.889 67.9067 127.801 67.7157 127.737C67.5248 127.659 67.3728 127.677 67.2597 127.79L67.1536 127.684L69.3173 125.52C69.5719 125.266 69.8229 125.086 70.0704 124.979C70.3179 124.859 70.5512 124.796 70.7704 124.789C70.9896 124.767 71.1876 124.796 71.3644 124.873C71.5412 124.937 71.6897 125.029 71.8099 125.149ZM70.134 128.586L70.9508 127.769C71.1558 127.564 71.3043 127.373 71.3962 127.196C71.4882 127.005 71.5377 126.829 71.5447 126.666C71.5518 126.503 71.5235 126.355 71.4599 126.22C71.4033 126.079 71.322 125.955 71.2159 125.849C71.1311 125.764 71.0179 125.701 70.8765 125.658C70.7351 125.616 70.5795 125.609 70.4098 125.637C70.2401 125.651 70.0633 125.701 69.8795 125.786C69.6956 125.87 69.5189 125.998 69.3492 126.167L68.5325 126.984L70.134 128.586ZM73.3478 129.721C73.4327 129.636 73.5317 129.523 73.6448 129.381C73.758 129.226 73.8464 129.059 73.91 128.883C73.9736 128.692 73.9913 128.497 73.963 128.299C73.9347 128.087 73.8251 127.886 73.6342 127.695C73.4292 127.49 73.2029 127.384 72.9554 127.377C72.7079 127.369 72.471 127.415 72.2448 127.514C72.0185 127.599 71.8099 127.716 71.619 127.864C71.4281 128.013 71.2866 128.133 71.1947 128.225L70.4841 128.936L72.3084 130.76L73.3478 129.721ZM79.2353 124.512L78.6944 123.971L78.6944 124.077C78.6944 124.431 78.6272 124.774 78.4929 125.106C78.3656 125.431 78.1393 125.756 77.8141 126.082C77.5666 126.329 77.3262 126.513 77.0928 126.633C76.8595 126.753 76.6367 126.821 76.4246 126.835C76.2054 126.842 76.0003 126.807 75.8094 126.729C75.6256 126.644 75.4594 126.527 75.3109 126.379C75.0705 126.138 74.922 125.863 74.8654 125.551C74.8159 125.233 74.8442 124.88 74.9503 124.491C75.0563 124.102 75.2296 123.674 75.47 123.207C75.7104 122.727 76.0039 122.2 76.3503 121.627C76.0604 121.365 75.7811 121.199 75.5124 121.128C75.2437 121.058 74.9962 121.044 74.77 121.086C74.5366 121.121 74.3316 121.199 74.1548 121.319C73.9709 121.432 73.826 121.542 73.7199 121.648C73.5361 121.832 73.4017 122.023 73.3169 122.221C73.2249 122.412 73.1719 122.606 73.1578 122.804C73.1365 122.995 73.1472 123.183 73.1896 123.366C73.2391 123.543 73.3027 123.706 73.3805 123.854L73.285 123.95L72.4577 123.122C72.5214 123.059 72.5744 122.963 72.6168 122.836C72.6522 122.702 72.6981 122.55 72.7547 122.38C72.8183 122.203 72.9103 122.012 73.0305 121.807C73.1507 121.588 73.3275 121.362 73.5608 121.128C73.9497 120.74 74.3139 120.474 74.6533 120.333C74.9927 120.192 75.3074 120.138 75.5973 120.174C75.8943 120.202 76.17 120.301 76.4246 120.471C76.6721 120.633 76.9054 120.824 77.1246 121.044L79.2247 123.144C79.3662 123.285 79.5359 123.384 79.7339 123.441C79.9248 123.49 80.0803 123.455 80.2005 123.335L80.3066 123.441L79.2353 124.512ZM78.2277 123.504L76.711 121.988L76.6261 122.115C76.4988 122.327 76.3468 122.592 76.17 122.91C76.0003 123.221 75.8624 123.543 75.7564 123.876C75.6503 124.208 75.5973 124.53 75.5973 124.841C75.5973 125.152 75.6998 125.41 75.9049 125.615C76.1311 125.841 76.4105 125.937 76.7428 125.901C77.0751 125.866 77.3898 125.7 77.6868 125.403C77.9201 125.17 78.0757 124.915 78.1535 124.639C78.2242 124.356 78.2525 124.059 78.2383 123.748L78.2277 123.504ZM81.5267 115.538C81.4489 115.461 81.3499 115.39 81.2297 115.326C81.1095 115.263 80.9858 115.224 80.8585 115.21C80.7241 115.188 80.5898 115.195 80.4554 115.231C80.3211 115.266 80.1973 115.34 80.0842 115.454L79.1508 116.387L82.5661 119.802C82.6227 119.859 82.6899 119.912 82.7677 119.961C82.8455 120.011 82.9303 120.053 83.0222 120.089C83.1142 120.11 83.199 120.124 83.2768 120.131C83.3616 120.131 83.4324 120.103 83.4889 120.046L83.595 120.152L82.2161 121.531L82.1101 121.425C82.1666 121.369 82.1949 121.298 82.1949 121.213C82.1949 121.128 82.1808 121.043 82.1525 120.958C82.1313 120.866 82.0959 120.782 82.0464 120.704C81.9899 120.619 81.9333 120.548 81.8767 120.492L78.4614 117.076L77.5492 117.989C77.4361 118.102 77.3618 118.225 77.3265 118.36C77.2911 118.494 77.2841 118.628 77.3053 118.763C77.3265 118.883 77.3689 119.003 77.4326 119.123C77.4962 119.244 77.5669 119.343 77.6447 119.42L77.5386 119.527L76.4249 118.413L80.5085 114.329L81.6222 115.443L81.5267 115.538ZM83.8771 115.585C84.1529 115.804 84.4499 115.981 84.7681 116.115C85.0792 116.243 85.3939 116.317 85.7121 116.338C86.0374 116.352 86.3626 116.303 86.6879 116.19C87.0061 116.069 87.3101 115.864 87.6001 115.574C87.7556 115.419 87.897 115.235 88.0243 115.023C88.1516 114.797 88.2471 114.567 88.3107 114.334C88.3743 114.1 88.4026 113.867 88.3956 113.633C88.3885 113.386 88.3284 113.163 88.2152 112.965L88.3107 112.87L89.1062 113.665C89.0638 113.708 89.0284 113.771 89.0001 113.856C88.9789 113.934 88.9542 114.029 88.9259 114.143C88.8693 114.369 88.7703 114.652 88.6289 114.991C88.4804 115.323 88.2082 115.688 87.8122 116.084C87.494 116.402 87.144 116.66 86.7621 116.858C86.3874 117.049 85.9949 117.158 85.5848 117.187C85.1747 117.215 84.754 117.148 84.3226 116.985C83.8984 116.815 83.4812 116.526 83.071 116.115C82.8094 115.854 82.5867 115.546 82.4028 115.193C82.226 114.832 82.12 114.457 82.0846 114.068C82.0493 113.665 82.1058 113.255 82.2543 112.838C82.4028 112.421 82.6751 112.014 83.071 111.618C83.4246 111.265 83.7923 111.017 84.1741 110.876C84.563 110.727 84.9484 110.674 85.3302 110.717C85.7192 110.752 86.101 110.872 86.4758 111.077C86.8505 111.282 87.2111 111.558 87.5576 111.905L83.8771 115.585ZM83.3786 112.011C83.1311 112.258 82.965 112.523 82.8801 112.806C82.8023 113.082 82.7776 113.361 82.8059 113.644C82.8342 113.927 82.9119 114.203 83.0392 114.471C83.1665 114.74 83.3185 114.984 83.4953 115.203L86.5182 112.18C86.3061 111.982 86.0656 111.82 85.7969 111.692C85.5353 111.558 85.2666 111.473 84.9908 111.438C84.7151 111.403 84.4393 111.431 84.1635 111.523C83.8807 111.608 83.619 111.77 83.3786 112.011ZM93.2251 110.31C93.2746 110.261 93.31 110.183 93.3312 110.077C93.3524 109.971 93.3241 109.879 93.2463 109.801C93.2322 109.787 93.1968 109.766 93.1403 109.737C93.0837 109.695 93.013 109.659 92.9281 109.631L88.3991 107.796L90.3401 112.537C90.5098 112.948 90.4179 113.329 90.0644 113.683L89.831 113.916L89.7249 113.81C89.8239 113.711 89.8805 113.556 89.8946 113.344C89.9088 113.117 89.8805 112.898 89.8098 112.686L87.8794 107.871C87.8228 107.743 87.7663 107.651 87.7097 107.595C87.6248 107.51 87.5258 107.524 87.4127 107.637L87.3066 107.531L88.1658 106.672L93.6176 108.857C93.7731 108.913 93.9605 108.959 94.1797 108.995C94.3989 109.016 94.5509 108.984 94.6358 108.899L94.7419 109.005L93.3312 110.416L93.2251 110.31ZM94.7224 103.976C95.0477 103.651 95.3623 103.4 95.6664 103.223C95.9775 103.039 96.2674 102.926 96.5361 102.884C96.8119 102.834 97.0664 102.848 97.2998 102.926C97.5261 102.997 97.7276 103.121 97.9044 103.297C98.0811 103.474 98.2084 103.679 98.2862 103.913C98.364 104.146 98.3746 104.404 98.318 104.687C98.2685 104.963 98.1554 105.26 97.9786 105.578C97.7948 105.889 97.5331 106.214 97.1937 106.554L95.38 108.367L95.2739 108.261C95.3305 108.205 95.3623 108.137 95.3694 108.06C95.3694 107.975 95.3553 107.89 95.327 107.805C95.2987 107.706 95.2598 107.618 95.2103 107.54C95.1537 107.455 95.0972 107.384 95.0406 107.328L91.9329 104.22C91.8834 104.171 91.8197 104.121 91.7419 104.072C91.6642 104.022 91.5793 103.987 91.4874 103.966C91.4025 103.937 91.3212 103.927 91.2434 103.934C91.1586 103.934 91.0879 103.962 91.0313 104.019L90.9252 103.913L92.3147 102.523L92.4208 102.629C92.3147 102.735 92.297 102.887 92.3677 103.085C92.4314 103.276 92.5162 103.425 92.6223 103.531L93.8951 104.803L94.7224 103.976ZM96.8225 106.225C97.2892 105.758 97.5508 105.348 97.6074 104.994C97.664 104.627 97.5791 104.33 97.3528 104.103C97.2255 103.976 97.0735 103.881 96.8967 103.817C96.7129 103.746 96.5149 103.725 96.3028 103.753C96.0906 103.768 95.8714 103.831 95.6452 103.944C95.4118 104.05 95.1855 104.213 94.9663 104.432L94.2451 105.153L96.0694 106.978L96.8225 106.225ZM100.453 101.915C100.51 101.972 100.581 102.028 100.665 102.085C100.743 102.134 100.825 102.173 100.909 102.202C100.994 102.23 101.076 102.247 101.153 102.255C101.238 102.255 101.305 102.23 101.355 102.18L101.461 102.286L100.124 103.623L100.018 103.517C100.068 103.467 100.093 103.407 100.093 103.336C100.093 103.252 100.079 103.167 100.05 103.082C100.015 102.99 99.9724 102.905 99.9229 102.827C99.8664 102.742 99.8098 102.672 99.7532 102.615L96.6455 99.5075C96.596 99.458 96.5324 99.4085 96.4546 99.359C96.3768 99.3095 96.2955 99.2706 96.2106 99.2423C96.1258 99.214 96.0445 99.2034 95.9667 99.2105C95.8889 99.2034 95.8253 99.2246 95.7758 99.2741L95.6697 99.168L97.0061 97.8316L97.1122 97.9377C97.0556 97.9943 97.0273 98.065 97.0273 98.1498C97.0273 98.2205 97.0415 98.2983 97.0698 98.3832C97.1051 98.4609 97.1475 98.5387 97.197 98.6165C97.2465 98.6943 97.296 98.7579 97.3455 98.8074L98.6289 100.091L101.047 97.6725L99.7638 96.3891C99.7143 96.3396 99.6507 96.2901 99.5729 96.2406C99.4951 96.1911 99.4138 96.1522 99.329 96.124C99.2512 96.0886 99.1734 96.0745 99.0956 96.0815C99.0178 96.0745 98.9507 96.0992 98.8941 96.1558L98.788 96.0497L100.124 94.7133L100.231 94.8193C100.174 94.8759 100.146 94.9466 100.146 95.0315C100.146 95.1022 100.16 95.18 100.188 95.2648C100.216 95.3497 100.255 95.431 100.305 95.5088C100.361 95.5795 100.414 95.6396 100.464 95.6891L103.572 98.7968C103.628 98.8534 103.699 98.91 103.784 98.9665C103.862 99.016 103.943 99.0549 104.028 99.0832C104.113 99.1115 104.194 99.1292 104.272 99.1362C104.357 99.1362 104.424 99.1115 104.473 99.062L104.579 99.168L103.243 100.504L103.137 100.398C103.186 100.349 103.211 100.289 103.211 100.218C103.211 100.133 103.197 100.048 103.169 99.9635C103.133 99.8716 103.091 99.7868 103.041 99.709C102.985 99.6241 102.928 99.5534 102.872 99.4969L101.397 98.0225L98.979 100.441L100.453 101.915ZM108.403 95.3438L107.863 94.8029L107.863 94.9089C107.863 95.2625 107.795 95.6054 107.661 95.9378C107.534 96.263 107.307 96.5883 106.982 96.9136C106.735 97.1611 106.494 97.3449 106.261 97.4651C106.028 97.5853 105.805 97.6525 105.593 97.6666C105.374 97.6737 105.168 97.6384 104.978 97.5606C104.794 97.4757 104.628 97.359 104.479 97.2106C104.239 96.9701 104.09 96.6944 104.034 96.3832C103.984 96.065 104.012 95.7115 104.118 95.3226C104.224 94.9337 104.398 94.5059 104.638 94.0392C104.879 93.5583 105.172 93.0315 105.519 92.4588C105.229 92.1972 104.949 92.031 104.681 91.9603C104.412 91.8896 104.164 91.8754 103.938 91.9179C103.705 91.9532 103.5 92.031 103.323 92.1512C103.139 92.2643 102.994 92.3739 102.888 92.48C102.704 92.6639 102.57 92.8548 102.485 93.0528C102.393 93.2437 102.34 93.4381 102.326 93.6361C102.305 93.827 102.315 94.0144 102.358 94.1983C102.407 94.3751 102.471 94.5377 102.549 94.6862L102.453 94.7816L101.626 93.9543C101.69 93.8907 101.743 93.7952 101.785 93.6679C101.82 93.5336 101.866 93.3816 101.923 93.2119C101.987 93.0351 102.078 92.8442 102.199 92.6391C102.319 92.4199 102.496 92.1936 102.729 91.9603C103.118 91.5714 103.482 91.3062 103.821 91.1648C104.161 91.0234 104.476 90.9703 104.765 91.0057C105.062 91.034 105.338 91.133 105.593 91.3027C105.84 91.4653 106.074 91.6562 106.293 91.8754L108.393 93.9755C108.534 94.117 108.704 94.216 108.902 94.2725C109.093 94.322 109.248 94.2867 109.369 94.1665L109.475 94.2725L108.403 95.3438ZM107.396 94.3362L105.879 92.8194L105.794 92.9467C105.667 93.1588 105.515 93.424 105.338 93.7422C105.168 94.0533 105.031 94.3751 104.925 94.7074C104.818 95.0397 104.765 95.3615 104.765 95.6726C104.765 95.9837 104.868 96.2418 105.073 96.4469C105.299 96.6731 105.579 96.7686 105.911 96.7333C106.243 96.6979 106.558 96.5317 106.855 96.2347C107.088 96.0014 107.244 95.7468 107.322 95.4711C107.392 95.1882 107.421 94.8912 107.406 94.5801L107.396 94.3362ZM113.145 89.2234C113.202 89.28 113.272 89.3366 113.357 89.3932C113.435 89.4427 113.52 89.4851 113.612 89.5204C113.704 89.5416 113.788 89.5558 113.866 89.5629C113.944 89.5558 114.011 89.524 114.068 89.4674L114.174 89.5735L112.795 90.9523L112.689 90.8463C112.738 90.7968 112.763 90.7296 112.763 90.6447C112.763 90.5599 112.749 90.475 112.721 90.3902C112.7 90.2982 112.664 90.2134 112.615 90.1356C112.558 90.0508 112.502 89.9801 112.445 89.9235L110.96 88.4386C110.896 88.5305 110.85 88.6613 110.822 88.831C110.787 88.9936 110.769 89.181 110.769 89.3932C110.762 89.5982 110.769 89.8103 110.79 90.0295C110.812 90.2488 110.84 90.4609 110.875 90.6659C110.903 90.8357 110.925 90.9771 110.939 91.0902C110.953 91.2033 110.971 91.3059 110.992 91.3978C111.013 91.5604 111.031 91.7195 111.045 91.8751C111.052 92.0236 111.041 92.1756 111.013 92.3312C110.992 92.4797 110.939 92.6317 110.854 92.7873C110.769 92.9428 110.645 93.1019 110.483 93.2646L110.09 93.657L109.984 93.5509C110.069 93.4661 110.129 93.3565 110.165 93.2221C110.207 93.0807 110.235 92.9322 110.249 92.7767C110.256 92.614 110.253 92.4549 110.239 92.2994C110.225 92.1297 110.207 91.9776 110.186 91.8433L110.058 91.0584C110.016 90.7755 109.981 90.4927 109.952 90.2099C109.917 89.9199 109.935 89.6477 110.005 89.3932C109.744 89.6406 109.482 89.8316 109.221 89.9659C108.959 90.1003 108.708 90.1816 108.467 90.2099C108.227 90.2381 108.004 90.2205 107.799 90.1568C107.594 90.079 107.414 89.9624 107.258 89.8068C107.11 89.6583 107 89.4851 106.93 89.2871C106.866 89.082 106.859 88.8558 106.908 88.6083C106.951 88.3537 107.057 88.085 107.226 87.8022C107.396 87.5052 107.644 87.1941 107.969 86.8688L109.719 85.1187L109.825 85.2248C109.769 85.2813 109.74 85.352 109.74 85.4369C109.74 85.5076 109.751 85.5889 109.772 85.6808C109.8 85.7657 109.839 85.847 109.889 85.9248C109.938 86.0026 109.988 86.0662 110.037 86.1157L113.145 89.2234ZM107.884 89.0537C107.99 89.1598 108.128 89.2341 108.298 89.2765C108.475 89.3118 108.662 89.3154 108.86 89.2871C109.065 89.2517 109.27 89.1881 109.475 89.0962C109.673 88.9972 109.857 88.8628 110.027 88.6931L110.621 88.0991L109.019 86.4976L108.33 87.187C107.905 87.6112 107.672 87.9789 107.63 88.2901C107.594 88.5941 107.679 88.8487 107.884 89.0537ZM118.3 84.0683C118.357 84.1249 118.427 84.1814 118.512 84.238C118.59 84.2875 118.668 84.3299 118.746 84.3653C118.83 84.3936 118.912 84.4113 118.99 84.4183C119.074 84.4183 119.145 84.39 119.202 84.3335L119.308 84.4395L117.961 85.7866L117.855 85.6805C117.911 85.6239 117.943 85.5568 117.95 85.479C117.95 85.3941 117.932 85.3128 117.897 85.235C117.862 85.1431 117.819 85.0583 117.77 84.9805C117.713 84.8956 117.657 84.8249 117.6 84.7683L114.492 81.6606C114.443 81.6111 114.379 81.5616 114.301 81.5121C114.217 81.4555 114.135 81.4167 114.057 81.3954C113.973 81.3672 113.891 81.3566 113.814 81.3636C113.729 81.3636 113.662 81.3884 113.612 81.4379L113.506 81.3318L117.908 76.9301L118.014 77.0361C117.901 77.1493 117.883 77.3013 117.961 77.4922C118.031 77.6761 118.12 77.821 118.226 77.9271L121.334 81.0348C121.39 81.0914 121.461 81.148 121.546 81.2045C121.624 81.254 121.705 81.2929 121.79 81.3212C121.875 81.3495 121.959 81.3636 122.044 81.3636C122.136 81.3566 122.207 81.3283 122.256 81.2788L122.362 81.3848L120.994 82.7531L120.888 82.647C120.952 82.5834 120.984 82.5162 120.984 82.4455C120.984 82.3606 120.969 82.2758 120.941 82.1909C120.906 82.099 120.86 82.0177 120.803 81.947C120.747 81.8621 120.69 81.7914 120.634 81.7349L117.239 78.3407L114.906 80.6742L118.3 84.0683ZM126.443 77.0919C126.493 77.0424 126.528 76.9646 126.549 76.8586C126.571 76.7525 126.542 76.6606 126.464 76.5828C126.45 76.5686 126.415 76.5474 126.358 76.5191C126.302 76.4767 126.231 76.4414 126.146 76.4131L121.617 74.5781L123.558 79.3193C123.728 79.7294 123.636 80.1112 123.282 80.4648L123.049 80.6981L122.943 80.5921C123.042 80.4931 123.099 80.3375 123.113 80.1254C123.127 79.8991 123.099 79.6799 123.028 79.4678L121.098 74.6524C121.041 74.5251 120.984 74.4332 120.928 74.3766C120.843 74.2918 120.744 74.3059 120.631 74.419L120.525 74.313L121.384 73.4538L126.836 75.6388C126.991 75.6954 127.179 75.7413 127.398 75.7767C127.617 75.7979 127.769 75.7661 127.854 75.6812L127.96 75.7873L126.549 77.198L126.443 77.0919ZM131.398 72.349L130.857 71.8081L130.857 71.9141C130.857 72.2677 130.79 72.6106 130.656 72.943C130.529 73.2682 130.302 73.5935 129.977 73.9188C129.73 74.1663 129.489 74.3501 129.256 74.4703C129.022 74.5905 128.8 74.6577 128.588 74.6719C128.368 74.6789 128.163 74.6436 127.972 74.5658C127.789 74.4809 127.622 74.3643 127.474 74.2158C127.233 73.9754 127.085 73.6996 127.028 73.3885C126.979 73.0703 127.007 72.7167 127.113 72.3278C127.219 71.9389 127.393 71.5111 127.633 71.0444C127.873 70.5636 128.167 70.0368 128.513 69.464C128.223 69.2024 127.944 69.0362 127.675 68.9655C127.407 68.8948 127.159 68.8806 126.933 68.9231C126.7 68.9584 126.494 69.0362 126.318 69.1564C126.134 69.2696 125.989 69.3792 125.883 69.4852C125.699 69.6691 125.565 69.86 125.48 70.058C125.388 70.2489 125.335 70.4434 125.321 70.6413C125.299 70.8323 125.31 71.0196 125.353 71.2035C125.402 71.3803 125.466 71.5429 125.543 71.6914L125.448 71.7869L124.621 70.9595C124.684 70.8959 124.737 70.8004 124.78 70.6732C124.815 70.5388 124.861 70.3868 124.918 70.2171C124.981 70.0403 125.073 69.8494 125.193 69.6443C125.314 69.4251 125.49 69.1988 125.724 68.9655C126.113 68.5766 126.477 68.3114 126.816 68.17C127.156 68.0286 127.47 67.9755 127.76 68.0109C128.057 68.0392 128.333 68.1382 128.588 68.3079C128.835 68.4705 129.068 68.6614 129.288 68.8806L131.388 70.9808C131.529 71.1222 131.699 71.2212 131.897 71.2777C132.088 71.3272 132.243 71.2919 132.363 71.1717L132.47 71.2777L131.398 72.349ZM130.391 71.3414L128.874 69.8246L128.789 69.9519C128.662 70.164 128.51 70.4292 128.333 70.7474C128.163 71.0585 128.025 71.3803 127.919 71.7126C127.813 72.0449 127.76 72.3667 127.76 72.6778C127.76 72.9889 127.863 73.247 128.068 73.4521C128.294 73.6784 128.573 73.7738 128.906 73.7385C129.238 73.7031 129.553 73.5369 129.85 73.24C130.083 73.0066 130.239 72.7521 130.316 72.4763C130.387 72.1934 130.415 71.8965 130.401 71.5853L130.391 71.3414ZM133.69 63.3755C133.612 63.2977 133.513 63.227 133.393 63.1634C133.272 63.0997 133.149 63.0608 133.021 63.0467C132.887 63.0255 132.753 63.0325 132.618 63.0679C132.484 63.1033 132.36 63.1775 132.247 63.2906L131.314 64.224L134.729 67.6393C134.786 67.6959 134.853 67.7489 134.931 67.7984C135.008 67.8479 135.093 67.8904 135.185 67.9257C135.277 67.9469 135.362 67.9611 135.44 67.9681C135.525 67.9681 135.595 67.9399 135.652 67.8833L135.758 67.9894L134.379 69.3682L134.273 69.2622C134.33 69.2056 134.358 69.1349 134.358 69.05C134.358 68.9652 134.344 68.8803 134.315 68.7955C134.294 68.7035 134.259 68.6187 134.209 68.5409C134.153 68.4561 134.096 68.3853 134.04 68.3288L130.624 64.9134L129.712 65.8256C129.599 65.9388 129.525 66.0625 129.489 66.1968C129.454 66.3312 129.447 66.4655 129.468 66.5999C129.489 66.7201 129.532 66.8403 129.595 66.9605C129.659 67.0807 129.73 67.1797 129.808 67.2575L129.702 67.3636L128.588 66.2499L132.671 62.1663L133.785 63.28L133.69 63.3755ZM137.882 56.8069C138.229 56.4604 138.586 56.2306 138.954 56.1174C139.328 55.9972 139.7 55.9654 140.067 56.022C140.435 56.0785 140.789 56.2129 141.128 56.425C141.467 56.623 141.782 56.867 142.072 57.1569C142.355 57.4397 142.595 57.765 142.793 58.1327C142.991 58.4862 143.115 58.8575 143.164 59.2464C143.221 59.6282 143.193 60.0171 143.08 60.4131C142.959 60.802 142.726 61.1697 142.38 61.5162C142.245 61.6505 142.097 61.7566 141.934 61.8344C141.786 61.9122 141.637 61.9758 141.489 62.0253C141.319 62.0819 141.146 62.1208 140.969 62.142L142.931 64.1042C142.988 64.1608 143.055 64.2138 143.133 64.2633C143.218 64.3199 143.302 64.3623 143.387 64.3906C143.479 64.4118 143.564 64.4259 143.642 64.433C143.727 64.433 143.797 64.4047 143.854 64.3481L143.96 64.4542L142.602 65.8119L142.496 65.7058C142.553 65.6492 142.581 65.5785 142.581 65.4937C142.588 65.4159 142.574 65.331 142.539 65.2391C142.51 65.1542 142.468 65.0694 142.411 64.9845C142.362 64.9068 142.309 64.8396 142.252 64.783L140.29 62.8208C140.29 62.9622 140.258 63.1637 140.195 63.4254C140.131 63.6729 139.958 63.938 139.675 64.2209C139.328 64.5674 138.961 64.8007 138.572 64.9209C138.176 65.034 137.783 65.0659 137.394 65.0164C136.999 64.9598 136.617 64.8325 136.249 64.6345C135.888 64.4295 135.56 64.1784 135.263 63.8815C134.98 63.5986 134.743 63.291 134.552 62.9587C134.354 62.6193 134.227 62.2728 134.17 61.9192C134.114 61.5515 134.142 61.1838 134.255 60.8161C134.375 60.4414 134.608 60.0808 134.955 59.7343C135.294 59.3949 135.595 59.1933 135.857 59.1297C136.118 59.0519 136.327 59.013 136.482 59.013L135.22 57.7508C135.171 57.7013 135.111 57.6554 135.04 57.613C134.962 57.5635 134.881 57.5246 134.796 57.4963C134.711 57.468 134.63 57.4574 134.552 57.4645C134.467 57.4645 134.396 57.4927 134.34 57.5493L134.234 57.4432L135.591 56.0856L135.697 56.1917C135.648 56.2412 135.623 56.3083 135.623 56.3932C135.616 56.471 135.627 56.5523 135.655 56.6371C135.676 56.7149 135.708 56.7962 135.75 56.8811C135.8 56.9589 135.849 57.0225 135.899 57.072L137.151 58.3236C137.158 58.1751 137.2 57.97 137.278 57.7084C137.349 57.4397 137.55 57.1392 137.882 56.8069ZM139.389 63.786C139.523 63.6516 139.615 63.4961 139.664 63.3193C139.714 63.1425 139.731 62.9622 139.717 62.7784C139.703 62.5945 139.661 62.4248 139.59 62.2693C139.519 62.0995 139.431 61.9617 139.325 61.8556L137.532 60.0631C137.377 59.9075 137.204 59.7979 137.013 59.7343C136.822 59.6565 136.627 59.6176 136.429 59.6176C136.238 59.6105 136.051 59.6424 135.867 59.7131C135.69 59.7767 135.535 59.8757 135.4 60.01C135.153 60.2575 134.994 60.5156 134.923 60.7843C134.845 61.046 134.835 61.3111 134.891 61.5798C134.948 61.8485 135.058 62.1137 135.22 62.3753C135.376 62.6299 135.563 62.8668 135.782 63.086C136.044 63.3476 136.337 63.5774 136.663 63.7754C136.981 63.9663 137.303 64.1042 137.628 64.189C137.953 64.2598 138.268 64.2704 138.572 64.2209C138.883 64.1643 139.155 64.0193 139.389 63.786ZM141.977 61.198C142.224 60.9505 142.387 60.6889 142.464 60.4131C142.542 60.1373 142.556 59.8616 142.507 59.5858C142.457 59.2959 142.358 59.0201 142.21 58.7585C142.054 58.4898 141.863 58.2423 141.637 58.016C141.376 57.7544 141.093 57.5281 140.789 57.3372C140.477 57.1392 140.166 56.9978 139.855 56.9129C139.544 56.8281 139.24 56.8139 138.943 56.8705C138.646 56.9129 138.381 57.0508 138.148 57.2841C137.851 57.5811 137.709 57.9276 137.723 58.3236C137.73 58.7125 137.889 59.0625 138.201 59.3737L139.993 61.1662C140.106 61.2793 140.248 61.3712 140.417 61.4419C140.587 61.4985 140.764 61.5339 140.948 61.548C141.139 61.5551 141.326 61.5303 141.51 61.4738C141.694 61.4172 141.849 61.3253 141.977 61.198ZM147.431 56.4646C147.078 56.8182 146.703 57.0798 146.307 57.2495C145.904 57.4121 145.501 57.497 145.098 57.5041C144.695 57.497 144.299 57.4121 143.91 57.2495C143.528 57.0798 143.174 56.8323 142.849 56.5071C142.503 56.1606 142.248 55.7858 142.085 55.3828C141.916 54.9726 141.834 54.559 141.841 54.1418C141.849 53.7246 141.94 53.3145 142.117 52.9114C142.294 52.5084 142.552 52.1371 142.892 51.7977C143.231 51.4583 143.599 51.2037 143.995 51.034C144.384 50.8573 144.78 50.7653 145.183 50.7583C145.586 50.7512 145.982 50.829 146.37 50.9916C146.752 51.1472 147.106 51.3876 147.431 51.7129C147.735 52.0169 147.979 52.3669 148.163 52.7629C148.347 53.1448 148.446 53.5478 148.46 53.9721C148.481 54.3893 148.41 54.8135 148.248 55.2449C148.092 55.6691 147.82 56.0757 147.431 56.4646ZM143.114 52.275C142.874 52.5437 142.711 52.8336 142.626 53.1448C142.542 53.4417 142.52 53.7458 142.563 54.0569C142.605 54.3539 142.701 54.6474 142.849 54.9373C143.005 55.2201 143.196 55.4747 143.422 55.7009C143.683 55.9626 143.977 56.1782 144.302 56.348C144.627 56.5035 144.96 56.6025 145.299 56.6449C145.646 56.6803 145.982 56.6485 146.307 56.5495C146.632 56.4505 146.926 56.2702 147.187 56.0085C147.449 55.7469 147.622 55.4605 147.707 55.1494C147.799 54.8312 147.824 54.5165 147.781 54.2054C147.732 53.8872 147.626 53.5832 147.463 53.2933C147.307 52.9963 147.116 52.7346 146.89 52.5084C146.657 52.275 146.388 52.077 146.084 51.9144C145.773 51.7447 145.448 51.6386 145.108 51.5962C144.762 51.5467 144.415 51.575 144.069 51.681C143.729 51.78 143.411 51.978 143.114 52.275ZM147.79 46.8991C148.172 46.5173 148.568 46.2557 148.978 46.1142C149.388 45.9587 149.791 45.895 150.187 45.9233C150.59 45.9445 150.976 46.0471 151.343 46.2309C151.711 46.4148 152.04 46.6516 152.33 46.9416C152.613 47.2244 152.846 47.5497 153.03 47.9174C153.221 48.278 153.334 48.6598 153.369 49.0629C153.412 49.4589 153.366 49.8584 153.231 50.2614C153.097 50.6645 152.846 51.0498 152.478 51.4175C152.259 51.6367 151.976 51.8064 151.63 51.9267C151.283 52.0327 150.93 52.0893 150.569 52.0964L152.754 54.2813C152.811 54.3379 152.878 54.3909 152.956 54.4404C153.04 54.497 153.125 54.5394 153.21 54.5677C153.302 54.5889 153.387 54.6031 153.465 54.6101C153.55 54.6101 153.62 54.5818 153.677 54.5253L153.783 54.6313L152.404 56.0102L152.298 55.9041C152.347 55.8546 152.372 55.7875 152.372 55.7026C152.372 55.6178 152.358 55.5329 152.33 55.448C152.309 55.3561 152.27 55.2677 152.213 55.1829C152.164 55.1051 152.111 55.0379 152.054 54.9814L146.581 49.5084C146.517 49.4447 146.454 49.3881 146.39 49.3386C146.326 49.275 146.263 49.2326 146.199 49.2114C146.128 49.1831 146.054 49.1795 145.976 49.2008C145.899 49.2078 145.814 49.2503 145.722 49.328L145.616 49.222L146.655 48.1825L147.122 48.6492C147.094 48.3381 147.133 48.0376 147.239 47.7477C147.345 47.4436 147.528 47.1608 147.79 46.8991ZM152.128 51.0463C152.369 50.7917 152.528 50.5195 152.606 50.2296C152.683 49.9397 152.697 49.6498 152.648 49.3599C152.598 49.0699 152.499 48.7942 152.351 48.5325C152.195 48.2638 152.004 48.0164 151.778 47.7901C151.524 47.5355 151.237 47.3199 150.919 47.1431C150.601 46.9663 150.279 46.8496 149.954 46.7931C149.622 46.7294 149.296 46.7365 148.978 46.8143C148.66 46.8779 148.377 47.0335 148.13 47.281C147.981 47.4295 147.861 47.6062 147.769 47.8113C147.684 48.0093 147.638 48.2179 147.631 48.4371C147.631 48.6492 147.67 48.8649 147.748 49.0841C147.825 49.2891 147.953 49.4801 148.13 49.6568L149.519 51.0463C149.71 51.2372 149.926 51.3751 150.166 51.46C150.399 51.5377 150.636 51.5766 150.877 51.5766C151.117 51.5625 151.347 51.5095 151.566 51.4175C151.785 51.3256 151.973 51.2019 152.128 51.0463ZM159.687 42.6814C159.744 42.738 159.814 42.7946 159.899 42.8511C159.977 42.9006 160.058 42.9395 160.143 42.9678C160.235 42.989 160.323 42.9996 160.408 42.9996C160.493 42.9996 160.564 42.9713 160.62 42.9148L160.726 43.0208L159.348 44.3997L159.242 44.2936C159.298 44.2371 159.33 44.1699 159.337 44.0921C159.337 44.0073 159.323 43.9224 159.295 43.8375C159.259 43.7456 159.217 43.6608 159.167 43.583C159.111 43.4981 159.054 43.4274 158.998 43.3709L156.134 40.5071L158.011 45.927L152.878 44.1876L155.529 46.8392C155.586 46.8958 155.656 46.9524 155.741 47.0089C155.819 47.0584 155.9 47.0973 155.985 47.1256C156.07 47.1539 156.155 47.168 156.24 47.168C156.325 47.168 156.395 47.1397 156.452 47.0832L156.558 47.1892L155.529 48.2181L155.423 48.112C155.48 48.0554 155.508 47.9847 155.508 47.8999C155.508 47.815 155.49 47.7337 155.455 47.6559C155.427 47.5711 155.388 47.4898 155.338 47.412C155.282 47.3271 155.225 47.2564 155.169 47.1998L152.061 44.0921C151.934 43.9648 151.792 43.8588 151.637 43.7739C151.488 43.682 151.336 43.7138 151.181 43.8694L151.074 43.7633L152.018 42.8193L156.961 44.5164L155.264 39.5737L156.272 38.5661L156.378 38.6721C156.272 38.7782 156.254 38.9302 156.325 39.1282C156.388 39.3191 156.473 39.4676 156.579 39.5737L159.687 42.6814ZM164.565 39.1827L164.024 38.6417L164.024 38.7478C164.024 39.1013 163.957 39.4443 163.822 39.7766C163.695 40.1019 163.469 40.4272 163.143 40.7524C162.896 40.9999 162.655 41.1838 162.422 41.304C162.189 41.4242 161.966 41.4914 161.754 41.5055C161.535 41.5126 161.33 41.4772 161.139 41.3994C160.955 41.3146 160.789 41.1979 160.64 41.0494C160.4 40.809 160.251 40.5332 160.195 40.2221C160.145 39.9039 160.173 39.5504 160.28 39.1614C160.386 38.7725 160.559 38.3447 160.799 37.878C161.04 37.3972 161.333 36.8704 161.68 36.2977C161.39 36.036 161.11 35.8699 160.842 35.7992C160.573 35.7284 160.326 35.7143 160.099 35.7567C159.866 35.7921 159.661 35.8699 159.484 35.9901C159.3 36.1032 159.155 36.2128 159.049 36.3189C158.865 36.5027 158.731 36.6936 158.646 36.8916C158.554 37.0825 158.501 37.277 158.487 37.475C158.466 37.6659 158.476 37.8533 158.519 38.0371C158.568 38.2139 158.632 38.3766 158.71 38.525L158.614 38.6205L157.787 37.7932C157.851 37.7296 157.904 37.6341 157.946 37.5068C157.981 37.3725 158.027 37.2204 158.084 37.0507C158.148 36.874 158.24 36.683 158.36 36.478C158.48 36.2588 158.657 36.0325 158.89 35.7992C159.279 35.4102 159.643 35.1451 159.983 35.0037C160.322 34.8622 160.637 34.8092 160.927 34.8446C161.224 34.8728 161.499 34.9718 161.754 35.1415C162.001 35.3042 162.235 35.4951 162.454 35.7143L164.554 37.8144C164.695 37.9558 164.865 38.0548 165.063 38.1114C165.254 38.1609 165.41 38.1255 165.53 38.0053L165.636 38.1114L164.565 39.1827ZM163.557 38.175L162.04 36.6583L161.955 36.7856C161.828 36.9977 161.676 37.2629 161.499 37.5811C161.33 37.8922 161.192 38.2139 161.086 38.5463C160.98 38.8786 160.927 39.2003 160.927 39.5115C160.927 39.8226 161.029 40.0807 161.234 40.2857C161.46 40.512 161.74 40.6075 162.072 40.5721C162.404 40.5368 162.719 40.3706 163.016 40.0736C163.249 39.8403 163.405 39.5857 163.483 39.3099C163.553 39.0271 163.582 38.7301 163.568 38.419L163.557 38.175Z" fill="#8E8EA3" fill-opacity="0.3"/>
</svg>
